<?xml version="1.0" encoding="utf-8"?>
<!-- Generator: Adobe Illustrator 19.0.0, SVG Export Plug-In . SVG Version: 6.00 Build 0)  -->
<svg version="1.1" id="Capa_1" xmlns="http://www.w3.org/2000/svg" xmlns:xlink="http://www.w3.org/1999/xlink" x="0px" y="0px"
	 viewBox="-69 160.8 472.2 472.2" style="enable-background:new -69 160.8 472.2 472.2;" xml:space="preserve">
<style type="text/css">
	.st0{fill:#4A00E0;}
	.st1{fill:#322153;}
</style>
<g>
	<path class="st0" d="M4.9,622.2c14.4,14.4,38.4,14.4,52.8,0c3.2-3.2,3.2-8,0-11.2l-84.8-84.8c-3.2-3.2-8-3.2-11.2,0
		c-14.4,14.4-14.4,38.4,0,52.8L4.9,622.2z"/>
	<path class="st0" d="M345.8,419c3.2,3.2,8,3.2,11.2,0l8-7.2c10.4-8.8,10.4-24.8,0.8-34.4L204.1,211.8c-6.4-6.4-16-6.4-22.4-0.8
		l-16.8,15.2c-3.2,3.2-3.2,8,0,11.2l9.6,9.6l160,160L345.8,419z"/>
</g>
<g>
	<path class="st1" d="M364.1,176.6l-33.6,33.6c-3.2,3.2-3.2,8,0,11.2c1.6,1.6,4,2.4,5.6,2.4s4-0.8,5.6-2.4l33.6-33.6
		c3.2-3.2,3.2-8,0-11.2S366.5,173.4,364.1,176.6z"/>
	<path class="st1" d="M303.4,208.6c3.2,0,5.6-1.6,7.2-4.8l16-32c1.6-4,0-8.8-3.2-10.4c-4-1.6-8.8,0-10.4,3.2l-16,32
		c-1.6,4,0,8.8,3.2,10.4C301,208.6,301.8,208.6,303.4,208.6z"/>
	<path class="st1" d="M379.4,225.4l-32,16c-4,1.6-5.6,6.4-3.2,10.4c1.6,3.2,4,4.8,7.2,4.8c1.6,0,2.4,0,3.2-0.8l32-16
		c4-1.6,5.6-6.4,3.2-10.4S383.4,223.8,379.4,225.4z"/>
	<path class="st1" d="M176.1,174.2l-16.8,15.2c-2.4,3.2-4.8,7.2-4.8,11.2s1.6,8.8,4.8,11.2l4.8,4.8L-19.1,490.2l-2.4-1.6
		c-3.2-3.2-7.2-4.8-11.2-4.8l0,0c-4,0-8,1.6-11.2,4.8c-8,8-12.8,20-12.8,32c0,12,4.8,23.2,13.6,32l43.2,43.2
		c8.8,8.8,20,13.6,32,13.6s23.2-4.8,32-13.6c6.4-6.4,6.4-16,0-22.4l-4-4l27.2-17.6l9.6,15.2c10.4,16.8,28.8,25.6,47.2,25.6
		c10.4,0,20.8-3.2,30.4-8.8c25.6-16.8,33.6-51.2,16.8-77.6l-10.4-16.8L335.3,387l6.4,6.4c6.4,5.6,16,6.4,21.6,0l8-7.2
		c6.4-5.6,10.4-13.6,10.4-22.4s-3.2-16.8-8.8-23.2L209.8,174.2C201,165.4,185.8,164.6,176.1,174.2z M10.6,584.6l-43.2-43.2
		c-5.6-5.6-8-12.8-8-20.8s3.2-15.2,8.8-20.8l84,84.8C40.9,595.8,22.6,595.8,10.6,584.6z M176.9,515c12,18.4,6.4,43.2-12,55.2
		s-43.2,6.4-55.2-12l-9.6-15.2l66.4-44L176.9,515z M364.1,363c0,4-2.4,8.8-5.6,11.2l-8,7.2L339.3,371c-2.4-2.4-7.2-3.2-10.4-0.8
		L164.1,480.6l0,0l0,0l-80,52.8l0,0l0,0l-36,24l-56-56l183.2-272.8l124.8,124.8c3.2,3.2,8,3.2,11.2,0c3.2-3.2,3.2-8,0-11.2
		L180.9,211l0,0l-9.6-9.6l16.8-15.2c3.2-3.2,8-3.2,11.2,0l161.6,165.6C363.4,354.2,365,359,364.1,363z"/>
	<path class="st1" d="M185.8,355l-64,64c-3.2,3.2-3.2,8,0,11.2c1.6,1.6,4,2.4,5.6,2.4s4-0.8,5.6-2.4l64-64c3.2-3.2,3.2-8,0-11.2
		C193.8,351.8,189,351.8,185.8,355z"/>
	<path class="st1" d="M127.4,400.6c2.4,0,4-0.8,5.6-2.4l32-32c3.2-3.2,3.2-8,0-11.2c-3.2-3.2-8-3.2-11.2,0l-32,32
		c-3.2,3.2-3.2,8,0,11.2C123.4,399.8,125.8,400.6,127.4,400.6z"/>
	<path class="st1" d="M185.8,387l-32,32c-3.2,3.2-3.2,8,0,11.2c1.6,1.6,4,2.4,5.6,2.4s4-0.8,5.6-2.4l32-32c3.2-3.2,3.2-8,0-11.2
		C193.8,383.8,189,383.8,185.8,387z"/>
</g>
</svg>
