<?xml version="1.0" encoding="utf-8"?>
<!-- Generator: Adobe Illustrator 19.0.0, SVG Export Plug-In . SVG Version: 6.00 Build 0)  -->
<svg version="1.1" id="Capa_1" xmlns="http://www.w3.org/2000/svg" xmlns:xlink="http://www.w3.org/1999/xlink" x="0px" y="0px"
	 viewBox="-73 165 464 464" style="enable-background:new -73 165 464 464;" xml:space="preserve">
<style type="text/css">
	.st0{fill:#4A00E0;}
	.st1{fill:#322153;}
</style>
<g>
	<path class="st0" d="M117.4,547.4c6.4,6.4,14.4,9.6,22.4,9.6h37.6c8.8,0,16.8-3.2,22.4-9.6L223,525H95L117.4,547.4z"/>
	<circle class="st0" cx="159" cy="269" r="32"/>
</g>
<g>
	<path class="st1" d="M151,557v64c0,4.8,3.2,8,8,8s8-3.2,8-8v-64c0-4.8-3.2-8-8-8S151,552.2,151,557z"/>
	<path class="st1" d="M135,557c0-4.8-3.2-8-8-8s-8,3.2-8,8v32c0,4.8,3.2,8,8,8s8-3.2,8-8V557z"/>
	<path class="st1" d="M183,557v32c0,4.8,3.2,8,8,8s8-3.2,8-8v-32c0-4.8-3.2-8-8-8S183,552.2,183,557z"/>
	<path class="st1" d="M159,277c22.4,0,40-17.6,40-40s-17.6-40-40-40s-40,17.6-40,40S136.6,277,159,277z M159,213
		c13.6,0,24,10.4,24,24s-10.4,24-24,24s-24-10.4-24-24S145.4,213,159,213z"/>
	<path class="st1" d="M127,405c2.4,0,4-0.8,5.6-2.4l64-64c3.2-3.2,3.2-8,0-11.2c-3.2-3.2-8-3.2-11.2,0l-64,64c-3.2,3.2-3.2,8,0,11.2
		C123,404.2,124.6,405,127,405z"/>
	<path class="st1" d="M127,373c2.4,0,4-0.8,5.6-2.4l32-32c3.2-3.2,3.2-8,0-11.2c-3.2-3.2-8-3.2-11.2,0l-32,32c-3.2,3.2-3.2,8,0,11.2
		C123,372.2,124.6,373,127,373z"/>
	<path class="st1" d="M185.4,359.4l-32,32c-3.2,3.2-3.2,8,0,11.2c1.6,1.6,4,2.4,5.6,2.4s4-0.8,5.6-2.4l32-32c3.2-3.2,3.2-8,0-11.2
		S188.6,356.2,185.4,359.4z"/>
	<path class="st1" d="M-9,461c0,4.8,3.2,8,8,8h56.8c3.2,16.8,17.6,30.4,35.2,32l20.8,20.8c7.2,7.2,17.6,12,28,12h37.6
		c10.4,0,20.8-4,28-12l20.8-20.8c17.6-1.6,32-14.4,35.2-32H319c4.8,0,8-3.2,8-8c0-40.8-30.4-74.4-70.4-79.2h-2.4l-16-146.4
		c-4.8-40-38.4-70.4-79.2-70.4s-74.4,30.4-79.2,70.4l-16,146.4h-2.4C21.4,386.6-9,420.2-9,461z M177.4,517h-37.6
		c-6.4,0-12.8-2.4-16.8-7.2l-8.8-8.8h89.6l-8.8,8.8C190.2,514.6,183.8,517,177.4,517z M310.2,453h-48l-6.4-55.2
		C284.6,401.8,307,425,310.2,453z M95.8,237.8c4-32.8,30.4-56.8,63.2-56.8s59.2,24,63.2,56.8L247,461c0,12.8-11.2,24-24,24H95
		c-10.4,0-19.2-6.4-22.4-16H223c4.8,0,8-3.2,8-8s-3.2-8-8-8H71.8L95.8,237.8z M62.2,397.8L55.8,453h-48
		C11,425,33.4,401.8,62.2,397.8z"/>
	<path class="st1" d="M-73,573c0,31.2,24.8,56,56,56h96c7.2,0,13.6-3.2,18.4-8.8s6.4-12.8,5.6-19.2c-1.6-11.2-12.8-20-24.8-20
		c-4,0-7.2-3.2-7.2-7.2V573l0,0c0-13.6-10.4-24-24-24c-4,0-8.8,0.8-12,3.2C27,531.4,6.2,517-17,517C-48.2,517-73,541.8-73,573z
		 M23,573c0,4.8,3.2,8,8,8s8-3.2,8-8s3.2-8,8-8s8,3.2,8,8s-3.2,8-8,8s-8,3.2-8,8s3.2,8,8,8c6.4,0,11.2-2.4,16-5.6
		c4,4,9.6,5.6,15.2,5.6c4,0,8,3.2,8.8,6.4c0,2.4,0,4.8-1.6,6.4c-1.6,2.4-4,3.2-6.4,3.2h-96c-22.4,0-40-17.6-40-40s17.6-40,40-40
		S23,550.6,23,573z"/>
	<path class="st1" d="M-41,573c0,4.8,3.2,8,8,8s8-3.2,8-8s3.2-8,8-8s8-3.2,8-8s-3.2-8-8-8C-30.6,549-41,559.4-41,573z"/>
	<path class="st1" d="M335,517c-23.2,0-44,14.4-52,35.2c-3.2-2.4-8-3.2-12-3.2c-13.6,0-24,10.4-24,24l0,0v0.8c0,4-3.2,7.2-7.2,7.2
		c-12,0-22.4,8.8-24.8,20c-0.8,7.2,0.8,14.4,5.6,19.2s11.2,8.8,18.4,8.8h96c31.2,0,56-24.8,56-56S366.2,517,335,517z M335,613h-96
		c-2.4,0-4.8-0.8-6.4-3.2c-1.6-1.6-1.6-4-1.6-6.4c0.8-4,4.8-6.4,8.8-6.4c5.6,0,11.2-2.4,15.2-5.6c4,4,9.6,5.6,16,5.6
		c4.8,0,8-3.2,8-8s-3.2-8-8-8s-8-3.2-8-8s3.2-8,8-8s8,3.2,8,8s3.2,8,8,8s8-3.2,8-8c0-22.4,17.6-40,40-40s40,17.6,40,40
		S357.4,613,335,613z"/>
	<path class="st1" d="M351,565c-4.8,0-8,3.2-8,8s-3.2,8-8,8h-16c-4.8,0-8,3.2-8,8s3.2,8,8,8h16c13.6,0,24-10.4,24-24
		C359,568.2,355.8,565,351,565z"/>
</g>
</svg>
