<?xml version="1.0" encoding="utf-8"?>
<!-- Generator: Adobe Illustrator 19.0.0, SVG Export Plug-In . SVG Version: 6.00 Build 0)  -->
<svg version="1.1" id="Capa_1" xmlns="http://www.w3.org/2000/svg" xmlns:xlink="http://www.w3.org/1999/xlink" x="0px" y="0px"
	 viewBox="-73 165 464 464" style="enable-background:new -73 165 464 464;" xml:space="preserve">
<style type="text/css">
	.st0{fill:#4A00E0;}
	.st1{fill:#322153;}
</style>
<path class="st0" d="M271,237c8.8,0,16-7.2,16-16s-7.2-16-16-16H47c-8.8,0-16,7.2-16,16s7.2,16,16,16h16l-96,128
	c0,17.6,14.4,32,32,32s32-14.4,32-32c0,17.6,14.4,32,32,32s32-14.4,32-32c0,17.6,14.4,32,32,32s32-14.4,32-32c0,17.6,14.4,32,32,32
	s32-14.4,32-32c0,17.6,14.4,32,32,32s32-14.4,32-32c0,17.6,14.4,32,32,32s32-14.4,32-32l-96-128H271z"/>
<g>
	<path class="st1" d="M-49,629h416c13.6,0,24-10.4,24-24s-10.4-24-24-24h-40V372.2c17.6-4,31.2-19.2,32-37.6l0,0v-0.8V333
		c0-0.8,0-0.8,0-1.6s-0.8-0.8-0.8-1.6V329L271,213l0,0c13.6,0,24-10.4,24-24s-10.4-24-24-24H47c-13.6,0-24,10.4-24,24s10.4,24,24,24
		l0,0l-86.4,115.2c0,0.8-0.8,0.8-0.8,1.6c0,0,0,0,0,0.8c-0.8,0-0.8,0.8-0.8,2.4l0,0c0,0.8,0,0.8,0,1.6l0,0
		c0.8,18.4,14.4,34.4,32,37.6V581h-40c-13.6,0-24,10.4-24,24S-62.6,629-49,629z M39,189c0-4.8,3.2-8,8-8h224c4.8,0,8,3.2,8,8
		s-3.2,8-8,8h-16h-0.8c-0.8,0-0.8,0-1.6,0c-0.8,0-0.8,0.8-1.6,0.8h-0.8c0,0,0,0,0,0.8c-0.8,0-0.8,0.8-0.8,1.6l-0.8,0.8
		c0,0.8,0,0.8-0.8,1.6c0,0.8,0,0.8,0,1.6c0,0,0,0,0,0.8v0.8c0,0.8,0,0.8,0,1.6c0,0.8,0.8,0.8,0.8,1.6v0.8L343,335.4
		c-0.8,12-11.2,21.6-24,21.6c-10.4,0-19.2-6.4-22.4-16H319c4.8,0,8-3.2,8-8s-3.2-8-8-8h-27.2l-61.6-123.2c-1.6-3.2-4-4.8-7.2-4.8
		h-32l0,0H47C42.2,197,39,193.8,39,189z M116.6,213l-28,112H43.8l56-112H116.6z M85.4,341c-3.2,9.6-12,16-22.4,16s-19.2-6.4-22.4-16
		H85.4z M127,325h-21.6l28-112H151v120c0,13.6-10.4,24-24,24c-10.4,0-19.2-6.4-22.4-16H127c4.8,0,8-3.2,8-8S131.8,325,127,325z
		 M191,325h-24V213h17.6L215,333.8c0,12.8-11.2,23.2-24,23.2c-10.4,0-19.2-6.4-22.4-16H191c4.8,0,8-3.2,8-8S195.8,325,191,325z
		 M229.4,325l-28-112h16.8l56,112H229.4z M277.4,341c-3.2,9.6-12,16-22.4,16s-19.2-6.4-22.4-16H277.4z M-23.4,341H-1
		c4.8,0,8-3.2,8-8s-3.2-8-8-8h-16l84-112h15.2L23.8,329.8l0,0c-0.8,0.8-0.8,1.6-0.8,3.2c0,13.6-10.4,24-24,24
		C-11.4,357-20.2,350.6-23.4,341z M7,372.2c9.6-2.4,18.4-8,24-15.2c7.2,9.6,19.2,16,32,16s24.8-6.4,32-16c7.2,9.6,19.2,16,32,16
		s24.8-6.4,32-16c7.2,9.6,19.2,16,32,16c12.8,0,24.8-6.4,32-16c7.2,9.6,19.2,16,32,16s24.8-6.4,32-16c5.6,8,14.4,13.6,24,15.2V581H7
		V372.2z M-49,597h416c4.8,0,8,3.2,8,8s-3.2,8-8,8H-49c-4.8,0-8-3.2-8-8S-53.8,597-49,597z"/>
	<path class="st1" d="M127,389H31c-4.8,0-8,3.2-8,8v160c0,4.8,3.2,8,8,8h96c4.8,0,8-3.2,8-8V397C135,392.2,131.8,389,127,389z
		 M119,549H39V405h80V549z"/>
	<path class="st1" d="M287,389H159c-4.8,0-8,3.2-8,8v128c0,4.8,3.2,8,8,8h128c4.8,0,8-3.2,8-8V397C295,392.2,291.8,389,287,389z
		 M279,517H167V405h112V517z"/>
	<path class="st1" d="M191,501c2.4,0,4-0.8,5.6-2.4l64-64c3.2-3.2,3.2-8,0-11.2s-8-3.2-11.2,0l-64,64c-3.2,3.2-3.2,8,0,11.2
		C187,500.2,188.6,501,191,501z"/>
	<path class="st1" d="M191,469c2.4,0,4-0.8,5.6-2.4l32-32c3.2-3.2,3.2-8,0-11.2s-8-3.2-11.2,0l-32,32c-3.2,3.2-3.2,8,0,11.2
		C187,468.2,188.6,469,191,469z"/>
	<path class="st1" d="M249.4,455.4l-32,32c-3.2,3.2-3.2,8,0,11.2c1.6,1.6,4,2.4,5.6,2.4s4-0.8,5.6-2.4l32-32c3.2-3.2,3.2-8,0-11.2
		S252.6,452.2,249.4,455.4z"/>
	<circle class="st1" cx="95" cy="461" r="16"/>
	<path class="st1" d="M255,549h-64c-4.8,0-8,3.2-8,8s3.2,8,8,8h64c4.8,0,8-3.2,8-8S259.8,549,255,549z"/>
</g>
</svg>
