<?xml version="1.0" encoding="utf-8"?>
<!-- Generator: Adobe Illustrator 19.0.0, SVG Export Plug-In . SVG Version: 6.00 Build 0)  -->
<svg version="1.1" id="Ñëîé_1" xmlns="http://www.w3.org/2000/svg" xmlns:xlink="http://www.w3.org/1999/xlink" x="0px" y="0px"
	 viewBox="0 0 600 600" style="enable-background:new 0 0 600 600;" xml:space="preserve">
<style type="text/css">
	.st0{opacity:0.5;fill:#173D7A;}
	.st1{fill:#D4ECFF;}
	.st2{fill:#173D7A;}
	.st3{fill:#396CAA;}
	.st4{fill:#FFFFFF;}
	.st5{fill:#FF2C9C;}
	.st6{fill:#5793CE;}
	.st7{fill:#B70083;}
	.st8{fill:#D3008D;}
</style>
<g>
	<path class="st0" d="M570.6,374.3c-4.8-2.8-12.6-2.8-17.4,0L329.4,503.6c-4.8,2.8-4.8,7.3,0,10c4.8,2.8,12.6,2.8,17.4,0
		l223.8-129.3C575.4,381.6,575.4,377.1,570.6,374.3z"/>
	<g>
		<g>
			<path class="st1" d="M593,323.5L593,323.5c-0.2-0.3-0.6-0.5-0.9-0.4l-12.2,2.6l4.8,8.2l8.2-9.4
				C593.1,324.3,593.2,323.9,593,323.5z"/>
			<g>
				<path class="st2" d="M588.2,329.6c0-1.8-1.3-3.9-2.8-4.8c-0.7-0.4-1.3-0.4-1.8-0.2c-14.1-0.1-27.9,3.6-40.1,10.7l-0.9,0.5
					l15.1,25.8l4.5-3c9.5-6.3,17.4-14.5,23.4-24.2l1.9-3.1C587.9,330.9,588.2,330.4,588.2,329.6z"/>
				<path class="st1" d="M560.8,354.7c-0.1-6.7-4.8-14.9-10.7-18.2c-5.9-3.3-10.6-0.6-10.5,6.2c0.1,6.7,4.8,14.9,10.7,18.2
					C556.1,364.2,560.8,361.4,560.8,354.7z"/>
				<polygon class="st1" points="467.9,417.5 557.7,361.6 542.6,335.8 450,387.1 				"/>
				<path class="st1" d="M471.5,409.4c-0.1-8-5.7-17.6-12.6-21.5s-12.5-0.7-12.4,7.3c0.1,8,5.7,17.6,12.6,21.5
					C466,420.7,471.5,417.4,471.5,409.4z"/>
			</g>
			<g>
				<path class="st1" d="M466.4,412.4c-0.1-8-5.7-17.6-12.6-21.5c-6.9-3.9-12.5-0.7-12.4,7.3c0.1,8,5.7,17.6,12.6,21.5
					S466.4,420.4,466.4,412.4z"/>
				
					<rect x="325.5" y="422.6" transform="matrix(-0.8621 0.5067 -0.5067 -0.8621 957.508 619.9775)" class="st1" width="137.9" height="35.3"/>
				<path class="st1" d="M347.5,482.3c-0.1-8-5.7-17.6-12.6-21.5c-6.9-3.9-12.5-0.7-12.4,7.3c0.1,8,5.7,17.6,12.6,21.5
					C342,493.5,347.6,490.3,347.5,482.3z"/>
				<path class="st3" d="M343,479.8c-0.3-4.7-4.1-10.5-8.5-13.1c-4.4-2.5-7.8-0.8-7.6,3.9s4.1,10.5,8.5,13.1
					C339.9,486.2,343.3,484.5,343,479.8z"/>
			</g>
			<g>
				<path class="st4" d="M472.4,408.9c-0.1-8-5.7-17.6-12.6-21.5c-2.8-1.6-5.3-2-7.4-1.4c2.2-2.3,5.9-2.6,10.1-0.2
					c6.9,3.9,12.6,13.6,12.6,21.5c0,4.8-1.9,7.8-5,8.7C471.6,414.4,472.4,412,472.4,408.9z"/>
				<path class="st5" d="M472.4,408.9c-0.1-8-5.7-17.6-12.6-21.5c-3.5-2-6.6-2.1-8.8-0.8l-6.7,4l3.2,5.5c0.6,7.2,5.4,15.5,11.5,19.5
					l3.2,5.5l6.7-4l0,0C471,415.7,472.4,412.9,472.4,408.9z"/>
				<path class="st1" d="M465.7,412.9c-0.1-8-5.7-17.6-12.6-21.5c-6.9-3.9-12.5-0.7-12.4,7.3c0.1,8,5.7,17.6,12.6,21.5
					C460.2,424.1,465.7,420.8,465.7,412.9z"/>
			</g>
			<g>
				<path class="st5" d="M339,479.8c0-3.4-2.5-7.6-5.5-9.3c-3-1.7-5.4-0.3-5.4,3.2c0,3.4,2.5,7.6,5.5,9.3
					C336.6,484.6,339,483.2,339,479.8z"/>
				<path class="st5" d="M339,479.8c0-3.4-2.5-7.6-5.5-9.3c-1.5-0.8-2.8-0.9-3.8-0.3L304.5,485c-3.6,2.1-4.8,6.8-2.7,10.4
					c2.1,3.6,6.8,4.8,10.4,2.7l25.2-14.8l0,0C338.4,482.7,339,481.5,339,479.8z"/>
			</g>
			<g>
				<path class="st6" d="M367,433.5l-3.8-2.1c-2.2-1.2-5-0.9-8.1,0.9l-12.9,7.6c-2.4,1.4-4.4,4.9-4.4,7.7l0.1,6.5
					c0,1.1-0.5,2.3-1.3,3.3l0.5,3l-3.2-1.8l0,0c-0.5-0.2-0.8-0.8-0.8-1.6l-0.1-6.5c0-5.9,4.1-13.2,9.2-16.2l12.9-7.6
					c4.3-2.5,8.4-3,11.5-1.2l3.8,2.1c2.2,1.2,5,0.9,8.1-0.9l52.2-30.7c0.7-0.4,1.3-0.4,1.7-0.2l0,0l3.2,1.8l-2.8,1.1
					c-0.4,1.2-1.2,2.3-2.1,2.8l-52.2,30.7C374.1,434.8,370.1,435.2,367,433.5z"/>
				<path class="st6" d="M366.5,433.2c-2.2-1.2-5-0.9-8.1,0.9l-12.9,7.6c-2.4,1.4-4.4,4.9-4.4,7.7l0.1,6.5c0,1.5-1.1,3.4-2.4,4.2
					c-1.3,0.8-2.4,0.2-2.4-1.4l-0.1-6.5c0-5.9,4.1-13.2,9.2-16.2l12.9-7.6c4.3-2.5,8.4-3,11.5-1.2l3.8,2.1c2.2,1.2,5,0.9,8.1-0.9
					l52.2-30.7c1.3-0.8,2.4-0.2,2.4,1.4c0,1.5-1.1,3.4-2.4,4.2l-52.2,30.7c-4.3,2.5-8.4,3-11.5,1.2L366.5,433.2z"/>
				<g>
					<path class="st4" d="M340.9,450.5l0.1,6.5c0,0,0,0.1,0,0.1c0.1-0.4,0.2-0.8,0.2-1.2l-0.1-6.5c0-0.2,0-0.4,0-0.6
						C341,449.4,340.9,450,340.9,450.5z"/>
				</g>
			</g>
		</g>
	</g>
	<g>
		<g>
			<g>
				<path class="st0" d="M555.7,292.1l-146.2-84.6c-7.9-4.6-21.8-4-31,1.2L71.7,385.3c-9.2,5.3-10.2,13.3-2.3,17.9l146.2,84.6
					c7.9,4.6,21.8,4,31-1.2L553.4,310C562.6,304.7,563.6,296.7,555.7,292.1z"/>
				<path class="st3" d="M211.4,456.8L59.3,368.7c-5-2.9-7.3-6.8-7.2-10.9l0,0l0.1-22.1l8.5,9.9c0.5-0.4,1.1-0.7,1.7-1.1
					l311.2-179.1c12.4-7.1,31-7.9,41.7-1.7l150,86.9c3-3.3,9.4-10.3,9.4-10.3l-0.1,21.6l0,0c0.2,4.9-3.2,10.1-10.2,14.1L253.1,455.1
					C240.8,462.2,222.1,463,211.4,456.8z"/>
				<path class="st2" d="M129.1,402.8l8.8,5.1c1.2,0.7,2.1,0,2.1-1.6l0,0c0-1.6-0.9-3.4-2.1-4l-8.8-5.1c-1.2-0.7-2.1,0-2.1,1.6l0,0
					C127,400.3,128,402.1,129.1,402.8z"/>
				<path class="st6" d="M373.5,165.5c12.4-7.1,31-7.9,41.7-1.7l150,86.9c3-3.3,9.4-10.3,9.4-10.3l-0.1,21.6l0,0
					c0.2,4.9-3.2,10.1-10.2,14.1L253.1,455.1c-6.4,3.7-14.6,5.7-22.5,5.8l0.3-213.4L373.5,165.5z"/>
				<path class="st1" d="M567.4,229.8l-152.1-88.1c-10.7-6.2-29.4-5.4-41.7,1.7L62.4,322.4c-12.4,7.1-13.7,17.9-3,24.1l152.1,88.1
					c10.7,6.2,29.4,5.4,41.7-1.7l311.2-179.1C576.7,246.7,578.1,236,567.4,229.8z"/>
				<path class="st4" d="M211.3,437L59.2,348.9c-5.5-3.2-7.8-7.6-7-12.1c0.3,3.7,2.6,7.1,7.2,9.7l152.1,88.1
					c10.7,6.2,29.4,5.4,41.7-1.7l311.2-179.1c6-3.4,9.4-7.7,10.1-12c0.4,4.9-3.1,10.2-10.2,14.3L253.1,435.3
					C240.7,442.4,222,443.2,211.3,437z"/>
				<path class="st2" d="M555.7,233.2l-146.2-84.6c-7.9-4.6-21.8-4-31,1.2L71.7,326.4c-9.2,5.3-10.2,13.3-2.3,17.9l146.2,84.6
					c7.9,4.6,21.8,4,31-1.2l306.8-176.6C562.6,245.9,563.6,237.8,555.7,233.2z"/>
			</g>
			<g>
				<polygon class="st1" points="252.5,385 149.3,325.4 155.9,321.6 259.1,381.2 				"/>
				<polygon class="st1" points="180.7,367.6 128.5,337.5 135.1,333.7 187.3,363.8 				"/>
				<polygon class="st5" points="206,382.2 189.1,372.5 195.7,368.7 212.6,378.4 				"/>
				<polygon class="st4" points="231.6,397 214.7,387.2 221.3,383.4 238.2,393.2 				"/>
				<polygon class="st4" points="181.3,355.9 138.9,331.4 145.5,327.6 187.9,352.1 				"/>
				<polygon class="st1" points="233,385.8 190.6,361.3 197.2,357.5 239.6,382 				"/>
				<g>
					<path class="st5" d="M201.6,333.5c-2.1,1.2-5.6,1.2-7.7,0s-2.1-3.2,0-4.4c2.1-1.2,5.6-1.2,7.7,0S203.8,332.2,201.6,333.5z"/>
					<path class="st4" d="M213.1,340.1c-2.1,1.2-5.6,1.2-7.7,0c-2.1-1.2-2.1-3.2,0-4.4c2.1-1.2,5.6-1.2,7.7,0
						C215.2,336.9,215.2,338.9,213.1,340.1z"/>
					<path class="st1" d="M224.6,346.7c-2.1,1.2-5.6,1.2-7.7,0c-2.1-1.2-2.1-3.2,0-4.4c2.1-1.2,5.6-1.2,7.7,0
						C226.7,343.5,226.7,345.5,224.6,346.7z"/>
					<path class="st5" d="M236.1,353.3c-2.1,1.2-5.6,1.2-7.7,0c-2.1-1.2-2.1-3.2,0-4.4c2.1-1.2,5.6-1.2,7.7,0
						C238.2,350.1,238.2,352.1,236.1,353.3z"/>
					<path class="st4" d="M247.6,360c-2.1,1.2-5.6,1.2-7.7,0c-2.1-1.2-2.1-3.2,0-4.4c2.1-1.2,5.6-1.2,7.7,0
						C249.7,356.8,249.7,358.7,247.6,360z"/>
				</g>
			</g>
			<g>
				<polygon class="st5" points="478.3,233.9 460.9,223.9 467.6,220 485,230 				"/>
				<polygon class="st4" points="502.4,247.9 485.1,237.8 491.8,233.9 509.2,244 				"/>
				<polygon class="st4" points="400.7,188.7 383.3,178.7 390.1,174.8 407.4,184.8 				"/>
				<polygon class="st4" points="474.4,244 450.2,230 456.9,226.1 481.1,240.1 				"/>
				<polygon class="st1" points="491.7,254 481.1,247.9 487.9,244 498.5,250.1 				"/>
			</g>
		</g>
		<g>
			<g>
				<polygon class="st6" points="340.5,231.3 327.7,224 331.7,221.7 344.5,229.1 				"/>
				<g>
					<polygon class="st6" points="381.9,247.3 334.6,220 338.6,217.7 385.8,245 					"/>
					<polygon class="st6" points="405.6,260.9 387.8,250.7 391.8,248.4 409.5,258.6 					"/>
					<polygon class="st6" points="371.1,249 345.5,234.2 349.4,231.9 375,246.7 					"/>
				</g>
				<path class="st4" d="M424.3,282.7l-17-9.8l17-9.8l17,9.8L424.3,282.7z M413.7,272.9l10.6,6.1l10.6-6.1l-10.6-6.1L413.7,272.9z"
					/>
				<polygon class="st6" points="317.9,244.4 305.1,237 309,234.8 321.8,242.2 				"/>
				<g>
					<polygon class="st6" points="332.7,243.9 312.9,232.5 316.9,230.2 336.6,241.6 					"/>
					<polygon class="st6" points="365.2,262.6 338.6,247.3 342.5,245 369.1,260.4 					"/>
					<polygon class="st6" points="366.1,272.3 322.8,247.3 326.7,245 370.1,270 					"/>
				</g>
				<path class="st4" d="M401.6,295.7l-17-9.8l17-9.8l17,9.8L401.6,295.7z M391,285.9l10.6,6.1l10.6-6.1l-10.6-6.1L391,285.9z"/>
				<polygon class="st6" points="313.9,267.2 283.4,249.5 287.3,247.3 317.9,264.9 				"/>
				<g>
					<polygon class="st6" points="305.1,254.1 290.3,245.6 294.2,243.3 309,251.8 					"/>
					<polygon class="st6" points="334.6,271.2 311,257.5 314.9,255.2 338.6,268.9 					"/>
					<polygon class="st6" points="355.3,283.1 339.5,274 343.5,271.7 359.3,280.8 					"/>
					<polygon class="st6" points="344.5,284.8 318.9,270 322.8,267.7 348.4,282.5 					"/>
				</g>
				<path class="st4" d="M379,308.8l-17-9.8l17-9.8l17,9.8L379,308.8z M368.3,299l10.6,6.1l10.6-6.1l-10.6-6.1L368.3,299z"/>
				<polygon class="st6" points="273.5,270 260.7,262.6 264.7,260.4 277.5,267.7 				"/>
				<g>
					<polygon class="st6" points="302.1,278.6 267.6,258.6 271.6,256.4 306.1,276.3 					"/>
					<polygon class="st6" points="328.7,293.9 307,281.4 311,279.1 332.7,291.6 					"/>
				</g>
				<path class="st4" d="M356.3,321.9l-17-9.8l17-9.8l17,9.8L356.3,321.9z M345.7,312.1l10.6,6.1l10.6-6.1l-10.6-6.1L345.7,312.1z"
					/>
				<polygon class="st6" points="250.9,283.1 238.1,275.7 242,273.4 254.8,280.8 				"/>
				<g>
					<polygon class="st6" points="273.5,288.2 245,271.7 248.9,269.5 277.5,285.9 					"/>
					<polygon class="st6" points="303.1,305.3 280.4,292.2 284.4,289.9 307,303 					"/>
					<polygon class="st6" points="266.6,292.2 254.8,285.4 258.8,283.1 270.6,289.9 					"/>
				</g>
				<path class="st4" d="M333.6,335l-17-9.8l17-9.8l17,9.8L333.6,335z M323,325.2l10.6,6.1l10.6-6.1l-10.6-6.1L323,325.2z"/>
				<polygon class="st6" points="228.2,296.2 215.4,288.8 219.4,286.5 232.2,293.9 				"/>
				<g>
					<polygon class="st6" points="252.9,302.4 222.3,284.8 226.3,282.5 256.8,300.2 					"/>
					<polygon class="st6" points="267.6,311 258.8,305.9 262.7,303.6 271.6,308.7 					"/>
					<polygon class="st6" points="281.4,318.9 272.6,313.8 276.5,311.5 285.4,316.7 					"/>
					<polygon class="st6" points="244,305.3 233.2,299 237.1,296.8 247.9,303 					"/>
				</g>
				<path class="st4" d="M312,347.5l-17-9.8l17-9.8l17,9.8L312,347.5z M301.4,337.7l10.6,6.1l10.6-6.1l-10.6-6.1L301.4,337.7z"/>
			</g>
			<path class="st5" d="M315.5,339.5l12,0c1.7,0,3.1-0.8,3.1-1.8c0-1-1.4-1.8-3.1-1.8h-12l0-6.9c0-1-1.4-1.8-3.1-1.8
				c-1.7,0-3.1,0.8-3.1,1.8l0,6.9l-12,0c-1.7,0-3.1,0.8-3.1,1.8c0,1,1.4,1.8,3.1,1.8h12l0,6.9c0,1,1.4,1.8,3.1,1.8
				c1.7,0,3.1-0.8,3.1-1.8L315.5,339.5z"/>
			<path class="st5" d="M361,313.4h12c1.7,0,3.1-0.8,3.1-1.8c0-1-1.4-1.8-3.1-1.8l-12,0l0-6.9c0-1-1.4-1.8-3.1-1.8
				c-1.7,0-3.1,0.8-3.1,1.8v6.9l-12,0c-1.7,0-3.1,0.8-3.1,1.8c0,1,1.4,1.8,3.1,1.8l12,0l0,6.9c0,1,1.4,1.8,3.1,1.8
				c1.7,0,3.1-0.8,3.1-1.8L361,313.4z"/>
			<path class="st5" d="M383.9,300l12,0c1.7,0,3.1-0.8,3.1-1.8c0-1-1.4-1.8-3.1-1.8l-12,0l0-6.9c0-1-1.4-1.8-3.1-1.8
				c-1.7,0-3.1,0.8-3.1,1.8l0,6.9l-12,0c-1.7,0-3.1,0.8-3.1,1.8c0,1,1.4,1.8,3.1,1.8l12,0l0,6.9c0,1,1.4,1.8,3.1,1.8
				c1.7,0,3.1-0.8,3.1-1.8L383.9,300z"/>
		</g>
	</g>
	<g>
		<g>
			<path class="st7" d="M448.8,148.2l-23.4,0.4c-1.7-2.3-4.2-4.4-7.4-6.2c-12.9-7.4-33.1-8-47.1-1.7L357,127.6l-21.4,0.3
				c1.1-0.7,2.1-1.4,3.3-2c29.8-17.2,78-17.2,107.7,0c5.5,3.2,9.9,6.7,13.4,10.4L448.8,148.2z"/>
			<polygon class="st8" points="335.6,93.9 335.6,127.9 357,127.6 357,93.6 			"/>
			<polygon class="st7" points="370.9,106.7 370.9,140.6 357,127.6 357,93.6 			"/>
			<path class="st7" d="M425.4,114.6v34l-30.8-25.1l-23.7,17.1v-34l21.8-10.6c0,0,30.1,9.2,31.6,9.6
				C425.9,106.1,425.4,114.6,425.4,114.6z"/>
			<polygon class="st7" points="448.8,114.2 448.8,148.2 425.4,148.6 425.4,114.6 			"/>
			<polygon class="st8" points="460,102.3 460,136.3 448.8,148.2 448.8,114.2 			"/>
			<path class="st5" d="M448.8,114.2l-23.4,0.4c-1.7-2.3-4.2-4.4-7.4-6.2c-12.9-7.4-33.1-8-47.1-1.7L357,93.6l-21.4,0.3
				c1.1-0.7,2.1-1.4,3.3-2c29.8-17.2,78-17.2,107.7,0c5.5,3.2,9.9,6.7,13.4,10.4L448.8,114.2z"/>
		</g>
		<g>
			<path class="st6" d="M363.9,110.8v31.2l-20.3-4.9c0,0,1.2-18.3,1.6-18.8C345.7,118,363.9,110.8,363.9,110.8z"/>
			<g>
				<path class="st2" d="M379.2,142.1v34l-2.2,2.3l-14.3-8.2c0,0,2.2-25.9,2.5-26.5C365.4,143.2,379.2,142.1,379.2,142.1z"/>
				<path class="st3" d="M351.6,133.3l12.2,11.5c-10.2,8.1-9,19.4,3.6,26.7c3.5,2,7.4,3.5,11.7,4.5l-12.7,13.5l11.2,10.5
					c-14.2-1.6-27.8-5.6-38.9-12c-25.6-14.8-29.1-37.4-10.7-54.4L351.6,133.3z"/>
				<polygon class="st3" points="377.7,166.1 377.7,200.1 350,189.4 316.6,157.5 316.7,121.4 352,149.4 				"/>
				<path class="st1" d="M351.6,99.3l12.2,11.5c-10.2,8.1-9,19.4,3.6,26.7c3.5,2,7.4,3.5,11.7,4.5l-12.7,13.5l11.2,10.5
					c-14.2-1.6-27.8-5.6-38.9-12c-25.6-14.8-29.1-37.4-10.7-54.4L351.6,99.3z"/>
			</g>
		</g>
		<g>
			<path class="st3" d="M377.8,189.4l11.2-11.9c10.4,0.6,21.1-1.3,29-5.9c8.2-4.7,11.6-11.2,10.1-17.4l26.6-0.4l10.2-10.9
				c8.9,15.3,2.8,32.9-18.3,45.2c-15.5,9-36.1,13.3-56.5,12.8L377.8,189.4z"/>
			<polygon class="st3" points="390.1,166.9 390.1,200.9 468.9,157.2 468.9,123.2 457.4,127.9 			"/>
			<polygon class="st2" points="377.8,155.4 377.8,189.4 390.1,200.9 390.1,166.9 			"/>
			<path class="st6" d="M377.8,155.4l11.2-11.9c10.4,0.6,21.1-1.3,29-5.9c8.2-4.7,11.6-11.2,10.1-17.4l26.6-0.4l10.2-10.9
				c8.9,15.3,2.8,32.9-18.3,45.2c-15.5,9-36.1,13.3-56.5,12.8L377.8,155.4z"/>
		</g>
	</g>
	<g>
		<g>
			<polygon class="st0" points="529.5,187.8 505.3,173.8 529.5,159.9 553.6,173.8 			"/>
			<polygon class="st8" points="553.6,156.1 529.5,170 529.5,142.1 553.6,128.2 			"/>
			<polygon class="st5" points="529.5,142.1 505.3,128.2 529.5,114.2 553.6,128.2 			"/>
			<polygon class="st5" points="529.5,170 505.3,156.1 505.3,128.2 529.5,142.1 			"/>
		</g>
		<polygon class="st4" points="520.8,155 514,151.1 514,143.3 520.8,147.2 		"/>
	</g>
	<g>
		<g>
			<polygon class="st0" points="509.2,521 484,506.5 509.2,492 534.3,506.5 			"/>
			<polygon class="st2" points="534.3,488 509.2,502.6 509.2,473.5 534.3,459 			"/>
			<polygon class="st1" points="509.2,473.5 484,459 509.2,444.5 534.3,459 			"/>
			<polygon class="st6" points="509.2,502.6 484,488 484,459 509.2,473.5 			"/>
		</g>
		<polygon class="st4" points="500.1,486.9 493.1,482.8 493.1,474.7 500.1,478.7 		"/>
	</g>
	<g>
		<g>
			<path class="st0" d="M86.9,495.6c-16,9.2-42,9.2-58,0c-16-9.2-16-24.2,0-33.5c16-9.2,42-9.2,58,0
				C102.9,471.3,102.9,486.3,86.9,495.6z"/>
			<path class="st5" d="M108.9,446.7v-14.3h-2.7c-2.4-4.2-6.5-8.1-12.2-11.4c-19.9-11.5-52.2-11.5-72.1,0
				c-5.8,3.3-9.8,7.3-12.2,11.4H6.9v14.2h0c0,7.6,4.9,15.1,14.9,20.9c19.9,11.5,52.2,11.5,72.1,0
				C103.9,461.8,108.9,454.3,108.9,446.7z"/>
			<path class="st7" d="M93.9,421c-10-5.7-23-8.6-36-8.6v63.8c13,0,26.1-2.9,36-8.6c10-5.7,14.9-13.3,14.9-20.8v-14.3h-2.7
				C103.7,428.2,99.7,424.3,93.9,421z"/>
			<path class="st5" d="M93.9,453.2c-19.9,11.5-52.2,11.5-72.1,0c-19.9-11.5-19.9-30.1,0-41.6c19.9-11.5,52.2-11.5,72.1,0
				C113.8,423.1,113.8,441.7,93.9,453.2z"/>
			<path class="st4" d="M93.9,453.2c-19.9,11.5-52.2,11.5-72.1,0c-9.5-5.5-14.5-12.7-14.9-19.9c-0.4,7.8,4.5,15.8,14.9,21.7
				c19.9,11.5,52.2,11.5,72.1,0c10.4-6,15.3-13.9,14.9-21.7C108.4,440.6,103.5,447.7,93.9,453.2z"/>
		</g>
		<g>
			<path class="st4" d="M33.3,442.1c-0.9-0.5-1.3-1.2-1.3-1.9l0.1-19.2c0-1.5,2.1-2.6,4.6-2.6c2.5,0,4.6,1.2,4.6,2.7l0,15.9
				l46.1-5.7c2.5-0.3,4.9,0.6,5.4,2c0.5,1.4-1.1,2.8-3.5,3.1l-51.7,6.3c-1.4,0.2-2.8,0-3.8-0.5C33.5,442.3,33.4,442.2,33.3,442.1z"
				/>
		</g>
	</g>
</g>
</svg>
