<?xml version="1.0" encoding="utf-8"?>
<!-- Generator: Adobe Illustrator 19.0.0, SVG Export Plug-In . SVG Version: 6.00 Build 0)  -->
<svg version="1.1" id="Ñëîé_1" xmlns="http://www.w3.org/2000/svg" xmlns:xlink="http://www.w3.org/1999/xlink" x="0px" y="0px"
	 viewBox="0 0 600 600" style="enable-background:new 0 0 600 600;" xml:space="preserve">
<style type="text/css">
	.st0{opacity:0.15;fill:#173D7A;}
	.st1{fill:#396CAA;}
	.st2{fill:#173D7A;}
	.st3{fill:#FFFFFF;}
	.st4{fill:#D4ECFF;}
	.st5{fill:#5793CE;}
	.st6{fill:#6EBDFF;}
</style>
<g>
	<path class="st0" d="M527.1,350.4l-83-47.9l-39,22.5c-0.6-1.4-1.9-2.7-3.7-3.8c-5.6-3.3-14.8-3.3-20.4,0s-5.6,8.5,0,11.8
		c1.9,1.1,4.2,1.8,6.6,2.2l-39,22.5l40.2,23.2c0.2-2,1.6-3.9,4.2-5.4c5.6-3.3,8.4-3.9,14-0.6c5.6,3.3,6.9,6.7,1.3,9.9
		c-2.6,1.5-0.8,4.8-4.2,4.9l40.2,23.2l83-47.9C534.1,361,534.1,354.5,527.1,350.4z"/>
	<path class="st0" d="M218.6,381.3c-1.8-1.1-4.1-1.8-6.4-2.1l39-22.5l-38.2-22.1c-0.7,0.9-1.6,1.7-2.9,2.4c-5.6,3.3-14.8,3.3-20.4,0
		c-5.6-3.3-5.6-8.5,0-11.8c1.2-0.7,2.6-1.2,4.1-1.6l-38.2-22.1l-83,47.9c-7,4-7,10.6,0,14.6l83,47.9l39-22.5
		c0.6,1.4,1.9,2.6,3.7,3.7c5.6,3.3,14.8,3.3,20.4,0C224.2,389.9,224.2,384.6,218.6,381.3z"/>
	<path class="st0" d="M355.7,420.3c3.4-0.1,6.7-0.9,9.3-2.4c5.6-3.3,5.6-8.5,0-11.8c-5.6-3.3-14.8-3.3-20.4,0
		c-2.6,1.5-4,3.4-4.2,5.4l-40.2-23.2l-39,22.5c2.3,0.4,4.6,1.1,6.4,2.1c5.6,3.3,5.6,8.5,0,11.8c-5.6,3.3-14.8,3.3-20.4,0
		c-1.8-1.1-3.1-2.3-3.7-3.7l-39,22.5l83,47.9c7,4,18.3,4,25.3,0l83-47.9L355.7,420.3z"/>
	<g>
		<g>
			<g>
				<path class="st1" d="M534.9,179.5l-90-52l-47.3,27.3c-0.8-1.7-2.3-3.3-4.5-4.6c-2.4-1.4-5.3-2.3-8.4-2.7c-1.5-2-6.6-8.1-7.1-8.2
					c-0.6-0.2-14.4-4.2-14.4-4.2v22.1c-0.1,2.6,1.6,5.3,5.1,7.3c2.3,1.3,5,2.2,7.9,2.6l-23.8,13.7l-23.5-8.4v140.6l48.7,28.1
					c0.3-2.4,1.9-4.7,5.1-6.5c3.7-2.1,8.6-3.1,13.5-2.9l0,20.1l48.7,28.1l100.6-58.1c4.3-2.5,6.4-5.8,6.3-9l0,0V172.7L534.9,179.5z"
					/>
				<path class="st2" d="M444.9,127.5l-0.3,0.2v252l0.4,0.2l100.6-58.1c4.3-2.5,6.4-5.8,6.3-9l0,0V172.7l-16.9,6.8L444.9,127.5z"/>
			</g>
			<polygon class="st1" points="396.2,217.6 396.2,211.3 401.7,214.5 			"/>
			<path class="st2" d="M377.7,183.5v157.7c0.3-2.4,1.9-4.7,5.1-6.5c6.8-3.9,17.9-3.9,24.7,0c1.5,0.8,2.6,1.8,3.4,2.8
				c3.6-1.1,7.5-1.8,11.4-2v-152H377.7z"/>
			<polygon class="st1" points="423.5,367.7 423.6,230 396.2,214.2 396.2,252.8 396.2,351.9 			"/>
			<path class="st3" d="M551.6,173.9c-0.6,2.7-2.6,5.3-6.2,7.4l-100.6,58.1l-42.4-24.5c0-0.7-0.2-2-0.2-2l-6-1.6v2.9l48.7,28.1
				l100.6-58.1C550.3,181.4,552.3,177.6,551.6,173.9z"/>
			<polygon class="st3" points="363.2,138.5 363.2,135.5 365.6,136.2 			"/>
			<path class="st4" d="M545.4,163.6l-100.6-58.1l-47.3,27.3c-0.8-1.7-2.3-3.3-4.5-4.6c-6.8-3.9-17.9-3.9-24.7,0
				c-6.8,3.9-6.8,10.3,0,14.3c2.3,1.3,5,2.2,7.9,2.6L329,172.5l48.7,28.1c0.3-2.4,1.9-4.7,5.1-6.5c6.8-3.9,17.9-3.9,24.7,0
				c6.8,3.9,6.8,10.3,0,14.3c-3.1,1.8-7.2,2.8-11.3,2.9l48.7,28.1l100.6-58.1C553.9,176.4,553.9,168.5,545.4,163.6z"/>
			<g>
				<path class="st3" d="M368.3,145.5c1.3,0.7,2.7,1.3,4.3,1.8l3.7-2.1c-2.9-0.4-5.7-1.3-7.9-2.6c-2.8-1.6-4.4-3.6-4.9-5.7
					C362.6,139.9,364.3,143.2,368.3,145.5z"/>
				<path class="st3" d="M412.4,202.7c0.8-3.1-0.9-6.3-4.9-8.6c-6.8-3.9-17.9-3.9-24.7,0c-3.1,1.8-4.8,4.1-5.1,6.5L329,172.5v2.9
					l48.7,28.1c0.3-2.4,1.9-4.7,5.1-6.5c6.8-3.9,17.9-3.9,24.7,0C410.2,198.6,411.9,200.6,412.4,202.7z"/>
			</g>
		</g>
		<g>
			<g>
				<path class="st2" d="M271,309.9v-137l-23.1,8.6l-23.2-13.4c-0.8,1-2,2-3.5,2.9c-6.8,3.9-17.9,3.9-24.7,0c-6.7-3.9-6.8-10-0.4-14
					l5.4,3v-27.3h-16.7l-1.7,11.4L155.1,128l-89,51.4l-17.9-6.4v137h0c0,3.2,2.1,6.4,6.3,8.8l100.6,58.1l47.2-27.2
					c0.8,1.6,2.3,3.2,4.5,4.5c6.8,3.9,17.9,3.9,24.7,0c3.5-2,5.2-4.8,5.1-7.4v-16.9L271,309.9z"/>
				<path class="st1" d="M155.1,128l-89,51.4l-17.9-6.4v137h0c0,3.2,2.1,6.4,6.3,8.8l100.6,58.1L155.1,128L155.1,128z"/>
			</g>
			<path class="st3" d="M197.5,132.9l-0.6,1.5l0.1,0.1c-0.2,0.1-0.4,0.2-0.5,0.3c-4.1,2.3-5.7,5.6-4.9,8.6c0.5-2.1,2.2-4.1,4.9-5.7
				c1.5-0.9,3.2-1.5,5-2v-2.9L197.5,132.9z"/>
			<path class="st5" d="M231.6,202.8c-2.2-1.3-4.9-2.1-7.8-2.6l47.2-27.2l-46.3-26.7c-0.8,1-2,2-3.5,2.9c-6.8,3.9-17.9,3.9-24.7,0
				c-6.8-3.9-6.8-10.3,0-14.3c1.5-0.9,3.2-1.5,5-2L155.1,106L54.6,164.1c-8.4,4.9-8.4,12.8,0,17.7l100.6,58.1l47.2-27.2
				c0.8,1.6,2.3,3.2,4.5,4.5c6.8,3.9,17.9,3.9,24.7,0C238.4,213.1,238.4,206.7,231.6,202.8z"/>
			<g>
				<path class="st3" d="M231.6,217c-6.8,3.9-17.9,3.9-24.7,0c-2.2-1.3-3.7-2.8-4.5-4.5l-47.2,27.2L54.6,181.8
					c-3.6-2.1-5.6-4.7-6.2-7.4c-0.8,3.7,1.3,7.5,6.2,10.3l100.6,58.1l47.2-27.2c0.8,1.6,2.3,3.2,4.5,4.5c6.8,3.9,17.9,3.9,24.7,0
					c4.1-2.3,5.7-5.6,4.9-8.6C236,213.5,234.3,215.5,231.6,217z"/>
				<path class="st3" d="M223.8,200.2c1.3,0.2,2.5,0.5,3.6,0.8l43.6-25.2v-2.9L223.8,200.2z"/>
			</g>
		</g>
		<g>
			<path class="st6" d="M391.5,265.2l-26.1-15c4.1-0.1,8.1-1.1,11.3-2.9c2.9-1.7,4.5-3.7,5-5.9l0.1,0.1v-1.3c0,0,0-0.1,0-0.1v-22
				l-22,8.6l5.1,3.4c-4.6-0.1-9.3,0.9-12.9,2.9c-3.1,1.8-4.8,4.1-5.1,6.5l-48.7-28.1l-28.6,16.5l-3-9.9l-15.6-1.3v24.4l4.8-1.2
				c1.1,0.4,2.1,0.8,3,1.4c6.8,3.9,6.8,10.3,0,14.3c-6.8,3.9-17.9,3.9-24.7,0c-2.2-1.3-3.7-2.8-4.5-4.5l-26.1,15.1l-21.1-9.8v135.5
				l100.6,58.1c8.4,4.9,22.1,4.9,30.6,0l100.6-58.1V256.3L391.5,265.2z"/>
			<path class="st3" d="M258.8,219.3c-1.1-0.6-2.3-1.1-3.5-1.5l-0.4-0.8l-3.8-0.2v2.9c2.8,0.4,5.5,1.3,7.8,2.6
				c2.8,1.6,4.4,3.6,4.9,5.7C264.4,224.8,262.8,221.6,258.8,219.3z"/>
			<path class="st6" d="M298.2,242.8h-37.3c4.6,3.9,3.8,9.3-2.2,12.8c-6.8,3.9-17.9,3.9-24.7,0c-2.2-1.3-3.7-2.8-4.5-4.5l-26.1,15.1
				l-21.1-9.8v135.5l100.6,58.1c4.2,2.4,9.8,3.7,15.3,3.7V242.8z"/>
			<path class="st6" d="M365.4,228.2c4.1-0.1,8.1-1.1,11.3-2.9c6.8-3.9,6.8-10.3,0-14.3s-17.9-3.9-24.7,0c-3.1,1.8-4.8,4.1-5.1,6.5
				l-48.7-28.1L251,216.7c2.8,0.4,5.5,1.3,7.8,2.6c6.8,3.9,6.8,10.3,0,14.3c-6.8,3.9-17.9,3.9-24.7,0c-2.2-1.3-3.7-2.8-4.5-4.5
				l-47.2,27.2l100.6,58.1c8.4,4.9,22.1,4.9,30.6,0l100.6-58.1L365.4,228.2z"/>
			<g>
				<path class="st3" d="M381.6,219.6c-0.5,2.1-2.2,4.1-4.9,5.7c-3.1,1.8-7.2,2.8-11.3,2.9l4.3,2.5c2.5-0.5,4.9-1.3,7-2.5
					C380.7,225.9,382.3,222.7,381.6,219.6z"/>
				<path class="st3" d="M313.5,314.4c-8.4,4.9-22.1,4.9-30.6,0l-100.6-58.1v2.9l100.6,58.1c8.4,4.9,22.1,4.9,30.6,0l100.6-58.1
					v-2.9L313.5,314.4z"/>
			</g>
		</g>
	</g>
	<polygon class="st3" points="446.4,241.4 446.4,379.1 444.9,380 443.2,379 443.2,240.7 	"/>
	<path class="st3" d="M296.6,453.5c1.1,0,2.1,0,3.2,0V319.8h-3.2V453.5z"/>
	<polygon class="st3" points="153.5,375.9 155.1,376.8 156.8,375.9 156.8,241.4 153.5,241.4 	"/>
</g>
</svg>
