<?xml version="1.0" encoding="utf-8"?>
<!-- Generator: Adobe Illustrator 19.0.0, SVG Export Plug-In . SVG Version: 6.00 Build 0)  -->
<svg version="1.1" id="Ñëîé_1" xmlns="http://www.w3.org/2000/svg" xmlns:xlink="http://www.w3.org/1999/xlink" x="0px" y="0px"
	 viewBox="0 0 600 600" style="enable-background:new 0 0 600 600;" xml:space="preserve">
<style type="text/css">
	.st0{opacity:0.15;fill:#173D7A;}
	.st1{fill:#29A7FC;}
	.st2{fill:#6EBDFF;}
	.st3{fill:#ABDDFF;}
	.st4{fill:#FFFFFF;}
	.st5{fill:#173D7A;}
	.st6{fill:#396CAA;}
	.st7{fill:#274F89;}
	.st8{fill:#D4ECFF;}
	.st9{fill:#5793CE;}
</style>
<g>
	<path class="st0" d="M293.5,547.8L90,430.4c-4.6-2.6-4.6-9.2,0-11.9l193.5-111.7l216.5,125c4.6,2.6,4.6,9.2,0,11.9L319.4,547.8
		C311.4,552.5,301.5,552.5,293.5,547.8z"/>
	<g>
		<g>
			<path class="st1" d="M287.6,244.3c0-12.9-9.1-18.2-20.3-11.7L77,342.2c-3.1,1.8-5.6,6.1-5.6,9.6c0,3.6,2.5,5,5.6,3.2l190.3-109.7
				c5.1-2.9,9.2-0.5,9.1,5.3l0,21.3c3.7-0.2,7.4-0.2,11.1-0.2L287.6,244.3z"/>
			<path class="st1" d="M76.9,393.3L267.2,324c11.2-6.5,20.3-22.2,20.3-35.1l0-17c-3.7-0.1-7.4-0.1-11.1,0.2l0,23.3
				c0,5.8-4.1,12.9-9.2,15.8L76.9,380.5c-3.1,1.8-5.6,6.1-5.6,9.6C71.3,393.6,73.8,395.1,76.9,393.3z"/>
		</g>
		<polygon class="st2" points="72.8,393.6 304.3,527.5 500.3,410.6 515.9,387.4 514.2,395.7 510.1,374.1 146.2,388 82.1,383.9 		"/>
		<polygon class="st3" points="80.5,353.1 80.4,381.6 304.2,511.1 310.2,483.9 		"/>
		<polygon class="st2" points="513,365 281.8,231.2 73.4,352.4 73,355.4 304.5,489.3 		"/>
		<g>
			<path class="st4" d="M439.3,433.6l54.3-32.2c4.6-3.2,8.2-9.7,8.2-15.2l0-4.3c0-3.5-1.4-5.7-3.7-6.3l-107,59.5l-87.1,47.1
				l0.1,28.8L439.3,433.6z"/>
		</g>
		<path class="st1" d="M311.9,484.9L82.2,352l-4.9-2.8l-4.4-2.6c-0.9,1.7-1.5,3.5-1.5,5.2c0,1.7,0.6,3,1.6,3.6l0,0l0,0l0,0
			l231.4,133.9L311.9,484.9z"/>
		<polygon class="st4" points="301.4,525.9 304.3,527.5 304.8,526.6 303,525.2 		"/>
		<polygon class="st4" points="301.5,487.6 304.4,489.3 303.7,487.7 		"/>
		<g>
			<path class="st2" d="M308.5,476.1l190.3-109.7c11.2-6.5,20.3-1.2,20.3,11.7l0,4.3c0,12.9-9.1,28.7-20.3,35.1L308.4,527.2
				c-3.1,1.8-5.6,0.3-5.6-3.2c0-3.6,2.5-7.9,5.6-9.6l190.3-109.7c5.1-2.9,9.2-10,9.2-15.8l0-4.3c0-5.8-4.1-8.2-9.1-5.3L308.5,489
				c-3.1,1.8-5.6,0.3-5.6-3.2C302.9,482.2,305.4,477.9,308.5,476.1z"/>
		</g>
		<g>
			<path class="st4" d="M302.8,524c0-3.6,2.5-7.9,5.6-9.6l190.3-109.7c5.1-2.9,9.2-10,9.2-15.8l0-4.3c0-3.8-1.8-6.1-4.4-6.5
				c0.8,1.1,1.3,2.7,1.3,4.7l0,4.3c0,5.8-4.1,12.9-9.2,15.8L305.4,512.6c-3.1,1.8-5.6,6.1-5.6,9.6c0,2.7,1.4,4.2,3.5,4
				C303,525.6,302.8,524.9,302.8,524z"/>
			<path class="st4" d="M302.9,485.8c0-3.6,2.5-7.9,5.6-9.6l190.3-109.7c4.8-2.8,9.2-3.4,12.7-2.1c-3.7-3.2-9.4-3.3-15.8,0.4
				L305.4,474.3c-3.1,1.8-5.6,6.1-5.6,9.6c0,2.7,1.4,4.2,3.5,4C303,487.3,302.9,486.6,302.9,485.8z"/>
		</g>
	</g>
	<g>
		<path class="st5" d="M520.7,168.5L315.4,49.9c-2.4-1.4-4.8-1.6-7-0.9l0,0l-0.4,0.1c0,0-0.1,0-0.1,0l-7.4,2.8l6.7,3.3
			c0,0.1-0.1,0.2-0.1,0.4L273.7,208c-1.7,7.6,1.7,16.5,7.5,19.9l200.4,115.7l-0.7,8.5l8.1-3.1c2.7-1.3,4.9-4.2,5.8-8.3l33.4-152.2
			C529.9,180.7,526.6,171.9,520.7,168.5z"/>
		<path class="st6" d="M520.7,168.5L315.4,49.9c-2.4-1.4-4.8-1.6-7-0.9l0,0l-0.4,0.1c0,0-0.1,0-0.1,0l-7.4,2.8l6.7,3.3
			c0,0.1-0.1,0.2-0.1,0.4l-22,100.3l100.5,78.3l141.7-57.6C525.9,173.2,523.6,170.2,520.7,168.5z"/>
		<path class="st7" d="M513,191.9l15.6-6.7c0.3-6.1-2.2-12.3-6.3-15.7L497.6,180L513,191.9z"/>
		<path class="st8" d="M473.7,351.2L268.4,232.7c-5.8-3.4-9.2-12.2-7.5-19.9l33.4-152.2c1.7-7.6,7.7-11.1,13.5-7.7l205.3,118.6
			c5.8,3.4,9.2,12.2,7.5,19.9l-33.4,152.3C485.6,351.1,479.5,354.6,473.7,351.2z"/>
		<path class="st4" d="M515.2,170.7L309.9,52.1c-2.8-1.6-5.7-1.6-8.1-0.4c1.9-0.4,4-0.1,6.1,1.1l205.3,118.6
			c5.8,3.4,9.2,12.3,7.5,19.9l-33.4,152.2c-0.9,3.9-2.9,6.7-5.5,8.1c3.5-0.8,6.4-3.9,7.4-8.8l33.4-152.2
			C524.4,182.9,521,174,515.2,170.7z"/>
		<path class="st4" d="M469.3,339.9L276.2,228.4c-5.3-3.1-8.4-11.2-6.9-18.2l30.6-139.3c1.5-7,7.1-10.1,12.4-7.1l193.1,111.4
			c5.3,3.1,8.4,11.2,6.9,18.2l-30.6,139.3C480.1,339.8,474.6,343,469.3,339.9z"/>
		<path class="st5" d="M469.3,339.9L276.2,228.4c-5.3-3.1-8.4-11.2-6.9-18.2l30.6-139.3c1.5-7,7.1-10.1,12.4-7.1l193.1,111.4
			c5.3,3.1,8.4,11.2,6.9,18.2l-30.6,139.3C480.1,339.8,474.6,343,469.3,339.9z"/>
		<path class="st9" d="M471,339.2L277.8,227.8c-5.3-3.1-8.4-11.2-6.9-18.2l30.6-139.3c0.8-3.5,2.6-6.1,4.9-7.3
			c-3.1,0.8-5.6,3.7-6.5,8l-30.6,139.3c-1.5,7,1.5,15.1,6.9,18.2l193.1,111.4c2.6,1.5,5.3,1.5,7.5,0.3
			C475,340.6,473,340.4,471,339.2z"/>
		<path class="st5" d="M476.6,356.4l-28.1-3.7L267.3,248.1c-5.8-3.4-16-2.9-22.7,0.9l-128.4,74.1l-17-2.2v9.6l0,0
			c-0.1,2.2,1.2,4.4,3.9,5.9L308.5,455c5.8,3.4,16,2.9,22.7-0.9L471,373.4c3.8-2.2,5.7-5,5.5-7.6l0,0V356.4z"/>
		<path class="st6" d="M340.4,290.3l-12.9-7.4H186l-69.8,40.3l-17-2.2v9.6l0,0c-0.1,2.2,1.2,4.4,3.9,5.9L308.5,455
			c3.1,1.8,7.4,2.5,11.7,2.2L340.4,290.3z"/>
		<path class="st9" d="M106.8,321.9l-7.5-1v9.6l0,0c-0.1,2.2,1.2,4.4,3.9,5.9l3.6,2.1V321.9z"/>
		<path class="st7" d="M310.6,456c5.5,2.1,13.4,1.6,19.3-1.2v-21.5h-19.3V456z"/>
		<path class="st8" d="M308.5,445.4L103.2,326.8c-5.8-3.4-5.1-9.2,1.6-13.1L244.6,233c6.7-3.9,16.9-4.3,22.7-0.9l205.3,118.6
			c5.8,3.4,5.1,9.2-1.6,13.1l-139.8,80.7C324.5,448.3,314.3,448.7,308.5,445.4z"/>
		<path class="st4" d="M471,360.2l-139.8,80.7c-6.7,3.9-16.9,4.3-22.7,0.9L103.2,323.3c-1.9-1.1-3.1-2.5-3.6-4
			c-0.9,2.7,0.2,5.5,3.6,7.5l205.3,118.6c5.8,3.4,16,2.9,22.7-0.9L471,363.7c4.5-2.6,6.3-6.1,5.2-9.1
			C475.6,356.6,473.8,358.6,471,360.2z"/>
		<g>
			<path class="st9" d="M190.5,287.6l-9.3-5.4c-0.7-0.4-0.7-1.2,0.2-1.7l11-6.3c0.9-0.5,2.2-0.6,2.9-0.1l9.3,5.4
				c0.7,0.4,0.7,1.2-0.2,1.7l-11,6.3C192.6,287.9,191.3,288,190.5,287.6z"/>
			<path class="st9" d="M204.9,295.9l-9.3-5.4c-0.7-0.4-0.7-1.2,0.2-1.7l11-6.3c0.9-0.5,2.2-0.6,2.9-0.1l9.3,5.4
				c0.7,0.4,0.7,1.2-0.2,1.7l-11,6.3C206.9,296.2,205.6,296.3,204.9,295.9z"/>
			<path class="st9" d="M219.2,304.1l-9.3-5.4c-0.7-0.4-0.7-1.2,0.2-1.7l11-6.3c0.9-0.5,2.2-0.6,2.9-0.1l9.3,5.4
				c0.7,0.4,0.7,1.2-0.2,1.7l-11,6.3C221.3,304.5,220,304.6,219.2,304.1z"/>
			<path class="st9" d="M239.1,297.3l-9.3-5.4c-0.7-0.4-0.7-1.2,0.2-1.7l9.2-5.3c0.9-0.5,2.2-0.6,2.9-0.1l9.3,5.4
				c0.7,0.4,0.7,1.2-0.2,1.7l-9.2,5.3C241.1,297.7,239.8,297.7,239.1,297.3z"/>
			<path class="st9" d="M253.4,305.6l-9.3-5.4c-0.7-0.4-0.7-1.2,0.2-1.7l9.2-5.3c0.9-0.5,2.2-0.6,2.9-0.1l9.3,5.4
				c0.7,0.4,0.7,1.2-0.2,1.7l-9.2,5.3C255.5,306,254.2,306,253.4,305.6z"/>
			<path class="st9" d="M267.8,313.9l-9.3-5.4c-0.7-0.4-0.7-1.2,0.2-1.7l9.2-5.3c0.9-0.5,2.2-0.6,2.9-0.1l9.3,5.4
				c0.7,0.4,0.7,1.2-0.2,1.7l-9.2,5.3C269.8,314.2,268.5,314.3,267.8,313.9z"/>
			<path class="st9" d="M282.1,322.2l-9.3-5.4c-0.7-0.4-0.7-1.2,0.2-1.7l9.2-5.3c0.9-0.5,2.2-0.6,2.9-0.1l9.3,5.4
				c0.7,0.4,0.7,1.2-0.2,1.7L285,322C284.2,322.5,282.9,322.6,282.1,322.2z"/>
			<path class="st9" d="M296.5,330.4l-9.3-5.4c-0.7-0.4-0.7-1.2,0.2-1.7l9.2-5.3c0.9-0.5,2.2-0.6,2.9-0.1l9.3,5.4
				c0.7,0.4,0.7,1.2-0.2,1.7l-9.2,5.3C298.5,330.8,297.2,330.9,296.5,330.4z"/>
			<path class="st9" d="M310.8,338.7l-9.3-5.4c-0.7-0.4-0.7-1.2,0.2-1.7l9.2-5.3c0.9-0.5,2.2-0.6,2.9-0.1l9.3,5.4
				c0.7,0.4,0.7,1.2-0.2,1.7l-9.2,5.3C312.9,339.1,311.6,339.1,310.8,338.7z"/>
			<path class="st9" d="M325.2,347l-9.3-5.4c-0.7-0.4-0.7-1.2,0.2-1.7l9.2-5.3c0.9-0.5,2.2-0.6,2.9-0.1l9.3,5.4
				c0.7,0.4,0.7,1.2-0.2,1.7l-9.2,5.3C327.2,347.4,325.9,347.4,325.2,347z"/>
			<path class="st9" d="M339.5,355.3l-9.3-5.4c-0.7-0.4-0.7-1.2,0.2-1.7l9.2-5.3c0.9-0.5,2.2-0.6,2.9-0.1l9.3,5.4
				c0.7,0.4,0.7,1.2-0.2,1.7l-9.2,5.3C341.6,355.7,340.3,355.7,339.5,355.3z"/>
			<path class="st9" d="M353.9,363.6l-9.3-5.4c-0.7-0.4-0.7-1.2,0.2-1.7l9.2-5.3c0.9-0.5,2.2-0.6,2.9-0.1l9.3,5.4
				c0.7,0.4,0.7,1.2-0.2,1.7l-9.2,5.3C355.9,363.9,354.6,364,353.9,363.6z"/>
			<path class="st9" d="M368.2,371.9l-9.3-5.4c-0.7-0.4-0.7-1.2,0.2-1.7l9.2-5.3c0.9-0.5,2.2-0.6,2.9-0.1l9.3,5.4
				c0.7,0.4,0.7,1.2-0.2,1.7l-9.2,5.3C370.3,372.2,368.9,372.3,368.2,371.9z"/>
			<path class="st9" d="M260.2,293.4l-9.3-5.4c-0.7-0.4-0.7-1.2,0.2-1.7l9.2-5.3c0.9-0.5,2.2-0.6,2.9-0.1l9.3,5.4
				c0.7,0.4,0.7,1.2-0.2,1.7l-9.2,5.3C262.3,293.8,261,293.8,260.2,293.4z"/>
			<path class="st9" d="M245.6,285l-9.3-5.4c-0.7-0.4-0.7-1.2,0.2-1.7l9.2-5.3c0.9-0.5,2.2-0.6,2.9-0.1l9.3,5.4
				c0.7,0.4,0.7,1.2-0.2,1.7l-9.2,5.3C247.7,285.3,246.4,285.4,245.6,285z"/>
			<path class="st9" d="M231.1,276.5l-20-11.6c-0.7-0.4-0.7-1.2,0.2-1.7l9.2-5.3c0.9-0.5,2.2-0.6,2.9-0.1l20,11.6
				c0.7,0.4,0.7,1.2-0.2,1.7l-9.2,5.3C233.1,276.9,231.8,277,231.1,276.5z"/>
			<path class="st9" d="M241.3,266.3l-16.2-9.4c-0.7-0.4-0.7-1.2,0.2-1.7l9.2-5.3c0.9-0.5,2.2-0.6,2.9-0.1l16.2,9.4
				c0.7,0.4,0.7,1.2-0.2,1.7l-9.2,5.3C243.3,266.7,242,266.7,241.3,266.3z"/>
			<path class="st9" d="M274.6,301.7l-9.3-5.4c-0.7-0.4-0.7-1.2,0.2-1.7l9.2-5.3c0.9-0.5,2.2-0.6,2.9-0.1l9.3,5.4
				c0.7,0.4,0.7,1.2-0.2,1.7l-9.2,5.3C276.6,302,275.3,302.1,274.6,301.7z"/>
			<path class="st9" d="M288.9,309.9l-9.3-5.4c-0.7-0.4-0.7-1.2,0.2-1.7l9.2-5.3c0.9-0.5,2.2-0.6,2.9-0.1l9.3,5.4
				c0.7,0.4,0.7,1.2-0.2,1.7l-9.2,5.3C291,310.3,289.7,310.4,288.9,309.9z"/>
			<path class="st9" d="M303.3,318.2l-9.3-5.4c-0.7-0.4-0.7-1.2,0.2-1.7l9.2-5.3c0.9-0.5,2.2-0.6,2.9-0.1l9.3,5.4
				c0.7,0.4,0.7,1.2-0.2,1.7l-9.2,5.3C305.3,318.6,304,318.7,303.3,318.2z"/>
			<path class="st9" d="M317.6,326.5l-9.3-5.4c-0.7-0.4-0.7-1.2,0.2-1.7l9.2-5.3c0.9-0.5,2.2-0.6,2.9-0.1l9.3,5.4
				c0.7,0.4,0.7,1.2-0.2,1.7l-9.2,5.3C319.7,326.9,318.3,326.9,317.6,326.5z"/>
			<path class="st9" d="M331.9,334.8l-9.3-5.4c-0.7-0.4-0.7-1.2,0.2-1.7l9.2-5.3c0.9-0.5,2.2-0.6,2.9-0.1l9.3,5.4
				c0.7,0.4,0.7,1.2-0.2,1.7l-9.2,5.3C334,335.2,332.7,335.2,331.9,334.8z"/>
			<path class="st9" d="M346.3,343.1l-9.3-5.4c-0.7-0.4-0.7-1.2,0.2-1.7l9.2-5.3c0.9-0.5,2.2-0.6,2.9-0.1l9.3,5.4
				c0.7,0.4,0.7,1.2-0.2,1.7l-9.2,5.3C348.3,343.5,347,343.5,346.3,343.1z"/>
			<path class="st9" d="M360.6,351.4l-9.3-5.4c-0.7-0.4-0.7-1.2,0.2-1.7l9.2-5.3c0.9-0.5,2.2-0.6,2.9-0.1l9.3,5.4
				c0.7,0.4,0.7,1.2-0.2,1.7l-9.2,5.3C362.7,351.7,361.4,351.8,360.6,351.4z"/>
			<path class="st9" d="M375,359.6l-9.3-5.4c-0.7-0.4-0.7-1.2,0.2-1.7l9.2-5.3c0.9-0.5,2.2-0.6,2.9-0.1l9.3,5.4
				c0.7,0.4,0.7,1.2-0.2,1.7l-9.2,5.3C377,360,375.7,360.1,375,359.6z"/>
			<path class="st9" d="M389.3,367.9l-9.3-5.4c-0.7-0.4-0.7-1.2,0.2-1.7l9.2-5.3c0.9-0.5,2.2-0.6,2.9-0.1l9.3,5.4
				c0.7,0.4,0.7,1.2-0.2,1.7l-9.2,5.3C391.4,368.3,390.1,368.4,389.3,367.9z"/>
			<path class="st9" d="M414.8,382.7L394.6,371c-0.7-0.4-0.7-1.2,0.2-1.7l9.2-5.3c0.9-0.5,2.2-0.6,2.9-0.1l20.3,11.7
				c0.7,0.4,0.7,1.2-0.2,1.7l-9.2,5.3C416.9,383,415.6,383.1,414.8,382.7z"/>
			<path class="st9" d="M442.8,366.5l-17.1-9.9c-0.7-0.4-0.7-1.2,0.2-1.7l9.2-5.3c0.9-0.5,2.2-0.6,2.9-0.1l17.1,9.9
				c0.7,0.4,0.7,1.2-0.2,1.7l-9.2,5.3C444.8,366.9,443.5,367,442.8,366.5z"/>
			<path class="st9" d="M299.7,300l-9.3-5.4c-0.7-0.4-0.7-1.2,0.2-1.7l9.2-5.3c0.9-0.5,2.2-0.6,2.9-0.1l9.3,5.4
				c0.7,0.4,0.7,1.2-0.2,1.7l-9.2,5.3C301.7,300.4,300.4,300.5,299.7,300z"/>
			<path class="st9" d="M285,291.6l-9.3-5.4c-0.7-0.4-0.7-1.2,0.2-1.7l9.2-5.3c0.9-0.5,2.2-0.6,2.9-0.1l9.3,5.4
				c0.7,0.4,0.7,1.2-0.2,1.7l-9.2,5.3C287,291.9,285.7,292,285,291.6z"/>
			<path class="st9" d="M270.3,283.1l-9.3-5.4c-0.7-0.4-0.7-1.2,0.2-1.7l9.2-5.3c0.9-0.5,2.2-0.6,2.9-0.1l9.3,5.4
				c0.7,0.4,0.7,1.2-0.2,1.7l-9.2,5.3C272.3,283.4,271,283.5,270.3,283.1z"/>
			<path class="st9" d="M255.6,274.6l-9.3-5.4c-0.7-0.4-0.7-1.2,0.2-1.7l9.2-5.3c0.9-0.5,2.2-0.6,2.9-0.1l9.3,5.4
				c0.7,0.4,0.7,1.2-0.2,1.7l-9.2,5.3C257.6,274.9,256.3,275,255.6,274.6z"/>
			<path class="st9" d="M314,308.3l-9.3-5.4c-0.7-0.4-0.7-1.2,0.2-1.7l9.2-5.3c0.9-0.5,2.2-0.6,2.9-0.1l9.3,5.4
				c0.7,0.4,0.7,1.2-0.2,1.7l-9.2,5.3C316.1,308.7,314.8,308.8,314,308.3z"/>
			<path class="st9" d="M328.4,316.6l-9.3-5.4c-0.7-0.4-0.7-1.2,0.2-1.7l9.2-5.3c0.9-0.5,2.2-0.6,2.9-0.1l9.3,5.4
				c0.7,0.4,0.7,1.2-0.2,1.7l-9.2,5.3C330.4,317,329.1,317,328.4,316.6z"/>
			<path class="st9" d="M342.7,324.9l-9.3-5.4c-0.7-0.4-0.7-1.2,0.2-1.7l9.2-5.3c0.9-0.5,2.2-0.6,2.9-0.1l9.3,5.4
				c0.7,0.4,0.7,1.2-0.2,1.7l-9.2,5.3C344.8,325.3,343.5,325.3,342.7,324.9z"/>
			<path class="st9" d="M357.1,333.2l-9.3-5.4c-0.7-0.4-0.7-1.2,0.2-1.7l9.2-5.3c0.9-0.5,2.2-0.6,2.9-0.1l9.3,5.4
				c0.7,0.4,0.7,1.2-0.2,1.7l-9.2,5.3C359.1,333.6,357.8,333.6,357.1,333.2z"/>
			<path class="st9" d="M371.4,341.5l-9.3-5.4c-0.7-0.4-0.7-1.2,0.2-1.7l9.2-5.3c0.9-0.5,2.2-0.6,2.9-0.1l9.3,5.4
				c0.7,0.4,0.7,1.2-0.2,1.7l-9.2,5.3C373.5,341.8,372.2,341.9,371.4,341.5z"/>
			<path class="st9" d="M385.8,349.7l-9.3-5.4c-0.7-0.4-0.7-1.2,0.2-1.7l9.2-5.3c0.9-0.5,2.2-0.6,2.9-0.1l9.3,5.4
				c0.7,0.4,0.7,1.2-0.2,1.7l-9.2,5.3C387.8,350.1,386.5,350.2,385.8,349.7z"/>
			<path class="st9" d="M400.1,358l-9.3-5.4c-0.7-0.4-0.7-1.2,0.2-1.7l9.2-5.3c0.9-0.5,2.2-0.6,2.9-0.1l9.3,5.4
				c0.7,0.4,0.7,1.2-0.2,1.7l-9.2,5.3C402.2,358.4,400.9,358.5,400.1,358z"/>
			<path class="st9" d="M414.5,366.3l-9.3-5.4c-0.7-0.4-0.7-1.2,0.2-1.7l9.2-5.3c0.9-0.5,2.2-0.6,2.9-0.1l9.3,5.4
				c0.7,0.4,0.7,1.2-0.2,1.7l-9.2,5.3C416.5,366.7,415.2,366.7,414.5,366.3z"/>
			<path class="st9" d="M428.8,374.6l-9.3-5.4c-0.7-0.4-0.7-1.2,0.2-1.7l9.2-5.3c0.9-0.5,2.2-0.6,2.9-0.1l9.3,5.4
				c0.7,0.4,0.7,1.2-0.2,1.7l-9.2,5.3C430.9,375,429.6,375,428.8,374.6z"/>
			<path class="st9" d="M292.1,279.6l-9.3-5.4c-0.7-0.4-0.7-1.2,0.2-1.7l9.2-5.3c0.9-0.5,2.2-0.6,2.9-0.1l9.3,5.4
				c0.7,0.4,0.7,1.2-0.2,1.7l-9.2,5.3C294.2,279.9,292.9,280,292.1,279.6z"/>
			<path class="st9" d="M277.9,271.3l-9.3-5.4c-0.7-0.4-0.7-1.2,0.2-1.7l9.2-5.3c0.9-0.5,2.2-0.6,2.9-0.1l9.3,5.4
				c0.7,0.4,0.7,1.2-0.2,1.7l-9.2,5.3C279.9,271.7,278.6,271.7,277.9,271.3z"/>
			<path class="st9" d="M263.6,263.1l-9.3-5.4c-0.7-0.4-0.7-1.2,0.2-1.7l9.2-5.3c0.9-0.5,2.2-0.6,2.9-0.1l9.3,5.4
				c0.7,0.4,0.7,1.2-0.2,1.7l-9.2,5.3C265.6,263.4,264.3,263.5,263.6,263.1z"/>
			<path class="st9" d="M249.3,254.8l-9.3-5.4c-0.7-0.4-0.7-1.2,0.2-1.7l9.2-5.3c0.9-0.5,2.2-0.6,2.9-0.1l9.3,5.4
				c0.7,0.4,0.7,1.2-0.2,1.7l-9.2,5.3C251.3,255.2,250,255.3,249.3,254.8z"/>
			<path class="st9" d="M264,246.3l-9.3-5.4c-0.7-0.4-0.7-1.2,0.2-1.7l3-1.8c0.9-0.5,2.2-0.6,2.9-0.1l9.3,5.4
				c0.7,0.4,0.7,1.2-0.2,1.7l-3,1.8C266,246.7,264.7,246.8,264,246.3z"/>
			<path class="st9" d="M282.6,257.1l-9.3-5.4c-0.7-0.4-0.7-1.2,0.2-1.7l3-1.8c0.9-0.5,2.2-0.6,2.9-0.1l9.3,5.4
				c0.7,0.4,0.7,1.2-0.2,1.7l-3,1.8C284.7,257.5,283.4,257.5,282.6,257.1z"/>
			<path class="st9" d="M296.8,265.3l-9.3-5.4c-0.7-0.4-0.7-1.2,0.2-1.7l3-1.8c0.9-0.5,2.2-0.6,2.9-0.1l9.3,5.4
				c0.7,0.4,0.7,1.2-0.2,1.7l-3,1.8C298.9,265.7,297.6,265.7,296.8,265.3z"/>
			<path class="st9" d="M311,273.5l-9.3-5.4c-0.7-0.4-0.7-1.2,0.2-1.7l3-1.8c0.9-0.5,2.2-0.6,2.9-0.1l9.3,5.4
				c0.7,0.4,0.7,1.2-0.2,1.7l-3,1.8C313.1,273.9,311.8,274,311,273.5z"/>
			<path class="st9" d="M325.3,281.7l-9.3-5.4c-0.7-0.4-0.7-1.2,0.2-1.7l3-1.8c0.9-0.5,2.2-0.6,2.9-0.1l9.3,5.4
				c0.7,0.4,0.7,1.2-0.2,1.7l-3,1.8C327.3,282.1,326,282.2,325.3,281.7z"/>
			<path class="st9" d="M404.6,327.6l-9.3-5.4c-0.7-0.4-0.7-1.2,0.2-1.7l3-1.8c0.9-0.5,2.2-0.6,2.9-0.1l9.3,5.4
				c0.7,0.4,0.7,1.2-0.2,1.7l-3,1.8C406.7,327.9,405.4,328,404.6,327.6z"/>
			<path class="st9" d="M418.9,335.8l-9.3-5.4c-0.7-0.4-0.7-1.2,0.2-1.7l3-1.8c0.9-0.5,2.2-0.6,2.9-0.1l9.3,5.4
				c0.7,0.4,0.7,1.2-0.2,1.7l-3,1.8C420.9,336.1,419.6,336.2,418.9,335.8z"/>
			<path class="st9" d="M433.1,344l-9.3-5.4c-0.7-0.4-0.7-1.2,0.2-1.7l3-1.8c0.9-0.5,2.2-0.6,2.9-0.1l9.3,5.4
				c0.7,0.4,0.7,1.2-0.2,1.7l-3,1.8C435.1,344.3,433.8,344.4,433.1,344z"/>
			<path class="st9" d="M447.3,352.2l-9.3-5.4c-0.7-0.4-0.7-1.2,0.2-1.7l3-1.8c0.9-0.5,2.2-0.6,2.9-0.1l9.3,5.4
				c0.7,0.4,0.7,1.2-0.2,1.7l-3,1.8C449.3,352.6,448,352.6,447.3,352.2z"/>
			<path class="st9" d="M306.5,287.8l-9.3-5.4c-0.7-0.4-0.7-1.2,0.2-1.7l9.2-5.3c0.9-0.5,2.2-0.6,2.9-0.1l9.3,5.4
				c0.7,0.4,0.7,1.2-0.2,1.7l-9.2,5.3C308.5,288.2,307.2,288.3,306.5,287.8z"/>
			<path class="st9" d="M320.8,296.1l-9.3-5.4c-0.7-0.4-0.7-1.2,0.2-1.7l9.2-5.3c0.9-0.5,2.2-0.6,2.9-0.1l9.3,5.4
				c0.7,0.4,0.7,1.2-0.2,1.7l-9.2,5.3C322.9,296.5,321.6,296.5,320.8,296.1z"/>
			<path class="st9" d="M335.2,304.4l-9.3-5.4c-0.7-0.4-0.7-1.2,0.2-1.7l9.2-5.3c0.9-0.5,2.2-0.6,2.9-0.1l9.3,5.4
				c0.7,0.4,0.7,1.2-0.2,1.7l-9.2,5.3C337.2,304.8,335.9,304.8,335.2,304.4z"/>
			<path class="st9" d="M349.5,312.7l-9.3-5.4c-0.7-0.4-0.7-1.2,0.2-1.7l9.2-5.3c0.9-0.5,2.2-0.6,2.9-0.1l9.3,5.4
				c0.7,0.4,0.7,1.2-0.2,1.7l-9.2,5.3C351.6,313.1,350.3,313.1,349.5,312.7z"/>
			<path class="st9" d="M363.9,321l-9.3-5.4c-0.7-0.4-0.7-1.2,0.2-1.7l9.2-5.3c0.9-0.5,2.2-0.6,2.9-0.1l9.3,5.4
				c0.7,0.4,0.7,1.2-0.2,1.7l-9.2,5.3C365.9,321.3,364.6,321.4,363.9,321z"/>
			<path class="st9" d="M378.2,329.3l-9.3-5.4c-0.7-0.4-0.7-1.2,0.2-1.7l9.2-5.3c0.9-0.5,2.2-0.6,2.9-0.1l9.3,5.4
				c0.7,0.4,0.7,1.2-0.2,1.7l-9.2,5.3C380.3,329.6,379,329.7,378.2,329.3z"/>
			<path class="st9" d="M392.6,337.5l-9.3-5.4c-0.7-0.4-0.7-1.2,0.2-1.7l9.2-5.3c0.9-0.5,2.2-0.6,2.9-0.1l9.3,5.4
				c0.7,0.4,0.7,1.2-0.2,1.7l-9.2,5.3C394.6,337.9,393.3,338,392.6,337.5z"/>
			<path class="st9" d="M406.9,345.8l-9.3-5.4c-0.7-0.4-0.7-1.2,0.2-1.7l9.2-5.3c0.9-0.5,2.2-0.6,2.9-0.1l9.3,5.4
				c0.7,0.4,0.7,1.2-0.2,1.7l-9.2,5.3C409,346.2,407.7,346.3,406.9,345.8z"/>
			<path class="st9" d="M421.3,354.1l-9.3-5.4c-0.7-0.4-0.7-1.2,0.2-1.7l9.2-5.3c0.9-0.5,2.2-0.6,2.9-0.1l9.3,5.4
				c0.7,0.4,0.7,1.2-0.2,1.7l-9.2,5.3C423.3,354.5,422,354.5,421.3,354.1z"/>
			<path class="st9" d="M224.4,288.9l-27.4-15.8c-0.7-0.4-0.7-1.2,0.2-1.7l9.2-5.3c0.9-0.5,2.2-0.6,2.9-0.1l27.4,15.8
				c0.7,0.4,0.7,1.2-0.2,1.7l-9.2,5.3C226.5,289.2,225.2,289.3,224.4,288.9z"/>
			<path class="st9" d="M400.7,390.6l-27.4-15.8c-0.7-0.4-0.7-1.2,0.2-1.7l9.2-5.3c0.9-0.5,2.2-0.6,2.9-0.1l27.4,15.8
				c0.7,0.4,0.7,1.2-0.2,1.7l-9.2,5.3C402.8,391,401.5,391.1,400.7,390.6z"/>
			<path class="st9" d="M343.3,375.8l-9.3-5.4c-0.7-0.4-0.7-1.2,0.2-1.7l11-6.3c0.9-0.5,2.2-0.6,2.9-0.1l9.3,5.4
				c0.7,0.4,0.7,1.2-0.2,1.7l-11,6.3C345.4,376.2,344.1,376.2,343.3,375.8z"/>
			<path class="st9" d="M239.1,315.6l-14.9-8.6c-0.7-0.4-0.7-1.2,0.2-1.7l11-6.3c0.9-0.5,2.2-0.6,2.9-0.1l14.9,8.6
				c0.7,0.4,0.7,1.2-0.2,1.7l-11,6.3C241.2,316,239.9,316.1,239.1,315.6z"/>
			<path class="st9" d="M329.5,367.8l-14.9-8.6c-0.7-0.4-0.7-1.2,0.2-1.7l11-6.3c0.9-0.5,2.2-0.6,2.9-0.1l14.9,8.6
				c0.7,0.4,0.7,1.2-0.2,1.7l-11,6.3C331.6,368.2,330.3,368.2,329.5,367.8z"/>
			<path class="st9" d="M259.8,327.6L245,319c-0.7-0.4-0.7-1.2,0.2-1.7l11-6.3c0.9-0.5,2.2-0.6,2.9-0.1l14.9,8.6
				c0.7,0.4,0.7,1.2-0.2,1.7l-11,6.3C261.9,328,260.6,328,259.8,327.6z"/>
			<path class="st9" d="M259.2,310.9l64.6,37.3c0.8,0.5,0.8,1.2,0,1.7l-11.2,6.5c-0.8,0.5-2.1,0.5-2.9,0l-64.6-37.3L259.2,310.9z"/>
			<path class="st9" d="M383.4,390.8l10.3,6c0.6,0.4,0.5,1-0.2,1.4l-4.5,2.6c-0.7,0.4-1.8,0.5-2.4,0.1l-10.3-6
				c-0.6-0.4-0.5-1,0.2-1.4l4.5-2.6C381.8,390.5,382.8,390.5,383.4,390.8z"/>
			<path class="st9" d="M369,382.5l10.3,6c0.6,0.4,0.5,1-0.2,1.4l-4.5,2.6c-0.7,0.4-1.8,0.5-2.4,0.1l-10.3-6c-0.6-0.4-0.5-1,0.2-1.4
				l4.5-2.6C367.3,382.2,368.4,382.1,369,382.5z"/>
			<path class="st9" d="M354.6,374.2l10.3,6c0.6,0.4,0.5,1-0.2,1.4l-4.5,2.6c-0.7,0.4-1.8,0.5-2.4,0.1l-10.3-6
				c-0.6-0.4-0.5-1,0.2-1.4l4.5-2.6C352.9,373.9,354,373.8,354.6,374.2z"/>
			<path class="st9" d="M376.9,377.9l10.3,6c0.6,0.4,0.5,1-0.2,1.4l-4.5,2.6c-0.7,0.4-1.8,0.5-2.4,0.1l-10.3-6
				c-0.6-0.4-0.5-1,0.2-1.4l4.5-2.6C375.2,377.6,376.3,377.5,376.9,377.9z"/>
		</g>
		<g>
			<polygon class="st8" points="433.6,216.2 356.3,171.6 357.3,166.6 434.6,211.2 			"/>
			<polygon class="st8" points="405.9,224.7 351.9,193.6 352.9,188.6 406.9,219.7 			"/>
			<polygon class="st4" points="400.8,209.5 354.1,182.6 355.1,177.6 401.8,204.5 			"/>
			<polygon class="st2" points="431.4,227.2 408.1,213.8 409.1,208.7 432.4,222.2 			"/>
			<polygon class="st8" points="348.1,127.8 324.7,114.3 325.7,109.3 349,122.8 			"/>
			<polygon class="st4" points="345.5,139.5 322.2,126 323.2,121 346.5,134.4 			"/>
			<polygon class="st8" points="460.1,301.4 436.7,288 437.7,282.9 461.1,296.4 			"/>
			<polygon class="st8" points="340.5,162.8 317.1,149.3 318.1,144.3 341.5,157.8 			"/>
		</g>
		<g>
			<path class="st2" d="M390.9,166.4c-0.7,1.6-2.6,2.2-4.2,1.3c-1.6-0.9-2.2-3-1.5-4.6c0.7-1.6,2.6-2.2,4.2-1.3
				C390.9,162.8,391.6,164.8,390.9,166.4z"/>
			<path class="st4" d="M400.9,172.2c-0.7,1.6-2.6,2.2-4.2,1.3c-1.6-0.9-2.2-3-1.5-4.6c0.7-1.6,2.6-2.2,4.2-1.3
				C401,168.6,401.7,170.6,400.9,172.2z"/>
			<path class="st8" d="M411,178c-0.7,1.6-2.6,2.2-4.2,1.3c-1.6-0.9-2.2-3-1.5-4.6s2.6-2.2,4.2-1.3C411.1,174.4,411.7,176.4,411,178
				z"/>
			<path class="st2" d="M421,183.8c-0.7,1.6-2.6,2.2-4.2,1.3c-1.6-0.9-2.2-3-1.5-4.6c0.7-1.6,2.6-2.2,4.2-1.3
				C421.1,180.2,421.8,182.2,421,183.8z"/>
		</g>
	</g>
</g>
</svg>
