<?xml version="1.0" encoding="utf-8"?>
<!-- Generator: Adobe Illustrator 19.0.0, SVG Export Plug-In . SVG Version: 6.00 Build 0)  -->
<svg version="1.1" id="Ñëîé_1" xmlns="http://www.w3.org/2000/svg" xmlns:xlink="http://www.w3.org/1999/xlink" x="0px" y="0px"
	 viewBox="0 0 600 600" style="enable-background:new 0 0 600 600;" xml:space="preserve">
<style type="text/css">
	.st0{fill:#D4ECFF;}
	.st1{fill:#6EBDFF;}
	.st2{fill:#396CAA;}
	.st3{fill:#E83B1F;}
	.st4{fill:#5793CE;}
	.st5{fill:#E2E2E2;}
	.st6{fill:#FFFFFF;}
</style>
<g>
	<g>
		<path class="st0" d="M465,275.4v194.3c0,6.6-4.6,9.3-10.3,6L192.2,324.1c-5.7-3.3-10.3-11.3-10.3-17.9V112L465,275.4z"/>
	</g>
	<g>
		<path class="st1" d="M443.1,288.7V483c0,6.6-4.6,9.3-10.3,6L170.3,337.4c-5.7-3.3-10.3-11.3-10.3-17.9V125.3L443.1,288.7z"/>
	</g>
	<g>
		<g>
			<g>
				<g>
					<g>
						<path class="st2" d="M421,310.2v194.3c0,6.6-4.6,9.3-10.3,6L148.3,358.9c-5.7-3.3-10.3-11.3-10.3-17.9V146.7L421,310.2z"/>
					</g>
					<g>
						<path class="st2" d="M137.9,108.2v38.6L421,310.2v-38.6c0-6.6-4.6-14.6-10.3-17.9L148.3,102.2
							C142.5,98.9,137.9,101.6,137.9,108.2z M394,256.8c0-2.7,1.9-3.8,4.3-2.5c2.4,1.4,4.3,4.7,4.3,7.4c0,2.7-1.9,3.8-4.3,2.5
							C395.9,262.9,394,259.6,394,256.8z M382.1,250c0-2.7,1.9-3.8,4.3-2.5c2.4,1.4,4.3,4.7,4.3,7.4c0,2.7-1.9,3.8-4.3,2.5
							C384,256,382.1,252.7,382.1,250z M356.3,235.1c0-2.7,1.9-3.8,4.3-2.5c2.4,1.4,4.3,4.7,4.3,7.4c0,2.7-1.9,3.8-4.3,2.5
							C358.3,241.2,356.3,237.9,356.3,235.1z M344.5,228.3c0-2.7,1.9-3.8,4.3-2.5c2.4,1.4,4.3,4.7,4.3,7.4c0,2.7-1.9,3.8-4.3,2.5
							C346.4,234.3,344.5,231,344.5,228.3z M318.7,213.4c0-2.7,1.9-3.8,4.3-2.5c2.4,1.4,4.3,4.7,4.3,7.4c0,2.7-1.9,3.8-4.3,2.5
							C320.6,219.4,318.7,216.1,318.7,213.4z M306.9,206.6c0-2.7,1.9-3.8,4.3-2.5c2.4,1.4,4.3,4.7,4.3,7.4c0,2.7-1.9,3.8-4.3,2.5
							C308.8,212.6,306.9,209.3,306.9,206.6z M281.1,191.7c0-2.7,1.9-3.8,4.3-2.5c2.4,1.4,4.3,4.7,4.3,7.4s-1.9,3.8-4.3,2.5
							C283,197.7,281.1,194.4,281.1,191.7z M269.3,184.9c0-2.7,1.9-3.8,4.3-2.5c2.4,1.4,4.3,4.7,4.3,7.4c0,2.7-1.9,3.8-4.3,2.5
							C271.2,190.9,269.3,187.6,269.3,184.9z M243.5,170c0-2.7,1.9-3.8,4.3-2.5c2.4,1.4,4.3,4.7,4.3,7.4c0,2.7-1.9,3.8-4.3,2.5
							C245.4,176,243.5,172.7,243.5,170z M231.7,163.1c0-2.7,1.9-3.8,4.3-2.5c2.4,1.4,4.3,4.7,4.3,7.4s-1.9,3.8-4.3,2.5
							C233.6,169.2,231.7,165.9,231.7,163.1z M205.9,148.3c0-2.7,1.9-3.8,4.3-2.5c2.4,1.4,4.3,4.7,4.3,7.4c0,2.7-1.9,3.8-4.3,2.5
							C207.8,154.3,205.9,151,205.9,148.3z M194.1,141.4c0-2.7,1.9-3.8,4.3-2.5c2.4,1.4,4.3,4.7,4.3,7.4c0,2.7-1.9,3.8-4.3,2.5
							C196,147.5,194.1,144.2,194.1,141.4z M168.3,126.6c0-2.7,1.9-3.8,4.3-2.5c2.4,1.4,4.3,4.7,4.3,7.4c0,2.7-1.9,3.8-4.3,2.5
							C170.2,132.6,168.3,129.3,168.3,126.6z M156.5,119.7c0-2.7,1.9-3.8,4.3-2.5c2.4,1.4,4.3,4.7,4.3,7.4c0,2.7-1.9,3.8-4.3,2.5
							C158.4,125.8,156.5,122.4,156.5,119.7z"/>
					</g>
					<g>
						<path class="st3" d="M180.9,158.4L378,272.2c1.6,0.9,2.8-0.1,2.8-2.1l0,0c0-2.1-1.3-4.5-2.8-5.4L180.9,150.9
							c-1.6-0.9-2.8,0.1-2.8,2.1l0,0C178.1,155.1,179.4,157.5,180.9,158.4z"/>
					</g>
					<g>
						<g>
							<polygon class="st4" points="176.9,225.2 197.1,236.8 197.1,219.7 176.9,208.1 							"/>
						</g>
						<g>
							<polygon class="st4" points="207.8,243 227.9,254.6 227.9,237.5 207.8,225.9 							"/>
						</g>
						<g>
							<polygon class="st4" points="176.9,253 197.1,264.7 197.1,247.6 176.9,236 							"/>
						</g>
						<g>
							<polygon class="st4" points="207.8,270.8 227.9,282.5 227.9,265.4 207.8,253.8 							"/>
						</g>
						<g>
							<polygon class="st5" points="238.6,288.6 258.7,300.3 258.7,283.2 238.6,271.6 							"/>
						</g>
						<g>
							<polygon class="st5" points="269.4,306.4 289.6,318.1 289.6,301 269.4,289.3 							"/>
						</g>
						<g>
							<polygon class="st5" points="300.2,324.2 320.4,335.8 320.4,318.8 300.2,307.1 							"/>
						</g>
						<g>
							<polygon class="st5" points="331,342 351.2,353.6 351.2,336.6 331,324.9 							"/>
						</g>
						<g>
							<polygon class="st5" points="361.9,359.8 382,371.4 382,354.4 361.9,342.7 							"/>
						</g>
						<g>
							<polygon class="st4" points="176.9,280.9 197.1,292.5 197.1,275.5 176.9,263.8 							"/>
						</g>
						<g>
							<polygon class="st4" points="207.8,298.7 227.9,310.3 227.9,293.3 207.8,281.6 							"/>
						</g>
						<g>
							<polygon class="st5" points="238.6,316.5 258.7,328.1 258.7,311.1 238.6,299.4 							"/>
						</g>
						<g>
							<polygon class="st5" points="269.4,334.3 289.6,345.9 289.6,328.9 269.4,317.2 							"/>
						</g>
						<g>
							<polygon class="st5" points="300.2,352.1 320.4,363.7 320.4,346.6 300.2,335 							"/>
						</g>
						<g>
							<polygon class="st5" points="331,369.9 351.2,381.5 351.2,364.4 331,352.8 							"/>
						</g>
						<g>
							<polygon class="st5" points="361.9,387.7 382,399.3 382,382.2 361.9,370.6 							"/>
						</g>
						<g>
							<polygon class="st4" points="176.9,308.8 197.1,320.4 197.1,303.3 176.9,291.7 							"/>
						</g>
						<g>
							<polygon class="st4" points="207.8,326.6 227.9,338.2 227.9,321.1 207.8,309.5 							"/>
						</g>
						<g>
							<polygon class="st5" points="238.6,344.4 258.7,356 258.7,338.9 238.6,327.3 							"/>
						</g>
						<g>
							<polygon class="st5" points="269.4,362.1 289.6,373.8 289.6,356.7 269.4,345.1 							"/>
						</g>
						<g>
							<polygon class="st5" points="300.2,379.9 320.4,391.6 320.4,374.5 300.2,362.9 							"/>
						</g>
						<g>
							<polygon class="st5" points="331,397.7 351.2,409.4 351.2,392.3 331,380.7 							"/>
						</g>
						<g>
							<polygon class="st5" points="361.9,415.5 382,427.2 382,410.1 361.9,398.5 							"/>
						</g>
						<g>
							<polygon class="st4" points="176.9,336.6 197.1,348.3 197.1,331.2 176.9,319.6 							"/>
						</g>
						<g>
							<polygon class="st4" points="207.8,354.4 227.9,366.1 227.9,349 207.8,337.4 							"/>
						</g>
						<g>
							<polygon class="st5" points="238.6,372.2 258.7,383.9 258.7,366.8 238.6,355.2 							"/>
						</g>
						<g>
							<polygon class="st5" points="269.4,390 289.6,401.7 289.6,384.6 269.4,372.9 							"/>
						</g>
						<g>
							<polygon class="st5" points="300.2,407.8 320.4,419.4 320.4,402.4 300.2,390.7 							"/>
						</g>
						<g>
							<polygon class="st5" points="331,425.6 351.2,437.2 351.2,420.2 331,408.5 							"/>
						</g>
						<g>
							<polygon class="st5" points="361.9,443.4 382,455 382,438 361.9,426.3 							"/>
						</g>
					</g>
				</g>
				<g>
					<polygon class="st5" points="415.1,512.9 418,511.1 415,510.5 					"/>
				</g>
				<g>
					<g>
						<path class="st0" d="M418.1,311.9v194.3c0,6.6-4.6,9.3-10.3,6L145.3,360.6c-5.7-3.3-10.3-11.3-10.3-17.9V148.5L418.1,311.9z"
							/>
					</g>
					<g>
						<g>
							<path class="st2" d="M393.5,255.5c-0.3,0.5-0.5,1.1-0.5,1.9c0,2.7,1.9,6,4.3,7.4c0.6,0.4,1.2,0.5,1.8,0.6
								c-0.7,1.2-2.1,1.5-3.8,0.5c-2.4-1.4-4.3-4.7-4.3-7.4C391,256.6,392.1,255.5,393.5,255.5z"/>
						</g>
						<g>
							<path class="st2" d="M381.7,248.7c-0.3,0.5-0.5,1.1-0.5,1.9c0,2.7,1.9,6,4.3,7.4c0.6,0.4,1.2,0.5,1.8,0.6
								c-0.7,1.2-2.1,1.5-3.8,0.5c-2.4-1.4-4.3-4.7-4.3-7.4C379.2,249.7,380.2,248.6,381.7,248.7z"/>
						</g>
						<g>
							<path class="st2" d="M355.9,233.8c-0.3,0.5-0.5,1.1-0.5,1.9c0,2.7,1.9,6,4.3,7.4c0.6,0.4,1.2,0.5,1.8,0.6
								c-0.7,1.2-2.1,1.5-3.8,0.5c-2.4-1.4-4.3-4.7-4.3-7.4C353.4,234.9,354.5,233.7,355.9,233.8z"/>
						</g>
						<g>
							<path class="st2" d="M344.1,227c-0.3,0.5-0.5,1.1-0.5,1.9c0,2.7,1.9,6,4.3,7.4c0.6,0.4,1.2,0.5,1.8,0.6
								c-0.7,1.2-2.1,1.5-3.8,0.5c-2.4-1.4-4.3-4.7-4.3-7.4C341.6,228,342.6,226.9,344.1,227z"/>
						</g>
						<g>
							<path class="st2" d="M318.3,212.1c-0.3,0.5-0.5,1.1-0.5,1.9c0,2.7,1.9,6,4.3,7.4c0.6,0.4,1.2,0.5,1.8,0.6
								c-0.7,1.2-2.1,1.5-3.8,0.5c-2.4-1.4-4.3-4.7-4.3-7.4C315.8,213.1,316.8,212,318.3,212.1z"/>
						</g>
						<g>
							<path class="st2" d="M306.5,205.3c-0.3,0.5-0.5,1.1-0.5,1.9c0,2.7,1.9,6,4.3,7.4c0.6,0.4,1.2,0.5,1.8,0.6
								c-0.7,1.2-2.1,1.5-3.8,0.5c-2.4-1.4-4.3-4.7-4.3-7.4C304,206.3,305,205.2,306.5,205.3z"/>
						</g>
						<g>
							<path class="st2" d="M280.7,190.4c-0.3,0.5-0.5,1.1-0.5,1.9c0,2.7,1.9,6,4.3,7.4c0.6,0.4,1.2,0.5,1.8,0.6
								c-0.7,1.2-2.1,1.5-3.8,0.5c-2.4-1.4-4.3-4.7-4.3-7.4C278.2,191.4,279.2,190.3,280.7,190.4z"/>
						</g>
						<g>
							<path class="st2" d="M268.9,183.5c-0.3,0.5-0.5,1.1-0.5,1.9c0,2.7,1.9,6,4.3,7.4c0.6,0.4,1.2,0.5,1.8,0.6
								c-0.7,1.2-2.1,1.5-3.8,0.5c-2.4-1.4-4.3-4.7-4.3-7.4C266.4,184.6,267.4,183.5,268.9,183.5z"/>
						</g>
						<g>
							<path class="st2" d="M243.1,168.7c-0.3,0.5-0.5,1.1-0.5,1.9c0,2.7,1.9,6,4.3,7.4c0.6,0.4,1.2,0.5,1.8,0.6
								c-0.7,1.2-2.1,1.5-3.8,0.5c-2.4-1.4-4.3-4.7-4.3-7.4C240.6,169.7,241.6,168.6,243.1,168.7z"/>
						</g>
						<g>
							<path class="st2" d="M231.3,161.8c-0.3,0.5-0.5,1.1-0.5,1.9c0,2.7,1.9,6,4.3,7.4c0.6,0.4,1.2,0.5,1.8,0.6
								c-0.7,1.2-2.1,1.5-3.8,0.5c-2.4-1.4-4.3-4.7-4.3-7.4C228.8,162.9,229.8,161.7,231.3,161.8z"/>
						</g>
						<g>
							<path class="st2" d="M205.5,146.9c-0.3,0.5-0.5,1.1-0.5,1.9c0,2.7,1.9,6,4.3,7.4c0.6,0.4,1.2,0.5,1.8,0.6
								c-0.7,1.2-2.1,1.5-3.8,0.5c-2.4-1.4-4.3-4.7-4.3-7.4C203,148,204,146.9,205.5,146.9z"/>
						</g>
						<g>
							<path class="st2" d="M193.7,140.1c-0.3,0.5-0.5,1.1-0.5,1.9c0,2.7,1.9,6,4.3,7.4c0.6,0.4,1.2,0.5,1.8,0.6
								c-0.7,1.2-2.1,1.5-3.8,0.5c-2.4-1.4-4.3-4.7-4.3-7.4C191.2,141.1,192.2,140,193.7,140.1z"/>
						</g>
						<g>
							<path class="st2" d="M167.9,125.2c-0.3,0.5-0.5,1.1-0.5,1.9c0,2.7,1.9,6,4.3,7.4c0.6,0.4,1.2,0.5,1.8,0.6
								c-0.7,1.2-2.1,1.5-3.8,0.5c-2.4-1.4-4.3-4.7-4.3-7.4C165.4,126.3,166.4,125.1,167.9,125.2z"/>
						</g>
						<g>
							<path class="st2" d="M156.1,118.4c-0.3,0.5-0.5,1.1-0.5,1.9c0,2.7,1.9,6,4.3,7.4c0.6,0.4,1.2,0.5,1.8,0.6
								c-0.7,1.2-2.1,1.5-3.8,0.5c-2.4-1.4-4.3-4.7-4.3-7.4C153.5,119.4,154.6,118.3,156.1,118.4z"/>
						</g>
					</g>
					<g>
						<path class="st4" d="M135,109.9v38.6l283.1,163.5v-38.6c0-6.6-4.6-14.6-10.3-17.9L145.3,103.9
							C139.6,100.6,135,103.3,135,109.9z M391,258.6c0-2.7,1.9-3.8,4.3-2.5c2.4,1.4,4.3,4.7,4.3,7.4c0,2.7-1.9,3.8-4.3,2.5
							C393,264.6,391,261.3,391,258.6z M379.2,251.8c0-2.7,1.9-3.8,4.3-2.5c2.4,1.4,4.3,4.7,4.3,7.4c0,2.7-1.9,3.8-4.3,2.5
							C381.1,257.8,379.2,254.5,379.2,251.8z M353.4,236.9c0-2.7,1.9-3.8,4.3-2.5c2.4,1.4,4.3,4.7,4.3,7.4s-1.9,3.8-4.3,2.5
							C355.3,242.9,353.4,239.6,353.4,236.9z M341.6,230c0-2.7,1.9-3.8,4.3-2.5c2.4,1.4,4.3,4.7,4.3,7.4s-1.9,3.8-4.3,2.5
							C343.5,236.1,341.6,232.8,341.6,230z M315.8,215.2c0-2.7,1.9-3.8,4.3-2.5c2.4,1.4,4.3,4.7,4.3,7.4c0,2.7-1.9,3.8-4.3,2.5
							C317.7,221.2,315.8,217.9,315.8,215.2z M304,208.3c0-2.7,1.9-3.8,4.3-2.5c2.4,1.4,4.3,4.7,4.3,7.4c0,2.7-1.9,3.8-4.3,2.5
							C305.9,214.4,304,211,304,208.3z M278.2,193.4c0-2.7,1.9-3.8,4.3-2.5c2.4,1.4,4.3,4.7,4.3,7.4s-1.9,3.8-4.3,2.5
							C280.1,199.5,278.2,196.2,278.2,193.4z M266.4,186.6c0-2.7,1.9-3.8,4.3-2.5c2.4,1.4,4.3,4.7,4.3,7.4c0,2.7-1.9,3.8-4.3,2.5
							C268.3,192.6,266.4,189.3,266.4,186.6z M240.6,171.7c0-2.7,1.9-3.8,4.3-2.5c2.4,1.4,4.3,4.7,4.3,7.4c0,2.7-1.9,3.8-4.3,2.5
							C242.5,177.8,240.6,174.4,240.6,171.7z M228.8,164.9c0-2.7,1.9-3.8,4.3-2.5c2.4,1.4,4.3,4.7,4.3,7.4c0,2.7-1.9,3.8-4.3,2.5
							C230.7,170.9,228.8,167.6,228.8,164.9z M203,150c0-2.7,1.9-3.8,4.3-2.5c2.4,1.4,4.3,4.7,4.3,7.4c0,2.7-1.9,3.8-4.3,2.5
							C204.9,156,203,152.7,203,150z M191.2,143.2c0-2.7,1.9-3.8,4.3-2.5c2.4,1.4,4.3,4.7,4.3,7.4c0,2.7-1.9,3.8-4.3,2.5
							C193.1,149.2,191.2,145.9,191.2,143.2z M165.4,128.3c0-2.7,1.9-3.8,4.3-2.5c2.4,1.4,4.3,4.7,4.3,7.4s-1.9,3.8-4.3,2.5
							C167.3,134.3,165.4,131,165.4,128.3z M153.5,121.5c0-2.7,1.9-3.8,4.3-2.5c2.4,1.4,4.3,4.7,4.3,7.4s-1.9,3.8-4.3,2.5
							C155.5,127.5,153.5,124.2,153.5,121.5z"/>
					</g>
					<g>
						<path class="st1" d="M178,160.2L375.1,274c1.6,0.9,2.8-0.1,2.8-2.1l0,0c0-2.1-1.3-4.5-2.8-5.4L178,152.6
							c-1.6-0.9-2.8,0.1-2.8,2.1l0,0C175.2,156.9,176.5,159.3,178,160.2z"/>
					</g>
					<g>
						<g>
							<polygon class="st1" points="174,226.9 194.2,238.5 194.2,221.5 174,209.8 							"/>
						</g>
						<g>
							<polygon class="st1" points="204.8,244.7 225,256.3 225,239.3 204.8,227.6 							"/>
						</g>
						<g>
							<polygon class="st1" points="174,254.8 194.2,266.4 194.2,249.3 174,237.7 							"/>
						</g>
						<g>
							<polygon class="st1" points="204.8,272.6 225,284.2 225,267.1 204.8,255.5 							"/>
						</g>
						<g>
							<polygon class="st6" points="235.7,290.4 255.8,302 255.8,284.9 235.7,273.3 							"/>
						</g>
						<g>
							<polygon class="st6" points="266.5,308.2 286.6,319.8 286.6,302.7 266.5,291.1 							"/>
						</g>
						<g>
							<polygon class="st6" points="297.3,326 317.5,337.6 317.5,320.5 297.3,308.9 							"/>
						</g>
						<g>
							<polygon class="st6" points="328.1,343.7 348.3,355.4 348.3,338.3 328.1,326.7 							"/>
						</g>
						<g>
							<polygon class="st6" points="358.9,361.5 379.1,373.2 379.1,356.1 358.9,344.5 							"/>
						</g>
						<g>
							<polygon class="st1" points="174,282.6 194.2,294.3 194.2,277.2 174,265.6 							"/>
						</g>
						<g>
							<polygon class="st1" points="204.8,300.4 225,312.1 225,295 204.8,283.4 							"/>
						</g>
						<g>
							<polygon class="st6" points="235.7,318.2 255.8,329.9 255.8,312.8 235.7,301.2 							"/>
						</g>
						<g>
							<polygon class="st6" points="266.5,336 286.6,347.7 286.6,330.6 266.5,319 							"/>
						</g>
						<g>
							<polygon class="st6" points="297.3,353.8 317.5,365.5 317.5,348.4 297.3,336.8 							"/>
						</g>
						<g>
							<polygon class="st6" points="328.1,371.6 348.3,383.3 348.3,366.2 328.1,354.5 							"/>
						</g>
						<g>
							<polygon class="st6" points="358.9,389.4 379.1,401 379.1,384 358.9,372.3 							"/>
						</g>
						<g>
							<polygon class="st1" points="174,310.5 194.2,322.1 194.2,305.1 174,293.4 							"/>
						</g>
						<g>
							<polygon class="st1" points="204.8,328.3 225,339.9 225,322.9 204.8,311.2 							"/>
						</g>
						<g>
							<polygon class="st6" points="235.7,346.1 255.8,357.7 255.8,340.7 235.7,329 							"/>
						</g>
						<g>
							<polygon class="st6" points="266.5,363.9 286.6,375.5 286.6,358.5 266.5,346.8 							"/>
						</g>
						<g>
							<polygon class="st6" points="297.3,381.7 317.5,393.3 317.5,376.3 297.3,364.6 							"/>
						</g>
						<g>
							<polygon class="st6" points="328.1,399.5 348.3,411.1 348.3,394.1 328.1,382.4 							"/>
						</g>
						<g>
							<polygon class="st6" points="358.9,417.3 379.1,428.9 379.1,411.8 358.9,400.2 							"/>
						</g>
						<g>
							<polygon class="st1" points="174,338.4 194.2,350 194.2,332.9 174,321.3 							"/>
						</g>
						<g>
							<polygon class="st1" points="204.8,356.2 225,367.8 225,350.7 204.8,339.1 							"/>
						</g>
						<g>
							<polygon class="st6" points="235.7,374 255.8,385.6 255.8,368.5 235.7,356.9 							"/>
						</g>
						<g>
							<polygon class="st6" points="266.5,391.8 286.6,403.4 286.6,386.3 266.5,374.7 							"/>
						</g>
						<g>
							<polygon class="st6" points="297.3,409.6 317.5,421.2 317.5,404.1 297.3,392.5 							"/>
						</g>
						<g>
							<polygon class="st6" points="328.1,427.3 348.3,439 348.3,421.9 328.1,410.3 							"/>
						</g>
						<g>
							<polygon class="st6" points="358.9,445.1 379.1,456.8 379.1,439.7 358.9,428.1 							"/>
						</g>
					</g>
				</g>
				<g>
					<g>
						<path class="st0" d="M375.9,244.6c0,9.4,6.6,13.2,14.7,8.5c8.1-4.7,14.7-16.1,14.7-25.5c0-9.4-6.6-13.2-14.7-8.5
							C382.5,223.8,375.9,235.2,375.9,244.6z M379.1,242.8c0-7.4,5.2-16.4,11.6-20.1c6.4-3.7,11.6-0.7,11.6,6.7
							c0,7.4-5.2,16.4-11.6,20.1C384.3,253.2,379.1,250.2,379.1,242.8z"/>
					</g>
					<g>
						<polygon class="st0" points="381.6,255.3 380,254 381.4,254.4 						"/>
					</g>
					<g>
						<polygon class="st0" points="401.6,218.4 403.9,220.1 402,220.6 						"/>
					</g>
					<g>
						<path class="st2" d="M377.9,246.1c0,9.4,6.6,13.2,14.7,8.5c8.1-4.7,14.7-16.1,14.7-25.5c0-9.4-6.6-13.2-14.7-8.5
							C384.6,225.3,377.9,236.7,377.9,246.1z M381.1,244.3c0-7.4,5.2-16.4,11.6-20.1c6.4-3.7,11.6-0.7,11.6,6.7
							c0,7.4-5.2,16.4-11.6,20.1C386.3,254.7,381.1,251.7,381.1,244.3z"/>
					</g>
				</g>
				<g>
					<polygon class="st2" points="393.3,247.3 395.5,244.9 401.8,248.6 397.7,250.6 					"/>
				</g>
				<g>
					<path class="st4" d="M393.2,247l5.7,3.3l-3.9,3.9l-7.3,3.3c0,0,0.5-3.2-2.5-6.8L393.2,247z"/>
				</g>
				<g>
					<g>
						<path class="st0" d="M338.3,222.9c0,9.4,6.6,13.2,14.7,8.5c8.1-4.7,14.7-16.1,14.7-25.5s-6.6-13.2-14.7-8.5
							C344.9,202.1,338.3,213.5,338.3,222.9z M341.4,221.1c0-7.4,5.2-16.4,11.6-20.1c6.4-3.7,11.6-0.7,11.6,6.7
							c0,7.4-5.2,16.4-11.6,20.1C346.6,231.5,341.4,228.5,341.4,221.1z"/>
					</g>
					<g>
						<polygon class="st0" points="344,233.5 342.4,232.3 343.8,232.7 						"/>
					</g>
					<g>
						<polygon class="st0" points="364,196.7 366.3,198.3 364.4,198.9 						"/>
					</g>
					<g>
						<path class="st2" d="M340.3,224.4c0,9.4,6.6,13.2,14.7,8.5c8.1-4.7,14.7-16.1,14.7-25.5c0-9.4-6.6-13.2-14.7-8.5
							C346.9,203.6,340.3,215,340.3,224.4z M343.5,222.6c0-7.4,5.2-16.4,11.6-20.1c6.4-3.7,11.6-0.7,11.6,6.7
							c0,7.4-5.2,16.4-11.6,20.1C348.7,233,343.5,230,343.5,222.6z"/>
					</g>
				</g>
				<g>
					<polygon class="st2" points="355.6,225.6 357.8,223.2 364.2,226.8 360.1,228.9 					"/>
				</g>
				<g>
					<path class="st4" d="M355.6,225.3l5.7,3.3l-3.9,3.9l-7.3,3.3c0,0,0.5-3.2-2.5-6.8L355.6,225.3z"/>
				</g>
				<g>
					<g>
						<path class="st0" d="M350.1,229.8c0,9.4,6.6,13.2,14.7,8.5c8.1-4.7,14.7-16.1,14.7-25.5c0-9.4-6.6-13.2-14.7-8.5
							C356.7,208.9,350.1,220.3,350.1,229.8z M353.3,227.9c0-7.4,5.2-16.4,11.6-20.1c6.4-3.7,11.6-0.7,11.6,6.7
							c0,7.4-5.2,16.4-11.6,20.1C358.5,238.3,353.3,235.3,353.3,227.9z"/>
					</g>
					<g>
						<polygon class="st0" points="355.9,240.4 354.2,239.2 355.6,239.5 						"/>
					</g>
					<g>
						<polygon class="st0" points="375.9,203.5 378.1,205.2 376.3,205.7 						"/>
					</g>
					<g>
						<path class="st2" d="M352.2,231.2c0,9.4,6.6,13.2,14.7,8.5c8.1-4.7,14.7-16.1,14.7-25.5c0-9.4-6.6-13.2-14.7-8.5
							C358.8,210.4,352.2,221.8,352.2,231.2z M355.3,229.4c0-7.4,5.2-16.4,11.6-20.1c6.4-3.7,11.6-0.7,11.6,6.7
							c0,7.4-5.2,16.4-11.6,20.1C360.5,239.8,355.3,236.8,355.3,229.4z"/>
					</g>
				</g>
				<g>
					<polygon class="st2" points="367.5,232.5 369.7,230 376,233.7 372,235.8 					"/>
				</g>
				<g>
					<path class="st4" d="M367.4,232.1l5.7,3.3l-3.9,3.9l-7.3,3.3c0,0,0.5-3.2-2.5-6.8L367.4,232.1z"/>
				</g>
				<g>
					<g>
						<path class="st0" d="M300.6,201.1c0,9.4,6.6,13.2,14.7,8.5c8.1-4.7,14.7-16.1,14.7-25.5c0-9.4-6.6-13.2-14.7-8.5
							C307.3,180.3,300.6,191.7,300.6,201.1z M303.8,199.3c0-7.4,5.2-16.4,11.6-20.1c6.4-3.7,11.6-0.7,11.6,6.7
							c0,7.4-5.2,16.4-11.6,20.1C309,209.7,303.8,206.7,303.8,199.3z"/>
					</g>
					<g>
						<polygon class="st0" points="306.4,211.7 304.7,210.5 306.1,210.9 						"/>
					</g>
					<g>
						<polygon class="st0" points="326.4,174.9 328.6,176.5 326.8,177.1 						"/>
					</g>
					<g>
						<path class="st2" d="M302.7,202.6c0,9.4,6.6,13.2,14.7,8.5c8.1-4.7,14.7-16.1,14.7-25.5c0-9.4-6.6-13.2-14.7-8.5
							S302.7,193.2,302.7,202.6z M305.8,200.8c0-7.4,5.2-16.4,11.6-20.1c6.4-3.7,11.6-0.7,11.6,6.7c0,7.4-5.2,16.4-11.6,20.1
							S305.8,208.2,305.8,200.8z"/>
					</g>
				</g>
				<g>
					<polygon class="st2" points="318,203.8 320.1,201.4 326.5,205.1 322.5,207.1 					"/>
				</g>
				<g>
					<path class="st4" d="M317.9,203.6l5.7,3.3l-3.9,3.9l-7.2,3.2c0,0,0.5-3.2-2.6-6.8L317.9,203.6z"/>
				</g>
				<g>
					<g>
						<path class="st0" d="M312.5,208c0,9.4,6.6,13.2,14.7,8.5c8.1-4.7,14.7-16.1,14.7-25.5c0-9.4-6.6-13.2-14.7-8.5
							C319.1,187.1,312.5,198.6,312.5,208z M315.6,206.2c0-7.4,5.2-16.4,11.6-20.1s11.6-0.7,11.6,6.7c0,7.4-5.2,16.4-11.6,20.1
							C320.8,216.5,315.6,213.5,315.6,206.2z"/>
					</g>
					<g>
						<polygon class="st0" points="318.2,218.6 316.6,217.4 318,217.7 						"/>
					</g>
					<g>
						<polygon class="st0" points="338.2,181.7 340.5,183.4 338.6,183.9 						"/>
					</g>
					<g>
						<path class="st2" d="M314.5,209.5c0,9.4,6.6,13.2,14.7,8.5c8.1-4.7,14.7-16.1,14.7-25.5c0-9.4-6.6-13.2-14.7-8.5
							C321.1,188.6,314.5,200,314.5,209.5z M317.7,207.6c0-7.4,5.2-16.4,11.6-20.1c6.4-3.7,11.6-0.7,11.6,6.7
							c0,7.4-5.2,16.4-11.6,20.1C322.9,218,317.7,215,317.7,207.6z"/>
					</g>
				</g>
				<g>
					<polygon class="st2" points="329.8,210.7 332,208.2 338.4,211.9 334.3,214 					"/>
				</g>
				<g>
					<path class="st4" d="M329.8,210.4l5.7,3.3l-3.9,3.9l-7.2,3.2c0,0,0.5-3.1-2.5-6.7L329.8,210.4z"/>
				</g>
				<g>
					<g>
						<path class="st0" d="M263,179.3c0,9.4,6.6,13.2,14.7,8.5c8.1-4.7,14.7-16.1,14.7-25.5c0-9.4-6.6-13.2-14.7-8.5
							C269.6,158.5,263,169.9,263,179.3z M266.2,177.5c0-7.4,5.2-16.4,11.6-20.1c6.4-3.7,11.6-0.7,11.6,6.7
							c0,7.4-5.2,16.4-11.6,20.1C271.3,187.9,266.2,184.9,266.2,177.5z"/>
					</g>
					<g>
						<polygon class="st0" points="268.7,190 267.1,188.7 268.5,189.1 						"/>
					</g>
					<g>
						<polygon class="st0" points="288.7,153.1 291,154.8 289.1,155.3 						"/>
					</g>
					<g>
						<path class="st2" d="M265,180.8c0,9.4,6.6,13.2,14.7,8.5c8.1-4.7,14.7-16.1,14.7-25.5s-6.6-13.2-14.7-8.5
							C271.6,160,265,171.4,265,180.8z M268.2,179c0-7.4,5.2-16.4,11.6-20.1c6.4-3.7,11.6-0.7,11.6,6.7c0,7.4-5.2,16.4-11.6,20.1
							C273.4,189.4,268.2,186.4,268.2,179z"/>
					</g>
				</g>
				<g>
					<polygon class="st2" points="280.4,182 282.5,179.7 288.8,183.3 284.8,185.3 					"/>
				</g>
				<g>
					<path class="st4" d="M280.2,181.8l5.8,3.4l-3.9,3.8l-7.2,3.2c0,0,0.4-3.1-2.6-6.7L280.2,181.8z"/>
				</g>
				<g>
					<g>
						<path class="st0" d="M274.9,186.2c0,9.4,6.6,13.2,14.7,8.5c8.1-4.7,14.7-16.1,14.7-25.5c0-9.4-6.6-13.2-14.7-8.5
							C281.5,165.3,274.9,176.8,274.9,186.2z M278,184.4c0-7.4,5.2-16.4,11.6-20.1c6.4-3.7,11.6-0.7,11.6,6.7
							c0,7.4-5.2,16.4-11.6,20.1C283.2,194.8,278,191.8,278,184.4z"/>
					</g>
					<g>
						<polygon class="st0" points="280.6,196.8 279,195.6 280.3,195.9 						"/>
					</g>
					<g>
						<polygon class="st0" points="300.6,160 302.8,161.6 301,162.2 						"/>
					</g>
					<g>
						<path class="st2" d="M276.9,187.7c0,9.4,6.6,13.2,14.7,8.5c8.1-4.7,14.7-16.1,14.7-25.5c0-9.4-6.6-13.2-14.7-8.5
							C283.5,166.8,276.9,178.3,276.9,187.7z M280,185.8c0-7.4,5.2-16.4,11.6-20.1s11.6-0.7,11.6,6.7c0,7.4-5.2,16.4-11.6,20.1
							C285.2,196.2,280,193.2,280,185.8z"/>
					</g>
				</g>
				<g>
					<polygon class="st2" points="292.2,188.9 294.3,186.5 300.6,190.2 296.7,192.2 					"/>
				</g>
				<g>
					<path class="st4" d="M292,188.6l5.8,3.3l-3.9,3.8l-7.2,3.3c0,0,0.4-3.2-2.6-6.8L292,188.6z"/>
				</g>
				<g>
					<g>
						<path class="st0" d="M225.4,157.5c0,9.4,6.6,13.2,14.7,8.5c8.1-4.7,14.7-16.1,14.7-25.5c0-9.4-6.6-13.2-14.7-8.5
							C232,136.7,225.4,148.1,225.4,157.5z M228.5,155.7c0-7.4,5.2-16.4,11.6-20.1c6.4-3.7,11.6-0.7,11.6,6.7
							c0,7.4-5.2,16.4-11.6,20.1C233.7,166.1,228.5,163.1,228.5,155.7z"/>
					</g>
					<g>
						<polygon class="st0" points="231.1,168.2 229.5,167 230.9,167.3 						"/>
					</g>
					<g>
						<polygon class="st0" points="251.1,131.3 253.3,133 251.5,133.5 						"/>
					</g>
					<g>
						<path class="st2" d="M227.4,159c0,9.4,6.6,13.2,14.7,8.5c8.1-4.7,14.7-16.1,14.7-25.5c0-9.4-6.6-13.2-14.7-8.5
							C234,138.2,227.4,149.6,227.4,159z M230.5,157.2c0-7.4,5.2-16.4,11.6-20.1c6.4-3.7,11.6-0.7,11.6,6.7
							c0,7.4-5.2,16.4-11.6,20.1C235.7,167.6,230.5,164.6,230.5,157.2z"/>
					</g>
				</g>
				<g>
					<polygon class="st2" points="242.7,160.2 244.8,157.9 251.1,161.6 247.2,163.5 					"/>
				</g>
				<g>
					<path class="st4" d="M242.5,160l5.8,3.4l-3.9,3.8l-7.2,3.2c0,0,0.3-3-2.7-6.6L242.5,160z"/>
				</g>
				<g>
					<g>
						<path class="st0" d="M237.2,164.4c0,9.4,6.6,13.2,14.7,8.5c8.1-4.7,14.7-16.1,14.7-25.5c0-9.4-6.6-13.2-14.7-8.5
							C243.8,143.6,237.2,155,237.2,164.4z M240.4,162.6c0-7.4,5.2-16.4,11.6-20.1c6.4-3.7,11.6-0.7,11.6,6.7
							c0,7.4-5.2,16.4-11.6,20.1C245.6,173,240.4,170,240.4,162.6z"/>
					</g>
					<g>
						<polygon class="st0" points="242.9,175 241.3,173.8 242.7,174.1 						"/>
					</g>
					<g>
						<polygon class="st0" points="262.9,138.2 265.2,139.8 263.3,140.4 						"/>
					</g>
					<g>
						<path class="st2" d="M239.2,165.9c0,9.4,6.6,13.2,14.7,8.5c8.1-4.7,14.7-16.1,14.7-25.5s-6.6-13.2-14.7-8.5
							C245.8,145,239.2,156.5,239.2,165.9z M242.4,164.1c0-7.4,5.2-16.4,11.6-20.1c6.4-3.7,11.6-0.7,11.6,6.7
							c0,7.4-5.2,16.4-11.6,20.1C247.6,174.5,242.4,171.5,242.4,164.1z"/>
					</g>
				</g>
				<g>
					<polygon class="st2" points="254.6,167.1 256.7,164.8 262.9,168.4 259,170.4 					"/>
				</g>
				<g>
					<path class="st4" d="M254.3,166.9l5.8,3.4l-3.9,3.8l-7.2,3.2c0,0,0.3-3.1-2.7-6.7L254.3,166.9z"/>
				</g>
				<g>
					<g>
						<path class="st0" d="M187.7,135.8c0,9.4,6.6,13.2,14.7,8.5c8.1-4.7,14.7-16.1,14.7-25.5s-6.6-13.2-14.7-8.5
							C194.3,114.9,187.7,126.4,187.7,135.8z M190.9,133.9c0-7.4,5.2-16.4,11.6-20.1c6.4-3.7,11.6-0.7,11.6,6.7
							c0,7.4-5.2,16.4-11.6,20.1C196.1,144.3,190.9,141.3,190.9,133.9z"/>
					</g>
					<g>
						<polygon class="st0" points="193.5,146.4 191.8,145.2 193.2,145.5 						"/>
					</g>
					<g>
						<polygon class="st0" points="213.5,109.5 215.7,111.2 213.9,111.7 						"/>
					</g>
					<g>
						<path class="st2" d="M189.8,137.2c0,9.4,6.6,13.2,14.7,8.5c8.1-4.7,14.7-16.1,14.7-25.5c0-9.4-6.6-13.2-14.7-8.5
							C196.4,116.4,189.8,127.8,189.8,137.2z M192.9,135.4c0-7.4,5.2-16.4,11.6-20.1c6.4-3.7,11.6-0.7,11.6,6.7s-5.2,16.4-11.6,20.1
							C198.1,145.8,192.9,142.8,192.9,135.4z"/>
					</g>
				</g>
				<g>
					<polygon class="st2" points="205.1,138.5 207.1,136.2 213.4,139.8 209.6,141.8 					"/>
				</g>
				<g>
					<path class="st4" d="M204.8,138.2l5.8,3.4l-3.8,3.7l-7.1,3.2c0,0,0.3-3.1-2.7-6.6L204.8,138.2z"/>
				</g>
				<g>
					<g>
						<path class="st0" d="M199.6,142.6c0,9.4,6.6,13.2,14.7,8.5c8.1-4.7,14.7-16.1,14.7-25.5c0-9.4-6.6-13.2-14.7-8.5
							C206.2,121.8,199.6,133.2,199.6,142.6z M202.7,140.8c0-7.4,5.2-16.4,11.6-20.1c6.4-3.7,11.6-0.7,11.6,6.7
							c0,7.4-5.2,16.4-11.6,20.1C207.9,151.2,202.7,148.2,202.7,140.8z"/>
					</g>
					<g>
						<polygon class="st0" points="205.3,153.2 203.7,152 205.1,152.3 						"/>
					</g>
					<g>
						<polygon class="st0" points="225.3,116.4 227.6,118 225.7,118.6 						"/>
					</g>
					<g>
						<path class="st2" d="M201.6,144.1c0,9.4,6.6,13.2,14.7,8.5c8.1-4.7,14.7-16.1,14.7-25.5c0-9.4-6.6-13.2-14.7-8.5
							S201.6,134.7,201.6,144.1z M204.8,142.3c0-7.4,5.2-16.4,11.6-20.1c6.4-3.7,11.6-0.7,11.6,6.7c0,7.4-5.2,16.4-11.6,20.1
							C209.9,152.7,204.8,149.7,204.8,142.3z"/>
					</g>
				</g>
				<g>
					<polygon class="st2" points="216.9,145.3 219,143 225.3,146.6 221.4,148.6 					"/>
				</g>
				<g>
					<path class="st4" d="M216.6,145.1l5.8,3.3l-3.8,3.8l-7.1,3.2c0,0,0.4-3.2-2.7-6.6L216.6,145.1z"/>
				</g>
				<g>
					<g>
						<path class="st0" d="M150.1,114c0,9.4,6.6,13.2,14.7,8.5c8.1-4.7,14.7-16.1,14.7-25.5s-6.6-13.2-14.7-8.5
							C156.7,93.1,150.1,104.6,150.1,114z M153.2,112.2c0-7.4,5.2-16.4,11.6-20.1c6.4-3.7,11.6-0.7,11.6,6.7
							c0,7.4-5.2,16.4-11.6,20.1C158.4,122.6,153.2,119.6,153.2,112.2z"/>
					</g>
					<g>
						<polygon class="st0" points="155.8,124.6 154.2,123.4 155.6,123.7 						"/>
					</g>
					<g>
						<polygon class="st0" points="175.8,87.7 178.1,89.4 176.2,89.9 						"/>
					</g>
					<g>
						<path class="st2" d="M152.1,115.5c0,9.4,6.6,13.2,14.7,8.5c8.1-4.7,14.7-16.1,14.7-25.5c0-9.4-6.6-13.2-14.7-8.5
							C158.7,94.6,152.1,106.1,152.1,115.5z M155.3,113.6c0-7.4,5.2-16.4,11.6-20.1c6.4-3.7,11.6-0.7,11.6,6.7
							c0,7.4-5.2,16.4-11.6,20.1C160.5,124,155.3,121,155.3,113.6z"/>
					</g>
				</g>
				<g>
					<polygon class="st2" points="167.4,116.7 169.5,114.4 175.7,118 171.9,120 					"/>
				</g>
				<g>
					<path class="st4" d="M167.1,116.5l5.8,3.3l-3.7,3.7l-7.1,3.2c0,0,0.3-3.2-2.8-6.6L167.1,116.5z"/>
				</g>
				<g>
					<g>
						<path class="st0" d="M161.9,120.8c0,9.4,6.6,13.2,14.7,8.5c8.1-4.7,14.7-16.1,14.7-25.5c0-9.4-6.6-13.2-14.7-8.5
							C168.5,100,161.9,111.4,161.9,120.8z M165.1,119c0-7.4,5.2-16.4,11.6-20.1c6.4-3.7,11.6-0.7,11.6,6.7
							c0,7.4-5.2,16.4-11.6,20.1C170.3,129.4,165.1,126.4,165.1,119z"/>
					</g>
					<g>
						<polygon class="st0" points="167.7,131.4 166,130.2 167.4,130.6 						"/>
					</g>
					<g>
						<polygon class="st0" points="187.7,94.6 189.9,96.2 188.1,96.8 						"/>
					</g>
					<g>
						<path class="st2" d="M164,122.3c0,9.4,6.6,13.2,14.7,8.5c8.1-4.7,14.7-16.1,14.7-25.5c0-9.4-6.6-13.2-14.7-8.5
							C170.6,101.5,164,112.9,164,122.3z M167.1,120.5c0-7.4,5.2-16.4,11.6-20.1c6.4-3.7,11.6-0.7,11.6,6.7
							c0,7.4-5.2,16.4-11.6,20.1C172.3,130.9,167.1,127.9,167.1,120.5z"/>
					</g>
				</g>
				<g>
					<polygon class="st2" points="179.3,123.5 181.3,121.3 187.6,124.9 183.8,126.8 					"/>
				</g>
				<g>
					<path class="st4" d="M178.9,123.3l5.8,3.4l-3.7,3.7l-7.1,3.3c0,0,0.3-3.3-2.8-6.7L178.9,123.3z"/>
				</g>
				<g>
					<g>
						<path class="st0" d="M387.8,251.5c0,9.4,6.6,13.2,14.7,8.5c8.1-4.7,14.7-16.1,14.7-25.5c0-9.4-6.6-13.2-14.7-8.5
							C394.4,230.6,387.8,242.1,387.8,251.5z M390.9,249.7c0-7.4,5.2-16.4,11.6-20.1c6.4-3.7,11.6-0.7,11.6,6.7
							c0,7.4-5.2,16.4-11.6,20.1C396.1,260.1,390.9,257.1,390.9,249.7z"/>
					</g>
					<g>
						<polygon class="st0" points="393.5,262.1 391.8,260.9 393.2,261.2 						"/>
					</g>
					<g>
						<polygon class="st0" points="413.5,225.3 415.7,226.9 413.9,227.4 						"/>
					</g>
					<g>
						<path class="st2" d="M389.8,253c0,9.4,6.6,13.2,14.7,8.5c8.1-4.7,14.7-16.1,14.7-25.5c0-9.4-6.6-13.2-14.7-8.5
							C396.4,232.1,389.8,243.6,389.8,253z M392.9,251.1c0-7.4,5.2-16.4,11.6-20.1c6.4-3.7,11.6-0.7,11.6,6.7
							c0,7.4-5.2,16.4-11.6,20.1C398.1,261.5,392.9,258.5,392.9,251.1z"/>
					</g>
				</g>
				<g>
					<polygon class="st2" points="418.1,311.9 421,310.2 421,305.2 418.1,307 					"/>
				</g>
				<g>
					<path class="st2" d="M405.1,254.2l2.2-2.4c0,0,4.6,2.4,6.1,3.9l-3.8,1.8L405.1,254.2z"/>
				</g>
				<g>
					<path class="st4" d="M405,253.9c0,0,4.8,2.4,7,5.1c2.2,2.7-12.5,5.4-12.5,5.4s0.5-3.2-2.5-6.8L405,253.9z"/>
				</g>
			</g>
		</g>
	</g>
</g>
</svg>
