<?xml version="1.0" encoding="utf-8"?>
<!-- Generator: Adobe Illustrator 19.0.0, SVG Export Plug-In . SVG Version: 6.00 Build 0)  -->
<svg version="1.1" id="Ñëîé_1" xmlns="http://www.w3.org/2000/svg" xmlns:xlink="http://www.w3.org/1999/xlink" x="0px" y="0px"
	 viewBox="0 0 600 600" style="enable-background:new 0 0 600 600;" xml:space="preserve">
<style type="text/css">
	.st0{opacity:0.2;fill:#173D7A;}
	.st1{opacity:0.5;fill:#D4ECFF;}
	.st2{fill:#43B0F9;}
	.st3{fill:#1EAAF7;}
	.st4{fill:#00B1FF;}
	.st5{fill:#6EBDFF;}
	.st6{fill:#D4ECFF;}
	.st7{fill:#983BE9;}
	.st8{fill:#5793CE;}
	.st9{fill:#FFFFFF;}
</style>
<g>
	<path class="st0" d="M92.9,243.9c1.2,3.9,3,7.8,5.5,11.6c-28.8,24.3-24.6,57.7,12.8,79.2c42.1,24.3,110.5,24.3,152.6,0
		c31.1-17.9,39.2-44.1,24.5-66.3c4.2-3.6,7.7-7.4,10.5-11.3c26.9,26.1,23.9,59.6-8.9,84l35,20.5c13.2-4.7,29.5-4.4,39.5,1.4
		l127.1,73.4c12,6.9,10.5,19.1-3.4,27.1c-13.9,8-34.9,8.9-46.9,1.9L313.9,392c-9.1-5.3-10.4-13.5-4.5-20.7l-35.3-20.6
		c-50.9,26.7-129.6,25.9-178.7-2.4C45.7,319.5,44.9,273.2,92.9,243.9z"/>
	<g>
		<g>
			<path class="st1" d="M106.9,177.7c45.9-26.5,120.4-26.5,166.3,0c19,11,30.2,24.8,33.4,39.1c-2.9,12.6-11.9,24.9-27,35.1
				c-3.8-3.1-8-6.1-12.8-8.8c-45.9-26.5-120.4-26.5-166.3,0c-2.3,1.3-4.4,2.7-6.4,4c-11.3-9.2-18.1-19.6-20.6-30.3
				C76.8,202.5,87.9,188.7,106.9,177.7z"/>
			<path class="st2" d="M309.5,238l-17.9-23.4L237,189.3l-46.9-4.2l-55,6.7L97,211.6l-24.4,15.5l-4.4-25.3l8.2-29.2
				c0,0,20.8-13.8,22.1-15.1c1.3-1.3,48.7-18.3,48.7-18.3l47.4-3.2l38.1,4.8l38.8,11.5l25.6,17.9l19.2,24.4l2.2,30.4L309.5,238z"/>
			<polygon class="st3" points="55.1,208 55.1,257.2 68.2,235.9 			"/>
			<path class="st4" d="M273.3,210.5c-45.9-26.5-120.4-26.5-166.3,0c-14.4,8.3-24.3,18.3-29.7,28.9c-4-3.6-9.3-6.5-11.4-11.3
				c6.6-9,16.2-17.4,28.8-24.7c52.7-30.4,138.2-30.4,191,0c11.5,6.7,20.6,14.2,27,22.3c-2.1,5-5.3,9.8-9.6,13.7
				C297.6,228.9,287.7,218.9,273.3,210.5z"/>
			<path class="st1" d="M106.9,177.7c45.9-26.5,120.4-26.5,166.3,0c19,11,30.2,24.8,33.4,39.1c-3.3,14.3-14.4,28.1-33.4,39.1
				c-45.9,26.5-120.4,26.5-166.3,0c-19-11-30.2-24.8-33.4-39.1C76.8,202.5,87.9,188.7,106.9,177.7z"/>
			<path class="st2" d="M65.8,228.1c0.9,2.1,2.4,3.8,4.1,5.3l0-0.5l12.2,7.3l15,13.9l20.7,9.2l28.6,10.3l25.4,6l35,1.5l22.6-2.4
				l44.9-11.8l29.2-25.9c-0.2-0.5-0.4-1-0.7-1.6c4.3-4,7.5-8.8,9.6-13.7c0.8,1,1.5,2,2.3,3l10.3-21.4v51.2l0,0
				c0,20-13.1,39.9-39.5,55.2c-52.7,30.4-138.2,30.4-191,0C54.5,290.5,44.9,256.5,65.8,228.1z"/>
			<path class="st5" d="M293.1,250.3l10.5-9.3c-0.2-0.5-0.4-1-0.7-1.6c4.3-4,7.5-8.8,9.6-13.7c0.8,1,1.5,2,2.3,3l10.3-21.4v51.2l0,0
				c0,17.9-10.7,35.9-32,50.4V250.3z"/>
			<path class="st5" d="M94.6,263.1c52.7,30.4,138.2,30.4,191,0c52.7-30.4,52.7-79.8,0-110.3c-52.7-30.4-138.2-30.4-191,0
				S41.9,232.6,94.6,263.1z M106.9,159.9c45.9-26.5,120.4-26.5,166.3,0c45.9,26.5,45.9,69.5,0,96c-45.9,26.5-120.4,26.5-166.3,0
				C61,229.5,61,186.5,106.9,159.9z"/>
			<g>
				<g>
					<polygon class="st6" points="373.9,319 299.1,275.4 289.1,291.5 364.3,335.3 					"/>
					<path class="st7" d="M362.4,331c0,4.3,3,6,6.7,3.9c3.7-2.1,6.7-7.3,6.7-11.6c0-4.3-3-6-6.7-3.9
						C365.4,321.5,362.4,326.7,362.4,331z"/>
					<path class="st7" d="M362.4,331c0,4.3,3,6,6.7,3.9c3.7-2.1,6.7-7.3,6.7-11.6c0-4.3-3-6-6.7-3.9
						C365.4,321.5,362.4,326.7,362.4,331z"/>
					<path class="st6" d="M287.5,287.4c0,4.3,3,6,6.7,3.9s6.7-7.3,6.7-11.6c0-4.3-3-6-6.7-3.9C290.5,278,287.5,283.2,287.5,287.4z"
						/>
				</g>
				<path class="st8" d="M325.6,334.2c0-18.4,12.9-40.8,28.9-50c8.2-4.7,15.5-5,20.8-1.8l0,0l158.2,92l-41.3,70.4l-156.6-91.1
					c-1.1-0.5-2.1-1-3-1.8l-0.1-0.1l0,0C328.1,348.4,325.6,342.4,325.6,334.2z"/>
				<path class="st6" d="M522,393.8L344.9,291.6c3-2.9,6.2-5.5,9.5-7.4c8.2-4.7,15.5-5,20.8-1.8l0,0l158.2,92L522,393.8z"/>
				<g>
					<path class="st6" d="M483.9,426.2c0,18.4,12.9,25.9,28.9,16.7c15.9-9.2,28.9-31.6,28.9-50c0-18.4-12.9-25.9-28.9-16.7
						C496.8,385.4,483.9,407.8,483.9,426.2z"/>
					<circle class="st8" cx="526.1" cy="417.6" r="18.8"/>
					<circle class="st9" cx="535.1" cy="410.7" r="5.6"/>
				</g>
				<path class="st9" d="M510.6,375c8.5-4.9,16.2-5,21.5-1.3c-5.1-2.4-11.9-1.8-19.3,2.5c-15.9,9.2-28.9,31.6-28.9,50
					c0,8.6,2.8,14.7,7.4,18c-5.8-2.7-9.5-9.4-9.5-19.2C481.8,406.5,494.7,384.2,510.6,375z"/>
			</g>
			<g>
				<path class="st9" d="M106.9,159.9c45.9-26.5,120.4-26.5,166.3,0c23.9,13.8,35.4,32.1,34.4,50.2c-0.9-16.7-12.3-33.1-34.4-45.9
					c-45.9-26.5-120.4-26.5-166.3,0c-22,12.7-33.4,29.2-34.4,45.9C71.6,192,83,173.8,106.9,159.9z"/>
				<path class="st9" d="M94.6,263.1c52.7,30.4,138.2,30.4,191,0c25.4-14.7,38.5-33.7,39.5-53c1,20.7-12.1,41.5-39.5,57.3
					c-52.7,30.4-138.2,30.4-191,0c-27.3-15.8-40.4-36.6-39.5-57.3C56.1,229.3,69.2,248.4,94.6,263.1z"/>
			</g>
		</g>
	</g>
</g>
</svg>
