<?xml version="1.0" encoding="utf-8"?>
<!-- Generator: Adobe Illustrator 19.0.0, SVG Export Plug-In . SVG Version: 6.00 Build 0)  -->
<svg version="1.1" id="Ñëîé_1" xmlns="http://www.w3.org/2000/svg" xmlns:xlink="http://www.w3.org/1999/xlink" x="0px" y="0px"
	 viewBox="2 120.9 600 600" style="enable-background:new 2 120.9 600 600;" xml:space="preserve">
<style type="text/css">
	.st0{opacity:0.2;fill:#173D7A;enable-background:new    ;}
	.st1{fill:url(#SVGID_1_);}
	.st2{fill:#D4ECFF;}
	.st3{fill:url(#SVGID_2_);}
	.st4{fill:#FFFFFF;}
	.st5{fill:url(#SVGID_3_);}
	.st6{fill:#173D7A;}
	.st7{fill:#5793CE;}
	.st8{fill:#43B0F9;}
	.st9{fill:#6EBDFF;}
</style>
<path class="st0" d="M96.6,453.9l275.8,161.3c2.3,1.3,5.1,1.4,7.4,0.1l169.5-95.1c5-2.8,5.1-10,0.2-12.9L256.4,333.4
	c-2.5-1.5-5.7-1.4-8.1,0.3L96.1,441.4C91.6,444.5,91.9,451.1,96.6,453.9z"/>
<g>
	<g>
		<linearGradient id="SVGID_1_" gradientUnits="userSpaceOnUse" x1="36.2734" y1="422.6736" x2="242.6156" y2="422.6736">
			<stop  offset="0" style="stop-color:#699DD1"/>
			<stop  offset="1" style="stop-color:#173D7A"/>
		</linearGradient>
		<polygon class="st1" points="72.4,471.8 242.6,373.5 50.8,382.6 38.9,394 36.3,411.1 38.2,422.7 43.9,436.8 49.6,447.8 56,456.1 
					"/>
		<path class="st2" d="M215.5,283.9c0.3-0.2,0.6-0.3,0.9-0.5l0.1,0h0c6.8-3.6,16-3,26.2,2.9l232.5,134.2c-1,0.7-1.9,1.6-2.7,2.6
			l-8.8-5.1l-47,102.2l-24.3,33.2l-15.9,5.5l-15.9-6.2l-77.3-43.9l-153.3-87.6l-56.2-33.8l-14.7-4.7l-13.2-0.8L215.5,283.9z"/>
		<g>
			<linearGradient id="SVGID_2_" gradientUnits="userSpaceOnUse" x1="45.7367" y1="418.5733" x2="475.0721" y2="418.5733">
				<stop  offset="0" style="stop-color:#E9F6FF"/>
				<stop  offset="1" style="stop-color:#D4ECFF"/>
			</linearGradient>
			<path class="st3" d="M399.2,533.7c0-24.1-17-53.4-37.8-65.5v4.1c18.9,10.9,34.2,37.5,34.2,59.2c0,21.8-15.3,30.6-34.2,19.7
				L72.4,384.6c-10.4-6-19.9-6.6-26.7-2.6l169.7-98c0.3-0.2,0.6-0.3,0.9-0.5l0.1,0h0c6.8-3.6,16-3,26.2,2.9l232.5,134.2
				c-1,0.7-1.9,1.6-2.7,2.6l-8.8-5.1l-47,102.2l-19.5,26.6C398.4,543.1,399.2,538.7,399.2,533.7z"/>
			<path class="st2" d="M45.7,381.9L45.7,381.9L45.7,381.9C45.7,381.9,45.7,381.9,45.7,381.9z"/>
		</g>
		<g>
			<g>
				<path class="st4" d="M399.2,531.4c0,0.4,0,0.8,0,1.2c-0.2-12-4.6-25.2-11.5-36.9c0.3-0.2,0.6-0.4,1-0.6
					C395.1,506.7,399.2,519.7,399.2,531.4z"/>
				<path class="st4" d="M72.4,382.3l288.9,166.8c18.4,10.6,33.5,2.4,34.2-18.2c0,0.3,0,0.5,0,0.8c0,21.8-15.3,30.6-34.2,19.7
					L72.4,384.6c-10.4-6-19.9-6.6-26.7-2.6l8.2-4.7C59.4,376.8,65.7,378.4,72.4,382.3z"/>
				<path class="st4" d="M416.5,517.9l47-102.2l8.8,5.1c0.4-0.4,0.7-0.8,1.1-1.2l1.6,0.9c-1,0.7-1.9,1.6-2.7,2.6l-8.8-5.1l-47,102.2
					l-19.5,26.6c0.4-1.2,0.8-2.4,1.1-3.8L416.5,517.9z"/>
			</g>
			<path class="st2" d="M45.7,379.7L45.7,379.7L45.7,379.7C45.7,379.6,45.7,379.6,45.7,379.7z"/>
		</g>
		<linearGradient id="SVGID_3_" gradientUnits="userSpaceOnUse" x1="361.3841" y1="464.0402" x2="569.3518" y2="464.0402">
			<stop  offset="0" style="stop-color:#699DD1"/>
			<stop  offset="1" style="stop-color:#173D7A"/>
		</linearGradient>
		<path class="st5" d="M531.6,369.9L531.6,369.9c20.8,12,37.8,41.4,37.8,65.5c0,11.6-4,19.9-10.4,24l0,0l-0.1,0.1
			c-0.4,0.2-0.8,0.5-1.2,0.7l-169.6,98l10.4-18.8l-1.2-18.7l-3.3-10.5l-5-11.2c0,0-4.1-7.7-4.4-7.9c-0.3-0.2-6.1-7.8-6.1-7.8l-5.7-6
			l-6.2-4l-5.2-5.1L531.6,369.9z"/>
		<g>
			<path class="st6" d="M72.4,471.8v-4.1c-18.9-10.9-34.2-37.5-34.2-59.2c0-21.8,15.3-30.6,34.2-19.7l288.9,166.8
				c20.8,12,37.8,2.2,37.8-21.8c0-24.1-17-53.4-37.8-65.5v4.1c18.9,10.9,34.2,37.5,34.2,59.2c0,21.8-15.3,30.6-34.2,19.7L72.4,384.6
				c-20.8-12-37.8-2.2-37.8,21.8C34.6,430.4,51.6,459.8,72.4,471.8z"/>
		</g>
	</g>
	<g>
		<polygon class="st7" points="341.8,443.8 213.3,368.8 208.3,371.7 336.9,446.6 		"/>
		<polygon class="st7" points="339.6,417.6 234.9,356.5 229.9,359.3 334.7,420.4 		"/>
		<polygon class="st7" points="321.4,419.4 224.1,362.7 219.1,365.5 316.5,422.2 		"/>
		<polygon class="st7" points="352.6,437.6 328.8,423.7 323.9,426.6 347.7,440.4 		"/>
	</g>
	<g>
		<g>
			<path class="st8" d="M272.4,436.7v-11.8H269c-3.1-5.3-8.2-10.2-15.4-14.4c-25.1-14.5-65.8-14.5-90.9,0
				c-7.3,4.2-12.4,9.2-15.4,14.4h-3.4v11.7h0c0,9.5,6.2,19.1,18.8,26.3c25.1,14.5,65.8,14.5,90.9,0
				C266.1,455.7,272.4,446.2,272.4,436.7z"/>
			<path class="st9" d="M253.6,451.1c-25.1,14.5-65.8,14.5-90.9,0c-25.1-14.5-25.1-38,0-52.5c25.1-14.5,65.8-14.5,90.9,0
				C278.7,413.1,278.7,436.6,253.6,451.1z"/>
			<path class="st4" d="M253.6,451.1c-25.1,14.5-65.8,14.5-90.9,0c-12-6.9-18.2-16-18.7-25.1c-0.5,9.9,5.7,19.9,18.7,27.4
				c25.1,14.5,65.8,14.5,90.9,0c13.1-7.5,19.3-17.5,18.7-27.4C271.8,435.1,265.6,444.2,253.6,451.1z"/>
		</g>
		<g>
			<path class="st4" d="M177.1,437.2c-1.1-0.6-1.7-1.5-1.7-2.4l0.1-24.2c0-1.8,2.6-3.3,5.8-3.3c3.2,0,5.8,1.5,5.8,3.3l-0.1,20.1
				l58.2-7.1c3.1-0.4,6.2,0.8,6.9,2.6c0.7,1.8-1.3,3.6-4.5,4l-65.2,8c-1.7,0.2-3.5,0-4.8-0.7C177.4,437.3,177.3,437.2,177.1,437.2z"
				/>
		</g>
	</g>
</g>
</svg>
