<?xml version="1.0" encoding="utf-8"?>
<!-- Generator: Adobe Illustrator 19.0.0, SVG Export Plug-In . SVG Version: 6.00 Build 0)  -->
<svg version="1.1" id="Ñëîé_1" xmlns="http://www.w3.org/2000/svg" xmlns:xlink="http://www.w3.org/1999/xlink" x="0px" y="0px"
	 viewBox="2 120.9 600 600" style="enable-background:new 2 120.9 600 600;" xml:space="preserve">
<style type="text/css">
	.st0{fill:#149FED;}
	.st1{fill:#98D2F9;}
	.st2{fill:#0B99D8;}
	.st3{fill:#6EBDFF;}
	.st4{fill:#43B0F9;}
	.st5{fill:#FFFFFF;}
	.st6{opacity:0.2;fill:#173D7A;enable-background:new    ;}
</style>
<g>
	<g>
		<path class="st0" d="M425.4,479.7V310.2l-62.9-44.1c-31.7-22.3-63.8-40.8-95.5-55.1L204,182.4l-25.4,14.9l28.1,20.4v132.7
			c0,0-3.5,108.1,110.7,232.9c14.7,0.9,27.4-0.2,38.4-2.7l-1.9,6.1l22.3-13.2c1.9-1,3.8-2.1,5.6-3.3l0.3-0.2l0,0
			C427.2,540.9,425.4,479.7,425.4,479.7z"/>
		<path class="st1" d="M314.6,235.5c-15.9-9.2-31.8-17.4-47.6-24.6L204,182.4l-25.4,14.9l28.1,20.4v80.1L314.6,235.5z"/>
		<path class="st2" d="M292.7,223.5l-53,30.6l43.7,25.2l53-30.6C321.8,239.5,307.2,231.1,292.7,223.5z"/>
		<path class="st3" d="M400,494.5V325.1L337.1,281c-31.7-22.3-63.8-40.8-95.5-55.1l-62.9-28.5v169.5c0,0-3.5,108.1,110.7,232.9
			C403.4,606.7,400,494.5,400,494.5z"/>
		<path class="st4" d="M356.1,561.3c-13.7,13.3-33.2,20-58.1,19.7C196.5,466.7,197.6,368.3,197.6,367.4l0-140.6l36.1,16.4
			c30.6,13.9,61.7,31.9,92.5,53.4L381,335v159.6l0,0.6C381,495.5,381.5,536.7,356.1,561.3z"/>
		<g>
			<path class="st5" d="M299,413.5c0,3.2,2.2,7,5,8.6c2.7,1.6,5,0.3,5-2.9c0-3.2-2.2-7-5-8.6C301.2,409,299,410.3,299,413.5z"/>
			<path class="st5" d="M283,404.2c0,3.2,2.2,7,5,8.6c2.7,1.6,5,0.3,5-2.9c0-3.2-2.2-7-5-8.6C285.3,399.8,283,401.1,283,404.2z"/>
			<path class="st5" d="M267,395c0,3.2,2.2,7,5,8.6c2.7,1.6,5,0.3,5-2.9c0-3.2-2.2-7-5-8.6C269.3,390.6,267,391.8,267,395z"/>
		</g>
	</g>
	<ellipse class="st6" cx="304" cy="639.3" rx="106.6" ry="20"/>
</g>
</svg>
