<?xml version="1.0" encoding="utf-8"?>
<!-- Generator: Adobe Illustrator 19.0.0, SVG Export Plug-In . SVG Version: 6.00 Build 0)  -->
<svg version="1.1" id="Ñëîé_1" xmlns="http://www.w3.org/2000/svg" xmlns:xlink="http://www.w3.org/1999/xlink" x="0px" y="0px"
	 viewBox="0 0 600 600" style="enable-background:new 0 0 600 600;" xml:space="preserve">
<style type="text/css">
	.st0{fill:#D4ECFF;}
	.st1{fill:#396CAA;}
	.st2{fill:#5793CE;}
	.st3{fill:#FAFDFF;}
	.st4{fill:#173D7A;}
	.st5{fill:#FFFFFF;}
	.st6{opacity:0.4;fill:#D4ECFF;}
	.st7{fill:#D3008D;}
	.st8{fill:#FF2C9C;}
	.st9{fill:#ABD6F4;}
	.st10{fill:#EFEFEF;}
</style>
<g>
	<g>
		<g>
			<g>
				<path class="st0" d="M191.2,379.7l84.3-48.1c3.1-1.8,2.7-4.9-0.9-6.9l-48.5-28c-3.6-2.1-8.9-2.3-12-0.5l-84.3,48.1
					c-3.1,1.8-2.7,4.9,0.9,6.9l48.5,28C182.8,381.3,188.1,381.5,191.2,379.7z"/>
				<path class="st1" d="M122.3,328.1L122.3,328.1V131.3l78.2-20.5l14.4-8.3c3.3-1.9,9.1-1.7,12.9,0.5l13.4,7.8l41.7,0l-12.4,190
					c0.1,1.3-0.6,2.5-2.2,3.5l-78.1,58.9c-3.3,1.9-9.1,1.7-12.9-0.5l-52-30C123.3,331.3,122.2,329.7,122.3,328.1z"/>
				<path class="st0" d="M220.9,101.2c2.4,0.1,4.9,0.7,6.9,1.8l13.4,7.8l41.7,0v197.3c0.1,1.3-0.6,2.5-2.2,3.5l-90.4,51.6
					c-1.6,0.9-3.7,1.3-6,1.3l-0.9-198.6L220.9,101.2z"/>
				<path class="st2" d="M189.6,363.6c-2.9,1.2-7,1.2-10.3-0.1V163.5h10.3V363.6z"/>
				<path class="st0" d="M190.4,165.9l90.4-51.6c3.3-1.9,2.9-5.2-0.9-7.4l-52-30c-3.8-2.2-9.6-2.4-12.9-0.5l-90.4,51.6
					c-3.3,1.9-2.9,5.2,0.9,7.4l52,30C181.3,167.6,187.1,167.8,190.4,165.9z"/>
				<path class="st3" d="M125.5,131.6l52,30c3.8,2.2,9.6,2.4,12.9,0.5l90.4-51.6c0.7-0.4,1.3-0.9,1.7-1.5c1.1,1.8,0.6,3.8-1.7,5.1
					l-90.4,51.6c-3.3,1.9-9.1,1.7-12.9-0.5l-52-30c-3-1.7-3.9-4.1-2.6-6C123.4,130.2,124.3,131,125.5,131.6z"/>
				<g>
					<path class="st4" d="M187.8,145l60.2-34.9c1.5-0.9,1.4-2.5-0.4-3.5l-24.3-14.1c-1.8-1-4.5-1.1-6-0.3L157,127.2
						c-1.5,0.9-1.4,2.5,0.4,3.5l24.3,14.1C183.6,145.8,186.3,145.9,187.8,145z"/>
					<g>
						<path class="st0" d="M220.3,111.6l3.5-2c0.2-0.1,0.2-0.3-0.1-0.5l-3.4-1.9c-0.2-0.1-0.6-0.2-0.8,0l-3.5,2
							c-0.2,0.1-0.2,0.3,0.1,0.5l3.4,1.9C219.8,111.8,220.1,111.8,220.3,111.6z"/>
						<path class="st0" d="M208.7,118.4l3.5-2c0.2-0.1,0.2-0.3-0.1-0.5l-3.4-1.9c-0.2-0.1-0.6-0.2-0.8,0l-3.5,2
							c-0.2,0.1-0.2,0.3,0.1,0.5l3.4,1.9C208.1,118.5,208.5,118.5,208.7,118.4z"/>
						<path class="st0" d="M197,125.1l3.5-2c0.2-0.1,0.2-0.3-0.1-0.5l-3.4-1.9c-0.2-0.1-0.6-0.2-0.8,0l-3.5,2
							c-0.2,0.1-0.2,0.3,0.1,0.5l3.4,1.9C196.4,125.2,196.8,125.2,197,125.1z"/>
						<path class="st0" d="M185.4,131.8l3.5-2c0.2-0.1,0.2-0.3-0.1-0.5l-3.4-1.9c-0.2-0.1-0.6-0.2-0.8,0l-3.5,2
							c-0.2,0.1-0.2,0.3,0.1,0.5l3.4,1.9C184.8,131.9,185.2,131.9,185.4,131.8z"/>
					</g>
					<path class="st2" d="M248,110.1L248,110.1c-0.2,0-0.3-0.1-0.4-0.2l-24.3-14.1c-1.8-1-4.5-1.1-6-0.3l-60.1,34.9
						c-1.4-1-1.5-2.4-0.1-3.2l60.2-34.9c1.5-0.9,4.3-0.8,6,0.3l24.3,14.1C249.4,107.6,249.6,109.2,248,110.1z"/>
				</g>
			</g>
			<g>
				<path class="st4" d="M167.3,204.9l-34.2-19.6c-1.9-1.1-3.5-4.1-3.5-6.7v-12.2c0-2.6,1.6-3.7,3.5-2.6l34.2,19.6
					c1.9,1.1,3.5,4.1,3.5,6.7v12.2C170.8,204.8,169.3,206,167.3,204.9z"/>
				<path class="st5" d="M131.4,163.4c-0.5,0.5-0.9,1.4-0.9,2.5v12.2c0,2.6,1.6,5.6,3.5,6.7l34.2,19.6c0.6,0.4,1.2,0.5,1.7,0.4
					c-0.6,0.6-1.6,0.7-2.6,0.1l-34.2-19.6c-1.9-1.1-3.5-4.1-3.5-6.7v-12.2C129.6,164.6,130.3,163.5,131.4,163.4z"/>
				<g>
					<path class="st1" d="M157,191.6l-3.1-1.8c-0.4-0.2-0.8-0.9-0.8-1.5V185c0-0.6,0.3-0.8,0.8-0.6l3.1,1.8c0.4,0.2,0.8,0.9,0.8,1.5
						v3.4C157.8,191.6,157.5,191.8,157,191.6z"/>
					<path class="st5" d="M146.5,185.5l-3.1-1.8c-0.4-0.2-0.8-0.9-0.8-1.5v-3.4c0-0.6,0.3-0.8,0.8-0.6l3.1,1.8
						c0.4,0.2,0.8,0.9,0.8,1.5v3.4C147.3,185.5,147,185.8,146.5,185.5z"/>
				</g>
			</g>
			<g>
				<path class="st4" d="M167.3,293.3l-34.2-19.6c-1.9-1.1-3.5-4.1-3.5-6.7v-12.2c0-2.6,1.6-3.7,3.5-2.6l34.2,19.6
					c1.9,1.1,3.5,4.1,3.5,6.7v12.2C170.8,293.3,169.3,294.4,167.3,293.3z"/>
				<path class="st5" d="M131.4,251.8c-0.5,0.5-0.9,1.4-0.9,2.5v12.2c0,2.6,1.6,5.6,3.5,6.7l34.2,19.6c0.6,0.4,1.2,0.5,1.7,0.4
					c-0.6,0.6-1.6,0.7-2.6,0.1l-34.2-19.6c-1.9-1.1-3.5-4.1-3.5-6.7v-12.2C129.6,253.1,130.3,252,131.4,251.8z"/>
				<g>
					<path class="st1" d="M157,280l-3.1-1.8c-0.4-0.2-0.8-0.9-0.8-1.5v-3.4c0-0.6,0.3-0.8,0.8-0.6l3.1,1.8c0.4,0.2,0.8,0.9,0.8,1.5
						v3.4C157.8,280,157.5,280.3,157,280z"/>
					<path class="st5" d="M146.5,274l-3.1-1.8c-0.4-0.2-0.8-0.9-0.8-1.5v-3.4c0-0.6,0.3-0.8,0.8-0.6l3.1,1.8
						c0.4,0.2,0.8,0.9,0.8,1.5v3.4C147.3,274,147,274.2,146.5,274z"/>
				</g>
			</g>
			<g>
				<path class="st4" d="M167.3,337.6L133.1,318c-1.9-1.1-3.5-4.1-3.5-6.7v-12.2c0-2.6,1.6-3.7,3.5-2.6l34.2,19.6
					c1.9,1.1,3.5,4.1,3.5,6.7v12.2C170.8,337.5,169.3,338.7,167.3,337.6z"/>
				<path class="st5" d="M131.4,296.1c-0.5,0.5-0.9,1.4-0.9,2.5v12.2c0,2.6,1.6,5.6,3.5,6.7l34.2,19.6c0.6,0.4,1.2,0.5,1.7,0.4
					c-0.6,0.6-1.6,0.7-2.6,0.1L133.1,318c-1.9-1.1-3.5-4.1-3.5-6.7v-12.2C129.6,297.3,130.3,296.2,131.4,296.1z"/>
				<g>
					<path class="st1" d="M157,324.3l-3.1-1.8c-0.4-0.2-0.8-0.9-0.8-1.5v-3.4c0-0.6,0.3-0.8,0.8-0.6l3.1,1.8
						c0.4,0.2,0.8,0.9,0.8,1.5v3.4C157.8,324.3,157.5,324.5,157,324.3z"/>
					<path class="st5" d="M146.5,318.2l-3.1-1.8c-0.4-0.2-0.8-0.9-0.8-1.5v-3.4c0-0.6,0.3-0.8,0.8-0.6l3.1,1.8
						c0.4,0.2,0.8,0.9,0.8,1.5v3.4C147.3,318.2,147,318.5,146.5,318.2z"/>
				</g>
			</g>
			<g>
				<path class="st4" d="M167.3,249.1l-34.2-19.6c-1.9-1.1-3.5-4.1-3.5-6.7v-12.2c0-2.6,1.6-3.7,3.5-2.6l34.2,19.6
					c1.9,1.1,3.5,4.1,3.5,6.7v12.2C170.8,249,169.3,250.2,167.3,249.1z"/>
				<path class="st5" d="M131.4,207.6c-0.5,0.5-0.9,1.4-0.9,2.5v12.2c0,2.6,1.6,5.6,3.5,6.7l34.2,19.6c0.6,0.4,1.2,0.5,1.7,0.4
					c-0.6,0.6-1.6,0.7-2.6,0.1l-34.2-19.6c-1.9-1.1-3.5-4.1-3.5-6.7v-12.2C129.6,208.9,130.3,207.8,131.4,207.6z"/>
				<g>
					<path class="st1" d="M157,235.8l-3.1-1.8c-0.4-0.2-0.8-0.9-0.8-1.5v-3.4c0-0.6,0.3-0.8,0.8-0.6l3.1,1.8
						c0.4,0.2,0.8,0.9,0.8,1.5v3.4C157.8,235.8,157.5,236,157,235.8z"/>
					<path class="st5" d="M146.5,229.7l-3.1-1.8c-0.4-0.2-0.8-0.9-0.8-1.5v-3.4c0-0.6,0.3-0.8,0.8-0.6l3.1,1.8
						c0.4,0.2,0.8,0.9,0.8,1.5v3.4C147.3,229.7,147,230,146.5,229.7z"/>
				</g>
			</g>
		</g>
		<g>
			<path class="st2" d="M197,192.3l79-45.6c1.8-1,3.2-3.8,3.2-6.1v-15.1c0-2.4-1.4-3.4-3.2-2.4l-79,45.6c-1.8,1-3.2,3.8-3.2,6.1
				v15.1C193.8,192.3,195.2,193.4,197,192.3z"/>
			<path class="st6" d="M199.2,187.1l74.4-43c0.9-0.5,1.6-1.9,1.6-3.1v-11.3c0-1.2-0.7-1.7-1.6-1.2l-74.4,43
				c-0.9,0.5-1.6,1.9-1.6,3.1v11.3C197.6,187,198.3,187.6,199.2,187.1z"/>
			<path class="st0" d="M258.2,147.3l11.1-6.4c0.9-0.5,1.6-1.9,1.6-3l0,0c0-1.2-0.7-1.7-1.6-1.2l-11.1,6.4c-0.9,0.5-1.6,1.9-1.6,3
				l0,0C256.6,147.3,257.3,147.8,258.2,147.3z"/>
			<path class="st4" d="M248.7,150.7c0,1.2,0.8,1.6,1.8,1.1c1-0.6,1.8-2,1.8-3.2c0-1.2-0.8-1.6-1.8-1.1
				C249.5,148.1,248.7,149.5,248.7,150.7z"/>
			<path class="st4" d="M242.3,154.4c0,1.2,0.8,1.6,1.8,1.1c1-0.6,1.8-2,1.8-3.2c0-1.2-0.8-1.6-1.8-1.1
				C243.1,151.8,242.3,153.2,242.3,154.4z"/>
			<path class="st0" d="M235.9,158.1c0,1.2,0.8,1.6,1.8,1.1c1-0.6,1.8-2,1.8-3.2c0-1.2-0.8-1.6-1.8-1.1
				C236.7,155.5,235.9,156.9,235.9,158.1z"/>
			<path class="st4" d="M229.4,161.8c0,1.2,0.8,1.6,1.8,1.1c1-0.6,1.8-2,1.8-3.2c0-1.2-0.8-1.6-1.8-1.1
				C230.3,159.2,229.4,160.6,229.4,161.8z"/>
			<path class="st4" d="M202.4,180.8l3.7-2.2c0.6-0.3,1-1.2,1-1.9v-4c0-0.7-0.5-1.1-1-0.8l-3.7,2.2c-0.6,0.3-1,1.2-1,1.9v4
				C201.4,180.7,201.8,181.1,202.4,180.8z"/>
		</g>
		<g>
			<path class="st2" d="M197,218.9l79-45.6c1.8-1,3.2-3.8,3.2-6.1v-15.1c0-2.4-1.4-3.4-3.2-2.4l-79,45.6c-1.8,1-3.2,3.8-3.2,6.1
				v15.1C193.8,218.8,195.2,219.9,197,218.9z"/>
			<path class="st6" d="M199.2,213.6l74.4-43c0.9-0.5,1.6-1.9,1.6-3.1v-11.3c0-1.2-0.7-1.7-1.6-1.2l-74.4,43
				c-0.9,0.5-1.6,1.9-1.6,3.1v11.3C197.6,213.6,198.3,214.1,199.2,213.6z"/>
			<path class="st0" d="M258.2,173.9l11.1-6.4c0.9-0.5,1.6-1.9,1.6-3l0,0c0-1.2-0.7-1.7-1.6-1.2l-11.1,6.4c-0.9,0.5-1.6,1.9-1.6,3v0
				C256.6,173.8,257.3,174.4,258.2,173.9z"/>
			<path class="st5" d="M248.7,177.2c0,1.2,0.8,1.6,1.8,1.1c1-0.6,1.8-2,1.8-3.2c0-1.2-0.8-1.6-1.8-1.1
				C249.5,174.7,248.7,176.1,248.7,177.2z"/>
			<path class="st4" d="M242.3,180.9c0,1.2,0.8,1.6,1.8,1.1c1-0.6,1.8-2,1.8-3.2c0-1.2-0.8-1.6-1.8-1.1
				C243.1,178.4,242.3,179.8,242.3,180.9z"/>
			<path class="st0" d="M235.9,184.7c0,1.2,0.8,1.6,1.8,1.1c1-0.6,1.8-2,1.8-3.2c0-1.2-0.8-1.6-1.8-1.1
				C236.7,182.1,235.9,183.5,235.9,184.7z"/>
			<path class="st4" d="M229.4,188.4c0,1.2,0.8,1.6,1.8,1.1c1-0.6,1.8-2,1.8-3.2c0-1.2-0.8-1.6-1.8-1.1
				C230.3,185.8,229.4,187.2,229.4,188.4z"/>
			<path class="st4" d="M202.4,207.3l3.7-2.2c0.6-0.3,1-1.2,1-1.9v-4c0-0.7-0.5-1.1-1-0.8l-3.7,2.2c-0.6,0.3-1,1.2-1,1.9v4
				C201.4,207.3,201.8,207.6,202.4,207.3z"/>
		</g>
		<g>
			<path class="st2" d="M197,245.5l79-45.6c1.8-1,3.2-3.8,3.2-6.1v-15.1c0-2.4-1.4-3.4-3.2-2.4l-79,45.6c-1.8,1-3.2,3.8-3.2,6.1V243
				C193.8,245.4,195.2,246.5,197,245.5z"/>
			<path class="st6" d="M199.2,240.2l74.4-43c0.9-0.5,1.6-1.9,1.6-3.1v-11.3c0-1.2-0.7-1.7-1.6-1.2l-74.4,43
				c-0.9,0.5-1.6,1.9-1.6,3.1v11.3C197.6,240.1,198.3,240.7,199.2,240.2z"/>
			<path class="st0" d="M258.2,200.4l11.1-6.4c0.9-0.5,1.6-1.9,1.6-3l0,0c0-1.2-0.7-1.7-1.6-1.2l-11.1,6.4c-0.9,0.5-1.6,1.9-1.6,3
				l0,0C256.6,200.4,257.3,200.9,258.2,200.4z"/>
			<path class="st5" d="M248.7,203.8c0,1.2,0.8,1.6,1.8,1.1c1-0.6,1.8-2,1.8-3.2c0-1.2-0.8-1.6-1.8-1.1
				C249.5,201.2,248.7,202.6,248.7,203.8z"/>
			<path class="st4" d="M242.3,207.5c0,1.2,0.8,1.6,1.8,1.1c1-0.6,1.8-2,1.8-3.2c0-1.2-0.8-1.6-1.8-1.1
				C243.1,204.9,242.3,206.3,242.3,207.5z"/>
			<path class="st0" d="M235.9,211.2c0,1.2,0.8,1.6,1.8,1.1c1-0.6,1.8-2,1.8-3.2c0-1.2-0.8-1.6-1.8-1.1
				C236.7,208.6,235.9,210,235.9,211.2z"/>
			<path class="st4" d="M229.4,214.9c0,1.2,0.8,1.6,1.8,1.1c1-0.6,1.8-2,1.8-3.2c0-1.2-0.8-1.6-1.8-1.1
				C230.3,212.3,229.4,213.8,229.4,214.9z"/>
			<path class="st4" d="M202.4,233.9l3.7-2.2c0.6-0.3,1-1.2,1-1.9v-4c0-0.7-0.5-1.1-1-0.8l-3.7,2.2c-0.6,0.3-1,1.2-1,1.9v4
				C201.4,233.9,201.8,234.2,202.4,233.9z"/>
		</g>
		<g>
			<path class="st2" d="M197,272l79-45.6c1.8-1,3.2-3.8,3.2-6.1v-15.1c0-2.4-1.4-3.4-3.2-2.4l-79,45.6c-1.8,1-3.2,3.8-3.2,6.1v15.1
				C193.8,271.9,195.2,273,197,272z"/>
			<path class="st6" d="M199.2,266.7l74.4-43c0.9-0.5,1.6-1.9,1.6-3.1v-11.3c0-1.2-0.7-1.7-1.6-1.2l-74.4,43
				c-0.9,0.5-1.6,1.9-1.6,3.1v11.3C197.6,266.7,198.3,267.2,199.2,266.7z"/>
			<path class="st0" d="M258.2,227l11.1-6.4c0.9-0.5,1.6-1.9,1.6-3l0,0c0-1.2-0.7-1.7-1.6-1.2l-11.1,6.4c-0.9,0.5-1.6,1.9-1.6,3l0,0
				C256.6,227,257.3,227.5,258.2,227z"/>
			<path class="st4" d="M248.7,230.3c0,1.2,0.8,1.6,1.8,1.1c1-0.6,1.8-2,1.8-3.2c0-1.2-0.8-1.6-1.8-1.1
				C249.5,227.8,248.7,229.2,248.7,230.3z"/>
			<path class="st4" d="M242.3,234.1c0,1.2,0.8,1.6,1.8,1.1c1-0.6,1.8-2,1.8-3.2c0-1.2-0.8-1.6-1.8-1.1
				C243.1,231.5,242.3,232.9,242.3,234.1z"/>
			<path class="st0" d="M235.9,237.8c0,1.2,0.8,1.6,1.8,1.1c1-0.6,1.8-2,1.8-3.2c0-1.2-0.8-1.6-1.8-1.1
				C236.7,235.2,235.9,236.6,235.9,237.8z"/>
			<path class="st4" d="M229.4,241.5c0,1.2,0.8,1.6,1.8,1.1c1-0.6,1.8-2,1.8-3.2c0-1.2-0.8-1.6-1.8-1.1
				C230.3,238.9,229.4,240.3,229.4,241.5z"/>
			<path class="st0" d="M202.4,260.4l3.7-2.2c0.6-0.3,1-1.2,1-1.9v-4c0-0.7-0.5-1.1-1-0.8l-3.7,2.2c-0.6,0.3-1,1.2-1,1.9v4
				C201.4,260.4,201.8,260.7,202.4,260.4z"/>
		</g>
		<g>
			<path class="st2" d="M197,298.6l79-45.6c1.8-1,3.2-3.8,3.2-6.1v-15.1c0-2.4-1.4-3.4-3.2-2.4L197,275c-1.8,1-3.2,3.8-3.2,6.1v15.1
				C193.8,298.5,195.2,299.6,197,298.6z"/>
			<path class="st6" d="M199.2,293.3l74.4-43c0.9-0.5,1.6-1.9,1.6-3.1v-11.3c0-1.2-0.7-1.7-1.6-1.2l-74.4,43
				c-0.9,0.5-1.6,1.9-1.6,3.1v11.3C197.6,293.3,198.3,293.8,199.2,293.3z"/>
			<path class="st0" d="M258.2,253.5l11.1-6.4c0.9-0.5,1.6-1.9,1.6-3l0,0c0-1.2-0.7-1.7-1.6-1.2l-11.1,6.4c-0.9,0.5-1.6,1.9-1.6,3
				l0,0C256.6,253.5,257.3,254,258.2,253.5z"/>
			<path class="st4" d="M248.7,256.9c0,1.2,0.8,1.6,1.8,1.1c1-0.6,1.8-2,1.8-3.2c0-1.2-0.8-1.6-1.8-1.1
				C249.5,254.3,248.7,255.7,248.7,256.9z"/>
			<path class="st5" d="M242.3,260.6c0,1.2,0.8,1.6,1.8,1.1c1-0.6,1.8-2,1.8-3.2c0-1.2-0.8-1.6-1.8-1.1
				C243.1,258,242.3,259.5,242.3,260.6z"/>
			<path class="st0" d="M235.9,264.3c0,1.2,0.8,1.6,1.8,1.1c1-0.6,1.8-2,1.8-3.2c0-1.2-0.8-1.6-1.8-1.1
				C236.7,261.7,235.9,263.2,235.9,264.3z"/>
			<path class="st5" d="M229.4,268c0,1.2,0.8,1.6,1.8,1.1c1-0.6,1.8-2,1.8-3.2c0-1.2-0.8-1.6-1.8-1.1
				C230.3,265.5,229.4,266.9,229.4,268z"/>
			<path class="st0" d="M202.4,287l3.7-2.2c0.6-0.3,1-1.2,1-1.9v-4c0-0.7-0.5-1.1-1-0.8l-3.7,2.2c-0.6,0.3-1,1.2-1,1.9v4
				C201.4,287,201.8,287.3,202.4,287z"/>
		</g>
		<g>
			<path class="st2" d="M197,325.1l79-45.6c1.8-1,3.2-3.8,3.2-6.1v-15.1c0-2.4-1.4-3.4-3.2-2.4l-79,45.6c-1.8,1-3.2,3.8-3.2,6.1
				v15.1C193.8,325.1,195.2,326.1,197,325.1z"/>
			<path class="st6" d="M199.2,319.8l74.4-43c0.9-0.5,1.6-1.9,1.6-3.1v-11.3c0-1.2-0.7-1.7-1.6-1.2l-74.4,43
				c-0.9,0.5-1.6,1.9-1.6,3.1v11.3C197.6,319.8,198.3,320.4,199.2,319.8z"/>
			<path class="st0" d="M258.2,280.1l11.1-6.4c0.9-0.5,1.6-1.9,1.6-3l0,0c0-1.2-0.7-1.7-1.6-1.2l-11.1,6.4c-0.9,0.5-1.6,1.9-1.6,3
				l0,0C256.6,280.1,257.3,280.6,258.2,280.1z"/>
			<path class="st4" d="M248.7,283.5c0,1.2,0.8,1.6,1.8,1.1c1-0.6,1.8-2,1.8-3.2s-0.8-1.6-1.8-1.1
				C249.5,280.9,248.7,282.3,248.7,283.5z"/>
			<path class="st4" d="M242.3,287.2c0,1.2,0.8,1.6,1.8,1.1c1-0.6,1.8-2,1.8-3.2c0-1.2-0.8-1.6-1.8-1.1
				C243.1,284.6,242.3,286,242.3,287.2z"/>
			<path class="st0" d="M235.9,290.9c0,1.2,0.8,1.6,1.8,1.1c1-0.6,1.8-2,1.8-3.2c0-1.2-0.8-1.6-1.8-1.1
				C236.7,288.3,235.9,289.7,235.9,290.9z"/>
			<path class="st4" d="M229.4,294.6c0,1.2,0.8,1.6,1.8,1.1c1-0.6,1.8-2,1.8-3.2s-0.8-1.6-1.8-1.1
				C230.3,292,229.4,293.4,229.4,294.6z"/>
			<path class="st4" d="M202.4,313.5l3.7-2.2c0.6-0.3,1-1.2,1-1.9v-4c0-0.7-0.5-1.1-1-0.8l-3.7,2.2c-0.6,0.3-1,1.2-1,1.9v4
				C201.4,313.5,201.8,313.9,202.4,313.5z"/>
		</g>
		<g>
			<path class="st2" d="M197,351.7l79-45.6c1.8-1,3.2-3.8,3.2-6.1v-15.1c0-2.4-1.4-3.4-3.2-2.4l-79,45.6c-1.8,1-3.2,3.8-3.2,6.1
				v15.1C193.8,351.6,195.2,352.7,197,351.7z"/>
			<path class="st6" d="M199.2,346.4l74.4-43c0.9-0.5,1.6-1.9,1.6-3.1V289c0-1.2-0.7-1.7-1.6-1.2l-74.4,43c-0.9,0.5-1.6,1.9-1.6,3.1
				v11.3C197.6,346.4,198.3,346.9,199.2,346.4z"/>
			<path class="st0" d="M258.2,306.7l11.1-6.4c0.9-0.5,1.6-1.9,1.6-3l0,0c0-1.2-0.7-1.7-1.6-1.2l-11.1,6.4c-0.9,0.5-1.6,1.9-1.6,3
				l0,0C256.6,306.6,257.3,307.2,258.2,306.7z"/>
			<path class="st5" d="M246.7,311.5c0,2.2,1.5,3.1,3.4,2c1.9-1.1,3.4-3.8,3.4-6c0-2.2-1.5-3.1-3.4-2
				C248.2,306.6,246.7,309.3,246.7,311.5z"/>
			<path class="st4" d="M233.4,319.2c0,1.2,0.8,1.6,1.8,1.1c1-0.6,1.8-2,1.8-3.2s-0.8-1.6-1.8-1.1
				C234.2,316.7,233.4,318.1,233.4,319.2z"/>
			<path class="st0" d="M226.9,323c0,1.2,0.8,1.6,1.8,1.1c1-0.6,1.8-2,1.8-3.2c0-1.2-0.8-1.6-1.8-1.1
				C227.8,320.4,226.9,321.8,226.9,323z"/>
			<path class="st4" d="M220.5,326.7c0,1.2,0.8,1.6,1.8,1.1c1-0.6,1.8-2,1.8-3.2c0-1.2-0.8-1.6-1.8-1.1
				C221.3,324.1,220.5,325.5,220.5,326.7z"/>
			<path class="st0" d="M202.4,340.1l3.7-2.2c0.6-0.3,1-1.2,1-1.9v-4c0-0.7-0.5-1.1-1-0.8l-3.7,2.2c-0.6,0.3-1,1.2-1,1.9v4
				C201.4,340.1,201.8,340.4,202.4,340.1z"/>
		</g>
	</g>
	<g>
		<polygon class="st4" points="517.9,393 362.8,303.4 537.7,311.6 548.5,322 550.9,337.6 549.2,348.2 544,361 538.8,371.1 
			533,378.7 		"/>
		<path class="st0" d="M387.5,221.7c-0.3-0.2-0.5-0.3-0.8-0.5l0,0h0c-6.2-3.3-14.6-2.7-23.9,2.6L150.9,346.2
			c0.9,0.7,1.7,1.5,2.4,2.4l8-4.6l42.9,93.2l22.2,30.3l14.5,5l14.5-5.7l70.5-40.1l139.7-79.9l51.2-30.8l13.4-4.3l12-0.7L387.5,221.7
			z"/>
		<g>
			<path class="st0" d="M220.1,449.4c0-21.9,15.5-48.7,34.5-59.7v3.8c-17.2,9.9-31.2,34.2-31.2,54c0,19.9,14,27.9,31.2,18
				l263.4-152.1c9.5-5.5,18.1-6,24.3-2.4l-154.7-89.4c-0.3-0.2-0.5-0.3-0.8-0.5l0,0h0c-6.2-3.3-14.6-2.7-23.9,2.6L150.9,346.1
				c0.9,0.7,1.7,1.5,2.4,2.4l8-4.6l42.9,93.2l17.7,24.2C220.7,457.9,220.1,453.9,220.1,449.4z"/>
			<path class="st0" d="M542.3,311L542.3,311L542.3,311C542.3,311,542.3,311,542.3,311z"/>
		</g>
		<g>
			<g>
				<path class="st5" d="M220.1,447.3c0,0.4,0,0.7,0,1.1c0.2-10.9,4.2-23,10.5-33.7c-0.3-0.2-0.6-0.4-0.9-0.6
					C223.8,424.8,220.1,436.6,220.1,447.3z"/>
				<path class="st5" d="M517.9,311.3L254.5,463.4c-16.8,9.7-30.5,2.2-31.1-16.6c0,0.2,0,0.5,0,0.7c0,19.9,14,27.9,31.2,18
					l263.4-152.1c9.5-5.5,18.1-6,24.3-2.4l-7.5-4.3C529.8,306.3,524.1,307.8,517.9,311.3z"/>
				<path class="st5" d="M204.2,435l-42.9-93.2l-8,4.6c-0.3-0.4-0.7-0.7-1-1.1l-1.4,0.8c0.9,0.7,1.7,1.5,2.4,2.4l8-4.6l42.9,93.2
					l17.7,24.2c-0.4-1.1-0.7-2.2-1-3.4L204.2,435z"/>
			</g>
			<path class="st0" d="M542.3,308.9L542.3,308.9L542.3,308.9C542.3,308.9,542.3,308.9,542.3,308.9z"/>
		</g>
		<path class="st2" d="M99.4,300.1L99.4,300.1c-19,11-34.5,37.7-34.5,59.7c0,10.6,3.6,18.1,9.5,21.9l0,0l0.1,0.1
			c0.3,0.2,0.7,0.4,1.1,0.6l154.6,89.3l-9.5-17.1l1.1-17.1l3-9.6l4.6-10.2c0,0,3.8-7,4-7.2c0.2-0.2,5.6-7.1,5.6-7.1l5.2-5.4l5.7-3.6
			l4.7-4.6L99.4,300.1z"/>
		<g>
			<path class="st4" d="M517.9,393v-3.8c17.2-9.9,31.2-34.2,31.2-54c0-19.9-14-27.9-31.2-18L254.5,469.3c-19,11-34.5,2-34.5-19.9
				c0-21.9,15.5-48.7,34.5-59.7v3.8c-17.2,9.9-31.2,34.2-31.2,54s14,27.9,31.2,18l263.4-152.1c19-11,34.5-2,34.5,19.9
				C552.4,355.2,536.9,382,517.9,393z"/>
		</g>
	</g>
	<g>
		<g>
			<path class="st2" d="M394.6,339.5l-73.8-41.6c-2.9-1.7-8.1-1.4-11.4,0.6l-42.2,24.9c-3.4,2-3.7,4.9-0.8,6.6l73.8,41.6
				c2.9,1.7,8.1,1.4,11.4-0.6l42.2-24.9C397.2,344.1,397.5,341.1,394.6,339.5z"/>
			<path class="st7" d="M338.4,362.6l-75.8-42.7c-1.5-0.8-2.2-2-2.3-3.2c0,0,0,0,0,0l-0.1-8.4c0,0,2.7,2.2,4.2,3.5l47.3-27.9
				c3.8-2.3,9.7-2.6,13.1-0.7l72.5,40.8l5.5-3.3l0.1,8.5l0,0c0,1.5-1.1,3-3.1,4.2l-48.2,28.5C347.6,364.2,341.8,364.5,338.4,362.6z"
				/>
			<path class="st8" d="M400.5,317.2l-75.8-42.7c-3.4-1.9-9.2-1.6-13.1,0.7l-48.2,28.5c-3.8,2.3-4.2,5.7-0.9,7.6l75.8,42.7
				c3.4,1.9,9.2,1.6,13.1-0.7l48.2-28.5C403.5,322.5,403.9,319.1,400.5,317.2z"/>
			<path class="st5" d="M338.3,354l-75.8-42.7c-1.9-1.1-2.6-2.6-2.1-4.2c0.4,0.7,1,1.4,1.9,2l75.8,42.7c3.4,1.9,9.2,1.6,13.1-0.7
				l48.2-28.5c1.7-1,2.6-2.2,3-3.4c0.9,1.8-0.1,4-2.8,5.6l-48.2,28.5C347.5,355.6,341.7,355.9,338.3,354z"/>
		</g>
		<g>
			<path class="st5" d="M320.9,306.1c2.8-1.7,2.8-4.3-0.1-5.9c-2.8-1.6-7.4-1.5-10.2,0.1c-2.8,1.7-2.8,4.3,0.1,5.9
				C313.6,307.8,318.1,307.8,320.9,306.1z"/>
			<path class="st5" d="M336.4,314.9c2.8-1.7,2.8-4.3-0.1-5.9c-2.8-1.6-7.4-1.5-10.2,0.1c-2.8,1.7-2.8,4.3,0.1,5.9
				C329.1,316.5,333.6,316.5,336.4,314.9z"/>
			<path class="st5" d="M351.9,323.6c2.8-1.7,2.8-4.3-0.1-5.9c-2.8-1.6-7.4-1.5-10.2,0.1c-2.8,1.7-2.8,4.3,0.1,5.9
				C344.6,325.3,349.1,325.2,351.9,323.6z"/>
		</g>
	</g>
	<g>
		<polygon class="st2" points="294.9,392.5 233.1,356.4 229.2,358.6 291,394.7 		"/>
		<polygon class="st2" points="293.2,371.9 250,346.7 246.1,349 289.3,374.1 		"/>
		<polygon class="st2" points="278.9,373.4 241.5,351.6 237.7,353.8 275,375.6 		"/>
		<polygon class="st2" points="303.4,387.6 284.7,376.8 280.8,379 299.5,389.9 		"/>
	</g>
	<g>
		<polygon class="st2" points="439.2,307.6 377.4,271.5 373.5,273.7 435.3,309.8 		"/>
		<polygon class="st2" points="437.5,287 394.3,261.8 390.4,264.1 433.6,289.2 		"/>
		<polygon class="st2" points="423.2,288.4 385.8,266.7 382,268.9 419.3,290.7 		"/>
		<polygon class="st2" points="447.7,302.7 429,291.8 425.1,294.1 443.8,304.9 		"/>
	</g>
	<g>
		<path class="st9" d="M387.5,221.7c-0.3-0.2-0.5-0.3-0.8-0.5l0,0h0c-6.2-3.3-14.6-2.7-23.9,2.6L345,234.1l25,14.4
			c1.2,0.7,2.3,0.7,3.1,0.1l0,0l30.5-17.7L387.5,221.7z"/>
		<g>
			<g>
				<path class="st8" d="M426.3,194.9l-8-4.6l29.6-17.1c1.4-0.8,1.4-2.1,0-2.9l-30.2-17.4c-1.4-0.8-3.7-0.8-5.1,0l-29.6,17.1l-8-4.6
					l29.6-17.1c5.8-3.4,15.3-3.4,21.1,0l30.2,17.4c5.8,3.4,5.8,8.8,0,12.2L426.3,194.9z"/>
			</g>
			<g>
				<path class="st0" d="M439.2,196.9c0-4.3-2.6-9.3-5.8-11.1l-53.6-30.9c-1.4-0.8-2.8-0.9-3.8-0.3l0,0l-64,37.2l61.9,46.6
					l63.1-36.6c0.2-0.1,0.4-0.2,0.6-0.3l0,0l0,0C438.6,200.6,439.2,199.1,439.2,196.9z"/>
				<path class="st4" d="M373.9,238.3l63.1-36.6c0.2-0.1,0.4-0.2,0.6-0.3l0,0l0,0c1.1-0.8,1.7-2.4,1.7-4.5c0-2-0.6-4.3-1.6-6.2
					l-71.9,41.5L373.9,238.3z"/>
				<path class="st2" d="M369.9,238.2l-53.6-30.9c-3.2-1.9-5.8-6.8-5.8-11.1l0,0c0-4.3,2.6-6.3,5.8-4.4l53.6,30.9
					c3.2,1.9,5.8,6.8,5.8,11.1l0,0C375.7,238.1,373.1,240,369.9,238.2z"/>
				<path class="st5" d="M370.5,222.4l-53.6-30.9c-1.5-0.9-2.8-0.9-3.9-0.3c0.9-0.3,2-0.1,3.2,0.6l53.6,30.9
					c3.2,1.9,5.8,6.8,5.8,11.1v0c0,2.3-0.8,3.9-2,4.7c1.6-0.5,2.6-2.3,2.6-5v0C376.3,229.2,373.7,224.2,370.5,222.4z"/>
			</g>
			<path class="st5" d="M361.8,227.7l-6.4-3.7c-0.6-0.4-1.2-1.4-1.2-2.2l0,0c0-0.9,0.5-1.2,1.2-0.9l6.4,3.7c0.6,0.4,1.2,1.4,1.2,2.2
				l0,0C363,227.7,362.5,228.1,361.8,227.7z"/>
		</g>
		<g>
			<path class="st2" d="M369.1,183.7c1.9-1.1,1.9-3,0-4.1c-2-1.1-5.1-1.1-7.1,0.1c-1.9,1.1-1.9,3,0,4.1
				C364,184.9,367.2,184.9,369.1,183.7z"/>
			<path class="st5" d="M379.9,189.8c1.9-1.1,1.9-3,0-4.1c-2-1.1-5.1-1.1-7.1,0.1c-1.9,1.1-1.9,3,0,4.1
				C374.8,191,378,191,379.9,189.8z"/>
			<path class="st5" d="M390.7,195.9c1.9-1.1,1.9-3,0-4.1c-2-1.1-5.1-1.1-7.1,0.1c-1.9,1.1-1.9,3,0,4.1
				C385.6,197.1,388.7,197.1,390.7,195.9z"/>
		</g>
	</g>
	<g>
		<path class="st10" d="M300.1,516.4l168.1-97.1c4.1-2.4,3.6-6.5-1.1-9.2l0,0c-4.7-2.7-11.8-3-15.9-0.7l-168.1,97.1
			c-4.1,2.4-3.6,6.5,1.1,9.2l0,0C288.9,518.5,296,518.8,300.1,516.4z"/>
		<g>
			<path class="st0" d="M482,386.1L482,386.1c-0.1-0.2-0.4-0.4-0.7-0.3l-9,1.8l3.5,6l6.1-6.8C482.1,386.6,482.1,386.3,482,386.1z"/>
			<g>
				<path class="st2" d="M478.4,390.5c0-1.3-0.9-2.9-2-3.5c-0.5-0.3-1-0.3-1.3-0.2c-10.3-0.2-20.5,2.4-29.4,7.6l-0.6,0.4l10.9,19
					l3.3-2.1c7-4.5,12.9-10.5,17.3-17.6l1.4-2.3C478.2,391.5,478.4,391.1,478.4,390.5z"/>
				<path class="st0" d="M458.1,408.7c0-4.9-3.4-10.9-7.7-13.4s-7.7-0.5-7.7,4.5c0,4.9,3.4,10.9,7.7,13.4
					C454.6,415.6,458.1,413.6,458.1,408.7z"/>
				<polygon class="st0" points="389.6,454.1 455.8,413.7 444.9,394.7 376.7,431.6 				"/>
				<path class="st0" d="M392.3,448.1c0-5.8-4.1-12.9-9.1-15.9c-5-2.9-9.1-0.6-9.2,5.3c0,5.8,4.1,12.9,9.1,15.9
					S392.3,454,392.3,448.1z"/>
			</g>
			<g>
				<path class="st0" d="M388.5,450.3c0-5.8-4.1-12.9-9.1-15.9c-5-2.9-9.1-0.6-9.2,5.3c0,5.8,4.1,12.9,9.1,15.9
					C384.4,458.5,388.5,456.2,388.5,450.3z"/>
				
					<rect x="285.1" y="457.3" transform="matrix(-0.8671 0.4982 -0.4982 -0.8671 860.7852 710.6945)" class="st0" width="101" height="25.9"/>
				<path class="st0" d="M300.9,500.7c0-5.8-4.1-12.9-9.1-15.9c-5-2.9-9.1-0.6-9.2,5.3c0,5.8,4.1,12.9,9.1,15.9
					S300.9,506.5,300.9,500.7z"/>
				<path class="st1" d="M297.6,498.8c-0.2-3.4-2.9-7.8-6.2-9.6c-3.2-1.9-5.7-0.6-5.6,2.8c0.2,3.4,2.9,7.8,6.2,9.6
					C295.3,503.5,297.8,502.2,297.6,498.8z"/>
			</g>
			<g>
				<path class="st5" d="M393,447.8c0-5.8-4.1-12.9-9.1-15.9c-2-1.2-3.9-1.5-5.4-1.1c1.7-1.7,4.4-1.9,7.4-0.1c5,2.9,9.1,10,9.1,15.9
					c0,3.5-1.5,5.7-3.7,6.3C392.3,451.8,393,450.1,393,447.8z"/>
				<path class="st2" d="M393,447.8c0-5.8-4.1-12.9-9.1-15.9c-2.5-1.5-4.8-1.6-6.5-0.7l-5,2.9l2.3,4c0.4,5.3,3.9,11.4,8.3,14.4
					l2.3,4l5-2.9l0,0C391.9,452.7,393,450.7,393,447.8z"/>
				<path class="st0" d="M388,450.6c0-5.8-4.1-12.9-9.1-15.9c-5-2.9-9.1-0.6-9.2,5.3c0,5.8,4.1,12.9,9.1,15.9
					C383.9,458.8,388,456.5,388,450.6z"/>
			</g>
			<g>
				<path class="st8" d="M293.5,501.3l-5.6-9.7l-18.6,10.7c-2.7,1.5-3.6,4.9-2.1,7.6l0,0c1.5,2.7,4.9,3.6,7.6,2.1L293.5,501.3z"/>
				<path class="st8" d="M294.7,498.8c0-2.5-1.8-5.6-3.9-6.8c-2.2-1.3-3.9-0.2-4,2.3c0,2.5,1.8,5.6,3.9,6.8
					C292.9,502.3,294.7,501.3,294.7,498.8z"/>
			</g>
			<g>
				<path class="st2" d="M315.5,465l-2.8-1.6c-1.6-0.9-3.7-0.7-5.9,0.6l-9.5,5.5c-1.8,1-3.3,3.6-3.3,5.6l0,4.7c0,0.8-0.4,1.7-1,2.4
					l0.3,2.2l-2.4-1.4l0,0c-0.3-0.2-0.6-0.6-0.6-1.2l0-4.7c0-4.3,3.1-9.6,6.8-11.8l9.5-5.5c3.2-1.8,6.2-2.1,8.4-0.8l2.8,1.6
					c1.6,0.9,3.7,0.7,5.9-0.6l38.5-22.1c0.5-0.3,0.9-0.3,1.3-0.1l0,0l2.3,1.4l-2,0.8c-0.3,0.8-0.9,1.7-1.6,2.1L324,464.2
					C320.8,466,317.8,466.3,315.5,465z"/>
				<path class="st2" d="M315.2,464.8c-1.6-0.9-3.7-0.7-5.9,0.6l-9.5,5.5c-1.8,1-3.3,3.6-3.3,5.6l0,4.7c0,1.1-0.8,2.5-1.8,3.1
					c-1,0.6-1.8,0.1-1.8-1l0-4.7c0-4.3,3.1-9.6,6.8-11.8l9.5-5.5c3.2-1.8,6.2-2.1,8.4-0.8l2.8,1.6c1.6,0.9,3.7,0.7,5.9-0.6
					l38.5-22.1c1-0.6,1.8-0.1,1.8,1c0,1.1-0.8,2.5-1.8,3.1l-38.5,22.1c-3.2,1.8-6.2,2.1-8.4,0.8L315.2,464.8z"/>
				<g>
					<path class="st5" d="M296.3,477.3l0,4.7c0,0,0,0.1,0,0.1c0.1-0.3,0.1-0.6,0.1-0.9l0-4.7c0-0.1,0-0.3,0-0.4
						C296.4,476.5,296.3,476.9,296.3,477.3z"/>
				</g>
			</g>
		</g>
		<path class="st10" d="M278.3,524.2l17.6-10.2c2.1-1.2,1.9-3.4-0.6-4.8l0,0c-2.4-1.4-6.2-1.6-8.3-0.3l-17.6,10.2
			c-2.1,1.2-1.9,3.4,0.6,4.8h0C272.5,525.2,276.2,525.4,278.3,524.2z"/>
	</g>
	<g>
		<polygon class="st10" points="92.2,498.1 70.2,485.4 92.2,472.7 114.1,485.4 		"/>
		<polygon class="st7" points="114.1,471 92.2,483.7 92.2,458.3 114.1,445.6 		"/>
		<polygon class="st8" points="92.2,458.3 70.2,445.6 92.2,432.9 114.1,445.6 		"/>
		<polygon class="st8" points="92.2,483.7 70.2,471 70.2,445.6 92.2,458.3 		"/>
	</g>
	<g>
		<polygon class="st10" points="30.4,344.4 5.9,330.2 30.4,316.1 54.9,330.2 		"/>
		<polygon class="st4" points="54.9,314.2 30.4,328.3 30.4,300.1 54.9,286 		"/>
		<polygon class="st0" points="30.4,300.1 5.9,286 30.4,271.8 54.9,286 		"/>
		<polygon class="st2" points="30.4,328.3 5.9,314.2 5.9,286 30.4,300.1 		"/>
	</g>
	<g>
		<path class="st10" d="M532.1,296.5l-49-28.3c-3-1.7-2.6-4.8,0.8-6.8l47.3-27.3c3.5-2,8.7-2.2,11.7-0.5l49,28.3
			c3,1.7,2.6,4.8-0.8,6.8l-47.3,27.3C540.4,298.1,535.1,298.3,532.1,296.5z"/>
		<path class="st1" d="M594,248.3L594,248.3v-16.9l-37.9,0l-13.1-7.6c-3-1.7-8.3-1.5-11.7,0.5l-12.2,7.1l-38,0v17.4
			c-0.1,1.2,0.6,2.3,2,3.1l49,28.3c3,1.7,8.3,1.5,11.7-0.5l47.3-27.3C593.2,251.2,594.2,249.7,594,248.3z"/>
		<path class="st1" d="M537.6,222.6c-2.2,0.1-4.5,0.6-6.3,1.7l-12.2,7.1l-38,0v17.4c-0.1,1.2,0.6,2.3,2,3.1l49,28.3
			c1.4,0.8,3.4,1.2,5.4,1.2V222.6z"/>
		<path class="st2" d="M485.4,231.3l-4.3,0v17.4c-0.1,1.2,0.6,2.3,2,3.1l2.3,1.3V231.3z"/>
		<path class="st2" d="M532.9,280.5c2.6,1.1,6.3,1,9.4-0.1v-19.8h-9.4V280.5z"/>
		<path class="st0" d="M532.1,262.8l-49-28.3c-3-1.7-2.6-4.8,0.8-6.8l47.3-27.3c3.5-2,8.7-2.2,11.7-0.5l49,28.3
			c3,1.7,2.6,4.8-0.8,6.8l-47.3,27.3C540.4,264.3,535.1,264.5,532.1,262.8z"/>
		<path class="st5" d="M591.2,231.7L543.9,259c-3.5,2-8.7,2.2-11.7,0.5l-49-28.3c-0.7-0.4-1.2-0.8-1.5-1.3c-1,1.7-0.6,3.5,1.5,4.7
			l49,28.3c3,1.7,8.3,1.5,11.7-0.5l47.3-27.3c2.7-1.6,3.5-3.7,2.3-5.4C593.1,230.3,592.3,231,591.2,231.7z"/>
		<g>
			<path class="st0" d="M576,252.7c0,1.3-0.9,2.8-2,3.4c-1.1,0.6-2,0.1-2-1.1s0.9-2.8,2-3.4C575.1,251,576,251.5,576,252.7z"/>
			<path class="st0" d="M582.4,249.1c0,1.3-0.9,2.8-2,3.4c-1.1,0.6-2,0.1-2-1.1s0.9-2.8,2-3.4C581.5,247.3,582.4,247.8,582.4,249.1z
				"/>
			<path class="st0" d="M588.8,245.4c0,1.3-0.9,2.8-2,3.4c-1.1,0.6-2,0.1-2-1.1c0-1.3,0.9-2.8,2-3.4
				C587.9,243.6,588.8,244.1,588.8,245.4z"/>
		</g>
		<g>
			<path class="st2" d="M535,245.3L512.1,232c-1.4-0.8-1.2-2.2,0.4-3.2l22.1-12.8c1.6-0.9,4.1-1,5.5-0.2l22.9,13.2
				c1.4,0.8,1.2,2.2-0.4,3.2L540.5,245C538.9,246,536.4,246.1,535,245.3z"/>
			<path class="st0" d="M537.2,234.2l-3.2-1.8c-0.2-0.1-0.2-0.3,0.1-0.4l3.1-1.8c0.2-0.1,0.6-0.1,0.8,0l3.2,1.8
				c0.2,0.1,0.2,0.3-0.1,0.4l-3.1,1.8C537.7,234.3,537.4,234.3,537.2,234.2z"/>
			<path class="st1" d="M512.1,232L512.1,232c0.2,0,0.3-0.1,0.4-0.2l22.1-12.8c1.6-0.9,4.1-1,5.5-0.2L563,232
				c1.3-0.9,1.4-2.2,0.1-2.9l-22.9-13.2c-1.4-0.8-3.9-0.7-5.5,0.2l-22.1,12.8C510.8,229.8,510.7,231.2,512.1,232z"/>
		</g>
	</g>
</g>
</svg>
