<?xml version="1.0" encoding="utf-8"?>
<!-- Generator: Adobe Illustrator 19.0.0, SVG Export Plug-In . SVG Version: 6.00 Build 0)  -->
<svg version="1.1" id="Ñëîé_1" xmlns="http://www.w3.org/2000/svg" xmlns:xlink="http://www.w3.org/1999/xlink" x="0px" y="0px"
	 viewBox="0 0 600 600" style="enable-background:new 0 0 600 600;" xml:space="preserve">
<style type="text/css">
	.st0{opacity:0.5;fill:#173D7A;}
	.st1{fill:#D4ECFF;}
	.st2{fill:#5793CE;}
	.st3{fill:#86B8E0;}
	.st4{fill:#FFFFFF;}
	.st5{fill:#396CAA;}
	.st6{fill:#FF2C9C;}
	.st7{fill:#173D7A;}
	.st8{fill:#FFC2B0;}
	.st9{fill:#EA9C92;}
	.st10{fill:#D3008D;}
	.st11{fill:#274F89;}
</style>
<g>
	<path class="st0" d="M350.3,456.5L163.6,348.7c-2.9-1.7-2.9-6,0-7.7l176.7-102L537.7,353c2.9,1.7,2.9,6,0,7.7l-166,95.8
		C365.1,460.3,356.9,460.3,350.3,456.5z"/>
	<g>
		<g>
			<path class="st1" d="M345.7,173.5c0-12-8.4-16.9-18.9-10.9L149.9,264.5c-2.9,1.6-5.2,5.7-5.2,9c0,3.3,2.3,4.6,5.2,3l176.9-101.9
				c4.7-2.7,8.5-0.5,8.5,4.9l0,19.8c3.4-0.2,6.9-0.2,10.4-0.2L345.7,173.5z"/>
			<path class="st2" d="M149.8,312.1l176.9-64.5c10.4-6,18.9-20.6,18.9-32.7l0-15.8c-3.5-0.1-6.9-0.1-10.4,0.2l0,21.6
				c0,5.4-3.8,12-8.5,14.7l-176.9,64.5c-2.9,1.6-5.2,5.7-5.2,9C144.6,312.4,146.9,313.7,149.8,312.1z"/>
		</g>
		<polygon class="st2" points="146,312.3 361.2,436.8 543.4,328.2 557.9,306.6 556.4,314.2 552.5,294.2 214.2,307.1 154.6,303.3 		
			"/>
		<polygon class="st3" points="153.1,274.7 153,301.2 361,421.6 366.7,396.3 		"/>
		<polygon class="st1" points="555.2,285.7 340.3,161.4 146.6,274.1 146.2,276.8 361.4,401.3 		"/>
		<g>
			<path class="st4" d="M486.7,349.6l50.5-30c4.3-3,7.6-9,7.6-14.1l0-4c0-3.2-1.3-5.3-3.4-5.9L442,351l-81,43.8l0.1,26.8
				L486.7,349.6z"/>
		</g>
		<path class="st2" d="M368.2,397.2L154.7,273.7l-4.5-2.6l-4.1-2.4c-0.8,1.6-1.4,3.3-1.4,4.8c0,1.6,0.6,2.8,1.5,3.3l0,0l0,0l0,0
			l215.2,124.5L368.2,397.2z"/>
		<polygon class="st4" points="358.5,435.3 361.2,436.8 361.7,436 360,434.7 		"/>
		<polygon class="st4" points="358.6,399.7 361.3,401.3 360.6,399.8 		"/>
		<g>
			<path class="st1" d="M365.1,389L542,287.1c10.4-6,18.9-1.1,18.9,10.9l0,4c0,12-8.5,26.7-18.9,32.7L365,436.6
				c-2.9,1.6-5.2,0.3-5.2-3c0-3.3,2.3-7.3,5.2-9l176.9-101.9c4.7-2.7,8.5-9.3,8.5-14.7l0-4c0-5.4-3.8-7.6-8.5-4.9L365.1,401
				c-2.9,1.6-5.2,0.3-5.2-3S362.2,390.7,365.1,389z"/>
		</g>
		<polygon class="st4" points="286.3,290.2 378.2,237.2 457.9,283.4 366,336.3 		"/>
		<g>
			<path class="st4" d="M359.8,433.6c0-3.3,2.3-7.3,5.2-9l176.9-101.9c4.7-2.7,8.5-9.3,8.5-14.7l0-4c0-3.5-1.6-5.7-4.1-6
				c0.8,1,1.2,2.5,1.2,4.4l0,4c0,5.4-3.8,12-8.5,14.7L362.2,423c-2.9,1.6-5.2,5.7-5.2,9c0,2.5,1.3,3.9,3.2,3.7
				C360,435.1,359.8,434.4,359.8,433.6z"/>
			<path class="st4" d="M359.9,398c0-3.3,2.3-7.3,5.2-9L542,287.1c4.5-2.6,8.6-3.1,11.8-2c-3.5-2.9-8.7-3.1-14.7,0.3L362.2,387.4
				c-2.9,1.6-5.2,5.7-5.2,9c0,2.5,1.3,3.9,3.2,3.7C360,399.5,359.9,398.8,359.9,398z"/>
		</g>
	</g>
	<g>
		<path class="st0" d="M56.6,336.4L8.4,308.6c-3-1.7-2.6-4.7,0.8-6.7L55.8,275c3.4-2,8.6-2.2,11.6-0.5l48.2,27.9
			c3,1.7,2.6,4.7-0.8,6.7l-46.6,26.9C64.8,337.9,59.6,338.1,56.6,336.4z"/>
		<path class="st5" d="M117.6,288.9L117.6,288.9v-16.6l-37.3,0l-12.9-7.4c-3-1.7-8.1-1.5-11.6,0.5l-12,7l-37.4,0v17.1
			c-0.1,1.2,0.6,2.3,2,3.1l48.2,27.9c3,1.7,8.1,1.5,11.6-0.5l46.6-26.9C116.7,291.7,117.7,290.3,117.6,288.9z"/>
		<path class="st5" d="M62,263.6c-2.2,0.1-4.4,0.6-6.2,1.6l-12,7l-37.4,0v17.1c-0.1,1.2,0.6,2.3,2,3.1l48.2,27.9
			c1.4,0.8,3.4,1.2,5.4,1.1V263.6z"/>
		<path class="st2" d="M10.6,272.2l-4.2,0v17.1c-0.1,1.2,0.6,2.3,2,3.1l2.2,1.3V272.2z"/>
		<path class="st2" d="M57.4,320.6c2.6,1.1,6.2,1,9.2-0.1v-19.4h-9.2V320.6z"/>
		<path class="st1" d="M56.6,303.2L8.4,275.3c-3-1.7-2.6-4.7,0.8-6.7l46.6-26.9c3.4-2,8.6-2.2,11.6-0.5l48.2,27.9
			c3,1.7,2.6,4.7-0.8,6.7l-46.6,26.9C64.8,304.7,59.6,304.9,56.6,303.2z"/>
		<path class="st4" d="M114.8,272.5l-46.6,26.9c-3.4,2-8.6,2.2-11.6,0.5L8.4,272.1c-0.7-0.4-1.1-0.8-1.5-1.3c-1,1.6-0.6,3.4,1.5,4.6
			l48.2,27.9c3,1.7,8.1,1.5,11.6-0.5l46.6-26.9c2.7-1.5,3.5-3.7,2.3-5.4C116.6,271.2,115.8,271.9,114.8,272.5z"/>
		<g>
			<path class="st1" d="M99.8,293.3c0,1.2-0.9,2.8-1.9,3.4c-1.1,0.6-1.9,0.1-1.9-1.1c0-1.2,0.9-2.8,1.9-3.4
				C99,291.5,99.8,292,99.8,293.3z"/>
			<path class="st1" d="M106.1,289.7c0,1.2-0.9,2.8-1.9,3.4c-1.1,0.6-1.9,0.1-1.9-1.1c0-1.2,0.9-2.8,1.9-3.4
				C105.2,287.9,106.1,288.4,106.1,289.7z"/>
			<path class="st1" d="M112.4,286.1c0,1.2-0.9,2.8-1.9,3.4c-1.1,0.6-1.9,0.1-1.9-1.1c0-1.2,0.9-2.8,1.9-3.4
				C111.5,284.3,112.4,284.8,112.4,286.1z"/>
		</g>
		<g>
			<path class="st2" d="M59.5,285.9l-22.6-13c-1.4-0.8-1.2-2.2,0.4-3.1l21.8-12.6c1.6-0.9,4-1,5.4-0.2l22.6,13
				c1.4,0.8,1.2,2.2-0.4,3.1l-21.8,12.6C63.3,286.6,60.9,286.7,59.5,285.9z"/>
			<path class="st1" d="M61.6,275l-3.1-1.8c-0.2-0.1-0.2-0.3,0.1-0.4l3-1.7c0.2-0.1,0.6-0.1,0.7,0l3.1,1.8c0.2,0.1,0.2,0.3-0.1,0.4
				l-3,1.7C62.2,275.1,61.8,275.1,61.6,275z"/>
			<path class="st5" d="M36.9,272.9L36.9,272.9c0.2,0,0.3-0.1,0.4-0.2l21.8-12.6c1.6-0.9,4-1,5.4-0.2l22.5,13
				c1.3-0.9,1.3-2.2,0.1-2.9l-22.6-13c-1.4-0.8-3.8-0.7-5.4,0.2l-21.8,12.6C35.7,270.7,35.5,272.1,36.9,272.9z"/>
		</g>
	</g>
	<g>
		<path class="st0" d="M483.7,499.6l-48.2-27.9c-3-1.7-2.6-4.7,0.8-6.7l46.6-26.9c3.4-2,8.6-2.2,11.6-0.5l48.2,27.9
			c3,1.7,2.6,4.7-0.8,6.7l-46.6,26.9C491.8,501.1,486.6,501.3,483.7,499.6z"/>
		<path class="st5" d="M544.6,452.1L544.6,452.1v-16.6l-37.3,0l-12.9-7.4c-3-1.7-8.1-1.5-11.6,0.5l-12,7l-37.4,0v17.1
			c-0.1,1.2,0.6,2.3,2,3.1l48.2,27.9c3,1.7,8.1,1.5,11.6-0.5l46.6-26.9C543.8,455,544.7,453.5,544.6,452.1z"/>
		<path class="st5" d="M489,426.9c-2.2,0.1-4.4,0.6-6.2,1.6l-12,7l-37.4,0v17.1c-0.1,1.2,0.6,2.3,2,3.1l48.2,27.9
			c1.4,0.8,3.4,1.2,5.4,1.1V426.9z"/>
		<path class="st2" d="M437.7,435.4l-4.2,0v17.1c-0.1,1.2,0.6,2.3,2,3.1l2.2,1.3V435.4z"/>
		<path class="st2" d="M484.4,483.8c2.6,1.1,6.2,1,9.2-0.1v-19.4h-9.2V483.8z"/>
		<path class="st1" d="M483.7,466.4l-48.2-27.9c-3-1.7-2.6-4.7,0.8-6.7l46.6-26.9c3.4-2,8.6-2.2,11.6-0.5l48.2,27.9
			c3,1.7,2.6,4.7-0.8,6.7l-46.6,26.9C491.8,467.9,486.6,468.1,483.7,466.4z"/>
		<path class="st4" d="M541.8,435.8l-46.6,26.9c-3.4,2-8.6,2.2-11.6,0.5l-48.2-27.9c-0.7-0.4-1.1-0.8-1.5-1.3
			c-1,1.6-0.6,3.4,1.5,4.6l48.2,27.9c3,1.7,8.1,1.5,11.6-0.5l46.6-26.9c2.7-1.5,3.5-3.7,2.3-5.4
			C543.7,434.4,542.9,435.1,541.8,435.8z"/>
		<g>
			<path class="st1" d="M526.9,456.5c0,1.2-0.9,2.8-1.9,3.4c-1.1,0.6-1.9,0.1-1.9-1.1c0-1.2,0.9-2.8,1.9-3.4
				C526,454.8,526.9,455.3,526.9,456.5z"/>
			<path class="st1" d="M533.2,452.9c0,1.2-0.9,2.8-1.9,3.4c-1.1,0.6-1.9,0.1-1.9-1.1c0-1.2,0.9-2.8,1.9-3.4
				C532.3,451.1,533.2,451.6,533.2,452.9z"/>
			<path class="st1" d="M539.4,449.3c0,1.2-0.9,2.8-1.9,3.4c-1.1,0.6-1.9,0.1-1.9-1.1c0-1.2,0.9-2.8,1.9-3.4
				C538.6,447.5,539.4,448,539.4,449.3z"/>
		</g>
		<g>
			<path class="st2" d="M486.5,449.1l-22.6-13c-1.4-0.8-1.2-2.2,0.4-3.1l21.8-12.6c1.6-0.9,4-1,5.4-0.2l22.6,13
				c1.4,0.8,1.2,2.2-0.4,3.1l-21.8,12.6C490.3,449.8,487.9,449.9,486.5,449.1z"/>
			<path class="st1" d="M488.7,438.2l-3.1-1.8c-0.2-0.1-0.2-0.3,0.1-0.4l3-1.7c0.2-0.1,0.6-0.1,0.7,0l3.1,1.8
				c0.2,0.1,0.2,0.3-0.1,0.4l-3,1.7C489.2,438.3,488.9,438.3,488.7,438.2z"/>
			<path class="st5" d="M464,436.1L464,436.1c0.2,0,0.3-0.1,0.4-0.2l21.8-12.6c1.6-0.9,4-1,5.4-0.2l22.5,13c1.3-0.9,1.3-2.2,0.1-2.9
				l-22.6-13c-1.4-0.8-3.8-0.7-5.4,0.2L464.3,433C462.7,433.9,462.6,435.3,464,436.1z"/>
		</g>
	</g>
	<path class="st0" d="M98.8,386.6c3.7-2.1,9.8-2.1,13.5,0L286,487c3.7,2.1,3.7,5.6,0,7.8c-3.7,2.1-9.8,2.1-13.5,0L98.8,394.4
		C95.1,392.2,95.1,388.8,98.8,386.6z"/>
	<g>
		<g>
			<path class="st1" d="M81.4,347.2L81.4,347.2c0.1-0.3,0.4-0.4,0.7-0.3l9.5,2.1l-3.7,6.3l-6.4-7.3
				C81.3,347.7,81.2,347.4,81.4,347.2z"/>
			<g>
				<path class="st6" d="M85.1,351.8c0-1.4,1-3,2.2-3.7c0.5-0.3,1-0.3,1.4-0.2c10.9-0.1,21.7,2.8,31.1,8.3l0.7,0.4l-11.8,20
					l-3.5-2.3c-7.3-4.9-13.5-11.3-18.1-18.8l-1.5-2.4C85.3,352.9,85.1,352.5,85.1,351.8z"/>
				<path class="st1" d="M106.4,371.4c0-5.2,3.8-11.6,8.3-14.1c4.5-2.6,8.2-0.4,8.2,4.8c0,5.2-3.8,11.6-8.3,14.1
					C110,378.7,106.4,376.6,106.4,371.4z"/>
				<polygon class="st1" points="178.5,420.2 108.8,376.7 120.5,356.7 192.4,396.5 				"/>
				<path class="st1" d="M175.7,413.9c0-6.2,4.4-13.7,9.8-16.7c5.4-3,9.7-0.5,9.6,5.7c0,6.2-4.4,13.7-9.8,16.7
					C180,422.6,175.7,420,175.7,413.9z"/>
			</g>
			<g>
				<path class="st1" d="M179.7,416.2c0-6.2,4.4-13.7,9.8-16.7c5.4-3,9.7-0.5,9.6,5.7c0,6.2-4.4,13.7-9.8,16.7
					S179.6,422.4,179.7,416.2z"/>
				
					<rect x="182" y="424.1" transform="matrix(0.8621 0.5067 -0.5067 0.8621 254.3333 -58.9952)" class="st1" width="107" height="27.4"/>
				<path class="st1" d="M272,470.4c0-6.2,4.4-13.7,9.8-16.7c5.4-3,9.7-0.5,9.6,5.7c0,6.2-4.4,13.7-9.8,16.7
					C276.2,479.1,271.9,476.6,272,470.4z"/>
				<path class="st5" d="M275.4,468.5c0.2-3.6,3.2-8.2,6.6-10.1c3.5-2,6.1-0.6,5.9,3.1c-0.2,3.6-3.2,8.2-6.6,10.1
					C277.9,473.5,275.2,472.1,275.4,468.5z"/>
			</g>
			<g>
				<path class="st4" d="M175,413.4c0-6.2,4.4-13.7,9.8-16.7c2.2-1.2,4.2-1.5,5.8-1.1c-1.7-1.8-4.6-2-7.9-0.2
					c-5.4,3-9.8,10.5-9.8,16.7c0,3.7,1.5,6.1,3.9,6.7C175.7,417.7,175,415.9,175,413.4z"/>
				<path class="st6" d="M175,413.4c0-6.2,4.4-13.7,9.8-16.7c2.7-1.5,5.1-1.7,6.9-0.6l5.2,3.1l-2.5,4.2c-0.5,5.6-4.2,12-8.9,15.1
					l-2.5,4.2l-5.2-3.1l0,0C176.1,418.7,175,416.5,175,413.4z"/>
				<path class="st1" d="M180.2,416.5c0-6.2,4.4-13.7,9.8-16.7c5.4-3,9.7-0.5,9.6,5.7c0,6.2-4.4,13.7-9.8,16.7
					C184.5,425.2,180.2,422.7,180.2,416.5z"/>
			</g>
			<g>
				<path class="st6" d="M278.6,468.5c0-2.7,1.9-5.9,4.2-7.2c2.3-1.3,4.2-0.2,4.2,2.4c0,2.7-1.9,5.9-4.2,7.2
					C280.4,472.2,278.6,471.2,278.6,468.5z"/>
				<path class="st6" d="M278.6,468.5c0-2.7,1.9-5.9,4.2-7.2c1.2-0.7,2.2-0.7,3-0.3l19.6,11.5c2.8,1.7,3.8,5.3,2.1,8.1
					c-1.7,2.8-5.3,3.8-8.1,2.1l-19.6-11.5l0,0C279,470.8,278.6,469.8,278.6,468.5z"/>
			</g>
			<g>
				<path class="st2" d="M256.9,432.5l2.9-1.7c1.7-1,3.9-0.7,6.3,0.7l10.1,5.9c1.9,1.1,3.4,3.8,3.4,6l0,5c0,0.8,0.4,1.8,1,2.5
					l-0.4,2.3l2.5-1.4l0,0c0.4-0.2,0.6-0.6,0.6-1.2l0-5c0-4.6-3.2-10.2-7.1-12.5l-10.1-5.9c-3.4-2-6.5-2.3-8.9-1l-2.9,1.7
					c-1.7,1-3.9,0.7-6.3-0.7l-40.5-23.8c-0.5-0.3-1-0.3-1.3-0.1l0,0l-2.5,1.4l2.1,0.8c0.3,0.9,0.9,1.8,1.7,2.2l40.5,23.8
					C251.3,433.5,254.5,433.9,256.9,432.5z"/>
				<path class="st2" d="M257.2,432.3c1.7-1,3.9-0.7,6.3,0.7l10.1,5.9c1.9,1.1,3.4,3.8,3.4,6l0,5c0,1.2,0.8,2.7,1.8,3.3
					c1,0.6,1.9,0.1,1.9-1.1l0-5c0-4.6-3.2-10.2-7.1-12.5l-10.1-5.9c-3.4-2-6.5-2.3-8.9-1l-2.9,1.7c-1.7,1-3.9,0.7-6.3-0.7
					l-40.5-23.8c-1-0.6-1.9-0.1-1.9,1.1c0,1.2,0.8,2.7,1.8,3.3l40.5,23.8c3.4,2,6.5,2.3,8.9,1L257.2,432.3z"/>
				<g>
					<path class="st4" d="M277.1,445.7l0,5c0,0,0,0.1,0,0.1c-0.1-0.3-0.1-0.6-0.1-0.9l0-5c0-0.1,0-0.3,0-0.4
						C277,444.9,277.1,445.3,277.1,445.7z"/>
				</g>
			</g>
		</g>
	</g>
	<polygon class="st0" points="322.4,227.9 432.8,291.6 499.2,253.3 388.9,189.5 	"/>
	<g>
		<g>
			<g>
				<path class="st6" d="M532.1,191.2l-14.5-8.4l53.6-30.9c2.5-1.5,2.5-3.8,0-5.3L516.4,115c-2.5-1.5-6.7-1.5-9.2,0l-53.6,30.9
					l-14.5-8.4l53.6-30.9c10.5-6.1,27.7-6.1,38.3,0l54.8,31.6c10.5,6.1,10.5,16,0,22.1L532.1,191.2z"/>
			</g>
			<g>
				<path class="st1" d="M555.6,194.9c0-7.8-4.7-16.8-10.6-20.2l-97.1-56.1c-2.6-1.5-5-1.6-6.8-0.6l0,0l-115.9,67.4L437.2,270
					l114.2-66.3c0.4-0.2,0.7-0.3,1-0.6l0,0l0,0C554.4,201.6,555.6,198.8,555.6,194.9z"/>
				<path class="st5" d="M437.2,270l114.2-66.3c0.4-0.2,0.7-0.3,1-0.6l0,0l0,0c1.9-1.4,3.1-4.3,3.1-8.2c0-3.7-1.1-7.7-2.8-11.2
					l-130.2,75.2L437.2,270z"/>
				<path class="st2" d="M429.9,269.7l-97.1-56.1c-5.8-3.4-10.6-12.4-10.6-20.2l0,0c0-7.8,4.7-11.3,10.6-8l97.1,56.1
					c5.8,3.4,10.6,12.4,10.6,20.2l0,0C440.5,269.4,435.8,273,429.9,269.7z"/>
				<path class="st4" d="M431.1,241L334,184.9c-2.7-1.5-5.1-1.6-7-0.5c1.7-0.5,3.7-0.2,5.8,1l97.1,56.1c5.8,3.4,10.6,12.4,10.6,20.2
					v0c0,4.2-1.4,7.2-3.6,8.5c2.9-0.9,4.7-4.1,4.7-9v0C441.7,253.4,436.9,244.3,431.1,241z"/>
			</g>
			<path class="st4" d="M415.4,250.7l-11.7-6.7c-1.2-0.7-2.1-2.5-2.1-4l0,0c0-1.5,0.9-2.3,2.1-1.6l11.7,6.7c1.2,0.7,2.1,2.5,2.1,4
				l0,0C417.5,250.7,416.6,251.4,415.4,250.7z"/>
		</g>
		<g>
			<path class="st2" d="M428.6,171c3.5-2.1,3.5-5.4-0.1-7.4c-3.6-2-9.3-1.9-12.8,0.1c-3.5,2.1-3.5,5.4,0.1,7.4
				C419.3,173.2,425,173.1,428.6,171z"/>
			<path class="st4" d="M448.1,182c3.5-2.1,3.5-5.4-0.1-7.4c-3.6-2-9.3-1.9-12.8,0.1c-3.5,2.1-3.5,5.4,0.1,7.4
				C438.8,184.2,444.6,184.1,448.1,182z"/>
			<path class="st4" d="M467.7,193.1c3.5-2.1,3.5-5.4-0.1-7.4c-3.6-2-9.3-1.9-12.8,0.1c-3.5,2.1-3.5,5.4,0.1,7.4
				C458.4,195.2,464.1,195.2,467.7,193.1z"/>
		</g>
	</g>
	<g>
		<g>
			<g>
				<path class="st6" d="M212.3,353.5c0,0-5-2.5-8.1,1.2c-3.1,3.8-7.5,12.7-7.6,18.7c-0.1,6,4.8,5.6,7.7,4.2
					c2.9-1.4,11.4-13.8,11.9-16.2c0.5-2.4-0.6-5.7-1.4-6.3C213.9,354.5,212.3,353.5,212.3,353.5z"/>
				<path class="st1" d="M213.4,352.3l0.2,5.2c0,1.1-0.5,2.2-1.5,2.7c-0.9,0.5-2.2,0.9-3.9,0.6c-3.8-0.6-4.1-1.7-4.4-6.9
					C203.6,348.7,213.4,352.3,213.4,352.3z"/>
				<g>
					<path class="st6" d="M193.9,343.5c0,0-5-2.5-8.1,1.2c-3.1,3.8-7.5,12.7-7.6,18.7c-0.1,6,4.8,5.6,7.7,4.2
						c2.9-1.4,11.4-13.8,11.9-16.2c0.5-2.4-0.6-5.7-1.4-6.3C195.5,344.5,193.9,343.5,193.9,343.5z"/>
					<path class="st1" d="M195,342.3l0.2,5.2c0,1.1-0.5,2.2-1.5,2.7c-0.9,0.5-2.2,0.9-3.9,0.6c-3.8-0.6-4.1-1.7-4.4-6.9
						C185.2,338.7,195,342.3,195,342.3z"/>
					<path class="st7" d="M239.8,246.8c-1.5-24.2-26.2,3.6-26.2,3.6l-16.9,16.6l-15.2,16.7c-3,3.3-4.4,7.7-3.8,12.1l6.2,46.9
						c0.3,2.3,2.3,4,4.6,4c0.7,0,1.4-0.1,2.3-0.2c5.5-0.9,5.1-6.1,5.1-6.1l-1.1-43.9l32-19.3C226.7,277.2,241.3,271,239.8,246.8z"/>
				</g>
				<path class="st7" d="M258.2,256c-1.5-24.2-26.2,3.6-26.2,3.6l-16.9,16.6l-15.2,16.7c-3,3.3-4.4,7.7-3.8,12.1l6.2,46.9
					c0.3,2.3,2.3,4,4.6,4c0.7,0,1.4-0.1,2.3-0.2c5.5-0.9,5.1-6.1,5.1-6.1l-1.1-42.6l32-20.5C245.1,286.4,259.7,280.2,258.2,256z"/>
				<path class="st6" d="M243.6,178.3c18.7,7.8,18.4,18.8,18.4,18.8s-3.7,40.6-2.4,67.7c0.5,11.3-60.2,12.2-51.2-18
					C219,211.2,215,182.3,220,178C225,173.6,238.7,176.3,243.6,178.3z"/>
				
					<ellipse transform="matrix(0.9684 0.2495 -0.2495 0.9684 53.9239 -54.0534)" class="st8" cx="240.2" cy="185.7" rx="9.7" ry="7.1"/>
				<path class="st4" d="M242.1,192.7l-3.4,3.7c-0.4,0.5-0.7,1.1-0.6,1.8l2.4,20.5c0.1,0.6-0.1,1.2-0.4,1.6l-7.4,9.7
					c-0.3,0.4-1,0.3-1.2-0.2l-4-12.7c-0.2-0.5-0.1-1,0-1.5l7.1-18.6c0.2-0.4,0.2-0.9,0.1-1.3l-1-4.9L242.1,192.7z"/>
				<path class="st4" d="M241.7,193.9c-1.1,0-2.3-0.1-3.4-0.4c-2.7-0.7-5-2.1-6.6-4c-1.6-2-2.2-4.2-1.7-6.4c0.5-2.1,2.2-3.8,4.5-4.8
					c2.3-0.9,5-1,7.7-0.3c2.7,0.7,5,2.1,6.6,4c1.6,2,2.2,4.2,1.7,6.4l0,0c-0.5,2.1-2.2,3.8-4.5,4.8
					C244.6,193.7,243.2,193.9,241.7,193.9z M238.8,179.3c-1.3,0-2.5,0.2-3.6,0.7c-1.8,0.7-3.1,2-3.5,3.6c-0.4,1.6,0.1,3.3,1.3,4.8
					c1.3,1.6,3.3,2.8,5.6,3.4c2.3,0.6,4.7,0.5,6.6-0.3c1.8-0.7,3.1-2,3.5-3.6l0,0c0.4-1.6-0.1-3.3-1.3-4.8c-1.3-1.6-3.3-2.8-5.6-3.4
					C240.8,179.4,239.8,179.3,238.8,179.3z"/>
				<path class="st8" d="M236,177.5c0,0,0.2,0.8-0.2,6.7c-0.1,1.9,6.4,3.6,8.1,1.9c1.7-1.7,1-3.4,1.4-9.8
					C245.8,169.9,236,177.5,236,177.5z"/>
				<path class="st9" d="M245.4,176.3c0,0-1.6,5.9-9.5,8.1l0.1-5.4L245.4,176.3z"/>
				<circle class="st8" cx="236.5" cy="164.9" r="14.4"/>
				<path class="st9" d="M239.8,165.5c0,0-7.9,3.4-13.4,3.4c-5.5,0-4.3-4.6-4.3-4.6l16.3-2.4L239.8,165.5z"/>
				<path class="st1" d="M224.7,166.4c0,0,6.9-2.9,13-1.7c1.4,0.3,2.7,1.1,3.7,2.2c0.3,0.4,0.7,0.7,1.1,0.8c1.1,0.2,2.8-4.2,4.9-4.3
					c2.1-0.1,3.5,1.4,1.8,4.1c-1.7,2.7-1.1,5.8-0.3,6.3s10.6-6.4,3.2-21c-7.4-14.6-27.5-6.3-30.5-3.4c0,0-3.1,2.7-5.6,0.3
					C216,149.6,213.2,170.6,224.7,166.4z"/>
				<path class="st8" d="M251.4,226.8v11c0,1.3-0.5,2.5-1.5,3.3l-22.5,20.5l2.6,3.9l31.1-20.4c1.4-1,2.3-2.6,2.5-4.3l2.1-20.4
					L251.4,226.8z"/>
				<path class="st6" d="M260.3,191.7c0,0,6.8,10.3,9.4,37.4c0,0-11.7,3.8-18.3,1.6C244.8,228.5,260.3,191.7,260.3,191.7z"/>
				<path class="st10" d="M250.2,204.7c0,0-2.7,14.3-2.8,21.1c0,1.9,1.1,3.5,2.8,4.2l0,0V204.7z"/>
			</g>
			<g>
				<path class="st2" d="M244.3,275.9l-5-0.7l-32.2-18.6c-1-0.6-2.8-0.5-4,0.2L180.4,270l-3-0.4v3l0,0c0,0.4,0.2,0.8,0.7,1.1
					l36.4,21c1,0.6,2.8,0.5,4-0.2l24.8-14.3c0.7-0.4,1-0.9,1-1.4l0,0V275.9z"/>
				<path class="st5" d="M220.1,264.2l-2.3-1.3h-25.1l-12.4,7.1l-3-0.4v3l0,0c0,0.4,0.2,0.8,0.7,1.1l36.4,21
					c0.5,0.3,1.3,0.4,2.1,0.4L220.1,264.2z"/>
				<path class="st2" d="M178.7,269.8l-1.3-0.2v3l0,0c0,0.4,0.2,0.8,0.7,1.1l0.6,0.4V269.8z"/>
				<path class="st2" d="M214.9,294.9c1,0.4,2.4,0.3,3.4-0.2v-5.1h-3.4V294.9z"/>
				<path class="st4" d="M214.5,291.7l-36.4-21c-1-0.6-0.9-1.6,0.3-2.3l24.8-14.3c1.2-0.7,3-0.8,4-0.2l36.4,21
					c1,0.6,0.9,1.6-0.3,2.3l-24.8,14.3C217.3,292.2,215.5,292.3,214.5,291.7z"/>
				<path class="st1" d="M213.9,288.5L183.6,271c-0.9-0.5-0.7-1.4,0.2-1.9l13.3-7.5c1-0.6,2.5-0.6,3.3-0.1l30.3,17.5
					c0.9,0.5,0.7,1.4-0.2,1.9l-13.3,7.5C216.2,289,214.7,289,213.9,288.5z"/>
			</g>
			<path class="st8" d="M204.6,253.3l-0.4,2.5c-0.3,2.1-0.3,4.3,0.2,6.4l0.4,2.2c0.3,1.2,1.2,2.2,2.5,2.4l0,0c1,0.2,1.9-0.5,2-1.5
				l0.6-5.4c0,0,1.4,1.8,2,1.8c0.7,0-0.7-5.4-2.2-8.4C208.2,250.4,204.6,253.3,204.6,253.3z"/>
			<path class="st8" d="M216.9,213.4l-3.9,7.7c-0.9,1.8-1.5,3.8-1.6,5.9l-1.7,26.5l-5.1-0.1l-2.3-29.7c-0.1-0.9,0-1.8,0.1-2.7
				l2.7-15.1L216.9,213.4z"/>
			<g>
				<path class="st7" d="M213.3,293.7l-3.1-4l-32.1-18.6c-1-0.6-1.9-2.2-1.9-3.6l0-26.3l-1.8-2.4l1.7-1l0,0c0.3-0.2,0.8-0.2,1.3,0.1
					l36.4,21.1c1,0.6,1.9,2.2,1.9,3.6l0,28.7c0,0.8-0.3,1.3-0.7,1.5v0L213.3,293.7z"/>
				<path class="st5" d="M191,278.6l-2.3-1.3l-12.5-21.8l0-14.3l-1.8-2.4l1.7-1l0,0c0.3-0.2,0.8-0.2,1.3,0.1l36.4,21.1
					c0.5,0.3,1,0.9,1.4,1.6L191,278.6z"/>
				<path class="st2" d="M175.2,239.9l-0.8-1.1l1.7-1l0,0c0.3-0.2,0.8-0.2,1.3,0.1l0.6,0.4L175.2,239.9z"/>
				<path class="st11" d="M214.1,259.2c0.8,0.7,1.4,1.9,1.5,3.1l-3.6,2.1l-1.7-3L214.1,259.2z"/>
				<path class="st2" d="M212.1,260l-36.4-21.1c-1-0.6-1.9,0-1.9,1.4l0,28.7c0,1.4,0.8,3,1.9,3.6l36.4,21.1c1,0.6,1.9,0,1.9-1.4
					l0-28.7C213.9,262.2,213.1,260.6,212.1,260z"/>
			</g>
			<path class="st8" d="M230,265.6l-0.6,1.2c-0.7,1.4-1.7,2.6-3,3.4l-3.6,2.2c-1.1,0.7-2.6,0.8-3.7,0.1c0,0-0.1,0-0.1-0.1
				c-1.1-0.7-1.3-2.4-0.3-3.3l3.8-3.9c0,0-2.1,1.6-2.7,1c-0.4-0.5,2.1-2.8,4-2.9c1.9-0.1,3.8-1.6,3.8-1.6L230,265.6z"/>
			<path class="st6" d="M220.4,177.9c0,0-13.9,15.1-19.4,28.9c0,0,4.7,8.5,16.3,11.9C228.9,222,220.4,177.9,220.4,177.9z"/>
			<path class="st10" d="M214.7,217.8l2.2-21.7l-5.3,20.3C212.6,216.9,213.6,217.4,214.7,217.8z"/>
			<path class="st4" d="M230.8,174.9l-3.7-1c0,0,1.8,2.8,4.4,3.5c2.6,0.7,3-1.5,3-1.5L230.8,174.9z"/>
		</g>
		<circle class="st4" cx="248.6" cy="168.9" r="2.1"/>
	</g>
	<g>
		<g>
			<path class="st0" d="M393.8,357.1c-15,8.6-39.2,8.6-54.2,0c-15-8.6-15-22.6,0-31.3c15-8.6,39.2-8.6,54.2,0
				C408.7,334.5,408.7,348.5,393.8,357.1z"/>
			<path class="st6" d="M410.3,322.5v-12.2H408c-2.1-3.6-5.5-6.9-10.5-9.8c-17-9.8-44.6-9.8-61.7,0c-4.9,2.8-8.4,6.2-10.5,9.8h-2.3
				v12.2h0c0,6.5,4.2,12.9,12.8,17.9c17,9.8,44.6,9.8,61.7,0C406,335.4,410.3,329,410.3,322.5z"/>
			<path class="st6" d="M397.5,328.1c-17,9.8-44.6,9.8-61.7,0c-17-9.8-17-25.8,0-35.6c17-9.8,44.6-9.8,61.7,0
				S414.5,318.3,397.5,328.1z"/>
			<path class="st4" d="M397.5,328.1c-17,9.8-44.6,9.8-61.7,0c-8.2-4.7-12.4-10.8-12.7-17c-0.4,6.7,3.8,13.5,12.7,18.6
				c17,9.8,44.6,9.8,61.7,0c8.9-5.1,13.1-11.9,12.7-18.6C409.9,317.3,405.7,323.4,397.5,328.1z"/>
		</g>
		<g>
			<path class="st4" d="M345.7,318.6c-0.7-0.4-1.2-1-1.1-1.6l0-16.4c0-1.2,1.8-2.3,3.9-2.3c2.2,0,3.9,1,3.9,2.3l0,13.6l39.5-4.8
				c2.1-0.3,4.2,0.5,4.7,1.7c0.5,1.2-0.9,2.4-3,2.7l-44.2,5.4c-1.2,0.1-2.4,0-3.3-0.5C345.9,318.7,345.8,318.7,345.7,318.6z"/>
		</g>
	</g>
	<g>
		<g>
			<polygon class="st0" points="114.6,502.6 91.5,489.3 114.6,476 137.7,489.3 			"/>
			<polygon class="st10" points="137.7,472.4 114.6,485.7 114.6,459 137.7,445.7 			"/>
			<polygon class="st6" points="114.6,459 91.5,445.7 114.6,432.4 137.7,445.7 			"/>
			<polygon class="st6" points="114.6,485.7 91.5,472.4 91.5,445.7 114.6,459 			"/>
		</g>
		<polygon class="st4" points="106.3,471.3 99.9,467.6 99.9,460.1 106.3,463.8 		"/>
	</g>
</g>
</svg>
